<?xml version="1.0" encoding="UTF-8" standalone="no"?>
<!-- Created with Inkscape (http://www.inkscape.org/) -->
<svg id="svg2" xmlns:rdf="http://www.w3.org/1999/02/22-rdf-syntax-ns#" xmlns="http://www.w3.org/2000/svg" xml:space="preserve" height="1e3" viewBox="0 0 1000 1000" width="1e3" version="1.1" xmlns:cc="http://creativecommons.org/ns#" xmlns:dc="http://purl.org/dc/elements/1.1/"><metadata id="metadata8"><rdf:RDF><cc:Work rdf:about=""><dc:format>image/svg+xml</dc:format><dc:type rdf:resource="http://purl.org/dc/dcmitype/StillImage"/><dc:title/></cc:Work></rdf:RDF></metadata><defs id="defs6"><clipPath id="clipPath298" clipPathUnits="userSpaceOnUse"><path id="path300" d="m0 800h800v-800h-800v800z"/></clipPath><clipPath id="clipPath306" clipPathUnits="userSpaceOnUse"><path id="path308" d="m220.19 85.63h344.35v-18.68h-344.35v18.68z"/></clipPath><clipPath id="clipPath534" clipPathUnits="userSpaceOnUse"><path id="path536" d="m364.93 677.04h12.715v-10.651h-12.715v10.651z"/></clipPath><clipPath id="clipPath550" clipPathUnits="userSpaceOnUse"><path id="path552" d="m367.13 672.67h9.064v-4.13h-9.064v4.13z"/></clipPath><clipPath id="clipPath586" clipPathUnits="userSpaceOnUse"><path id="path588" d="m388.08 632.48h10.436v-19.735h-10.436v19.735z"/></clipPath><clipPath id="clipPath638" clipPathUnits="userSpaceOnUse"><path id="path640" d="m376.51 591.23h9.737v-53.893h-9.737v53.893z"/></clipPath></defs><g id="g10" transform="matrix(1.25 0 0 -1.25 0 1e3)"><g id="g294"><g id="g296" clip-path="url(#clipPath298)"><g id="g302"><g id="g310"><g id="g312" opacity=".35001" clip-path="url(#clipPath306)"><g id="g314" transform="translate(564.54 76.29)"><path id="path316" d="m0 0c0 5.158-77.085 9.34-172.17 9.34-95.089 0-172.17-4.182-172.17-9.34s77.085-9.34 172.17-9.34 172.17 4.182 172.17 9.34" fill="#481118"/></g></g></g></g><g id="g318" transform="translate(513.9 82)"><path id="path320" d="m0 0h-220.39c-13.638 0-26.508 10.245-26.508 22.171v3.239c0 11.926 12.87 21.59 26.508 21.59h220.39s-6.174-7.837-6.174-22.421c0-16.721 6.174-24.579 6.174-24.579" fill="#fcfcf7"/></g><g id="g322" transform="translate(516.47 81)"><path id="path324" d="m0 0h-138.47v46h138.47s-6.173-7.337-6.173-21.921c0-16.721 6.173-24.079 6.173-24.079" fill="#f0f0e2"/></g><g id="g326" transform="translate(297.7 81.338)"><path id="path328" d="m0 0c-15.186 0-26.699 9.792-26.699 22.293v3.239c0 6.144 2.519 11.837 7.788 16.029 5.112 4.066 11.683 6.305 18.852 6.305 1.027 0 1.763-0.727 1.763-1.625 0-0.897-0.355-1.625-1.382-1.625-13.176 0-23.021-8.383-23.021-19.084v-3.239c0-10.678 9.738-19.043 22.84-19.043 1.027 0 1.788-0.727 1.788-1.625 0-0.897-0.902-1.625-1.929-1.625" fill="#3c6082"/></g><g id="g330" transform="translate(518,80)"><path id="path332" d="m0 0h-225.11c-15.45 0-28.89 10.62-28.89 24.171v3.239c0 13.106 13.177 23.59 28.891 23.59h225.11v-5h-225.11c-12.2 0-21.89-8.557-21.89-18.59v-3.239c0-10.349 10.1-19.171 21.89-19.171h225.11v-5z" fill="#613d3c"/></g><g id="g334" transform="translate(464.14 270)"><path id="path336" d="m0 0h-144.05c-10.229 0-19.082 8.429-19.082 17.374v2.429c0 8.944 8.853 15.197 19.082 15.197h144.05s-4.63-5.752-4.63-16.691c0-12.54 4.63-18.309 4.63-18.309" fill="#fcfcf7"/></g><g id="g338" transform="translate(466.06 270)"><path id="path340" d="m0 0h-115.06v35h115.06s-4.63-5.752-4.63-16.691c0-12.54 4.63-18.309 4.63-18.309" fill="#f0f0e2"/></g><g id="g342" transform="translate(323.12 270.25)"><path id="path344" d="m0 0c-11.39 0-20.125 7.344-20.125 16.719v2.43c0 4.608 1.99 8.878 5.942 12.022 3.834 3.049 8.813 4.729 14.189 4.729 0.77 0 1.347-0.546 1.347-1.219s-0.854-1.219-1.624-1.219c-9.882 0-17.854-6.287-17.854-14.313v-2.43c0-8.008 7.904-14.281 17.731-14.281 0.77 0 1.591-0.546 1.591-1.219s-0.427-1.219-1.197-1.219" fill="#3c6082"/></g><g id="g346" transform="translate(467,269)"><path id="path348" d="m0 0h-147.38c-11.59 0-20.62 8.21-20.62 18.374v2.429c0 9.829 8.834 18.197 20.619 18.197h147.38v-4h-147.38c-9.15 0-16.62-6.672-16.62-14.197v-2.429c0-7.762 7.78-15.374 16.62-15.374h147.38v-3z" fill="#8da1b5"/></g><g id="g350" transform="translate(521.24 205)"><path id="path352" d="m0 0h-222.98c-10.577 0-18.264 8.425-18.264 17.674v2.512c0 9.25 7.687 16.814 18.264 16.814h222.98s-4.788-6.351-4.788-17.663c0-12.969 4.788-19.337 4.788-19.337" fill="#fcfcf7"/></g><g id="g354" transform="translate(521.24 241.23)"><path id="path356" d="m0 0h-162.86v-35.755h162.86s-4.788 5.746-4.788 18.715c0 11.311 4.788 17.04 4.788 17.04" fill="#f0f0e2"/></g><g id="g358" transform="translate(300.98 203.67)"><path id="path360" d="m0 0c-11.348 0-19.977 8.335-19.977 18.581v2.512c0 9.972 8.895 18.085 20.571 18.085 1.026 0 1.556-0.727 1.556-1.625s-1.237-1.625-2.264-1.625c-9.626 0-17.863-6.655-17.863-14.835v-2.512c0-8.453 7.82-15.331 17.118-15.331 1.027 0 2.288-0.727 2.288-1.625s-0.403-1.625-1.429-1.625" fill="#a7a67e"/></g><g id="g362" transform="translate(526,203)"><path id="path364" d="m0 0h-228.22c-11.56 0-21.78 9.274-21.78 19.674v2.512c0 10.037 9.61 17.814 21.78 17.814h228.22v-4h-228.22c-7.12 0-16.78-8.527-16.78-13.814v-2.512c0-8.421 7.48-16.674 16.78-16.674h228.22v-3z" fill="#dc5164"/></g><g id="g366" transform="translate(307.55 133)"><path id="path368" d="m0 0h59.106c9.441 0 16.348 7.194 16.348 15.45v2.241c0 8.256-6.907 14.309-16.348 14.309h-59.106s4.274-5.157 4.274-15.253c0-11.575-4.274-16.747-4.274-16.747" fill="#fcfcf7"/></g><g id="g370" transform="translate(367.02 132.34)"><path id="path372" d="m0 0c-0.444 0-0.879 0.195-1.13 0.55-0.386 0.545-0.194 1.26 0.429 1.598 3.03 1.661 8.956 0.901 8.956 15.78 0 9.34-8.864 14.236-8.954 14.285-0.624 0.337-0.817 1.052-0.432 1.598s1.203 0.714 1.827 0.377c0.417-0.225 10.214-5.639 10.214-16.26 0-12.082-9.795-17.528-10.212-17.754-0.218-0.118-0.46-0.174-0.698-0.174" fill="#a7a67e"/></g><g id="g374" transform="translate(460.01 166)"><path id="path376" d="m0 0h-156.01v-2h67.288c2.786-3 6.379-7.106 6.379-13.288 0-8.157-4.757-13.712-7.567-15.712h-66.1v-4h156.01c10.255 0 18.991 6.409 18.991 17.914v2.242c0 9.142-8.029 14.844-18.991 14.844" fill="#dc5164"/></g><g id="g378" transform="translate(410.59 148.32)"><path id="path380" d="m0 0c0 10.096-5.336 17.681-5.336 17.681h-10.089s5.335-7.585 5.335-17.681c0-11.575-5.335-17.319-5.335-17.319h10.089s5.336 5.744 5.336 17.319" fill="#c4ba02"/></g><g id="g382" transform="translate(458.38 148.32)"><path id="path384" d="m0 0c0 10.096-5.336 17.681-5.336 17.681h-10.089s5.335-7.585 5.335-17.681c0-11.575-5.335-17.319-5.335-17.319h10.089s5.336 5.744 5.336 17.319" fill="#c4ba02"/></g><g id="g386" transform="translate(456.6 332)"><path id="path388" d="m0 0h-59.942c-6.351 0-12.657 5.19-12.657 10.744v1.508c0 5.554 6.306 9.748 12.657 9.748h59.942s-2.875-3.705-2.875-10.497c0-7.787 2.875-11.503 2.875-11.503" fill="#fcfcf7"/></g><g id="g390" transform="translate(395.69 333)"><path id="path392" d="m0 0h-61.912c-6.352 0-11.782 4.502-11.782 10.056v1.508c0 5.554 5.43 9.436 11.782 9.436h61.912s-6.447-3.205-6.447-9.997c0-7.787 6.447-11.003 6.447-11.003" fill="#613d3c"/></g><g id="g394" transform="translate(396.41 331.91)"><path id="path396" d="m0 0c0.299 0 0.591 0.131 0.76 0.37 0.26 0.366 0.131 0.848-0.289 1.075-0.244 0.134-6.024 3.384-6.024 10.616 0 6.284 5.963 9.577 6.023 9.61 0.42 0.227 0.55 0.708 0.291 1.075s-0.965 0.396-1.385 0.169c-0.281-0.152-6.716-3.709-6.716-10.854 0-8.128 6.59-11.792 6.871-11.944 0.146-0.079 0.309-0.117 0.469-0.117" fill="#3c6082"/></g><g id="g398" transform="translate(333.85 331)"><path id="path400" d="m0 0h125.15v2h-125.15c-5.35 0-10.852 4.943-10.852 10.056v1.508c0 4.702 5.133 8.436 10.852 8.436h125.15v2h-125.15c-7.375 0-12.852-4.286-12.852-10.436v-1.508c0-6.467 5.953-12.056 12.852-12.056" fill="#613d3c"/></g><g id="g402" transform="translate(344.54 355)"><path id="path404" d="m0 0h69.193c4.18 0 7.269 4.758 7.269 9.099v1.179c0 4.341-3.089 7.722-7.269 7.722h-69.193s1.892-3.298 1.892-8.608c0-6.085-1.892-9.392-1.892-9.392" fill="#fcfcf7"/></g><g id="g406" transform="translate(414.76 355.38)"><path id="path408" d="m0 0c-0.166 0-0.329 0.099-0.423 0.277-0.145 0.274-0.494 0.265-0.259 0.435 0.135 0.1 3.78 2.904 3.78 8.32 0 4.705-3.326 7.172-3.36 7.196-0.234 0.17-0.306 0.53-0.162 0.805 0.145 0.275 0.892-0.124 1.127-0.294 0.156-0.114 3.391-2.357 3.391-7.707 0-6.087-3.675-8.831-3.832-8.944-0.081-0.06-0.172-0.088-0.262-0.088" fill="#3c6082"/></g><g id="g410" transform="translate(455.07 374.22)"><path id="path412" d="m0 0h-111.86v-2.989h72.696c1.214-1.419 2.702-3.814 2.702-7.065 0-3.775-1.527-6.386-2.749-7.877h-72.649v-1.494h71.154 40.706 0.046c0.058 0 0.115 0.01 0.174 0.012 4.428 0.128 7.695 4.074 7.695 9.212v1.218c0 4.967-3.061 8.983-7.915 8.983" fill="#e2c95e"/></g><g><path id="path414" d="m504 166h-212v37h212v-37z" fill="#006c9a"/><path id="path416" d="m311 166h-7v37h7v-37z" fill="#efeec8"/><path id="path418" d="m325 166h-9v37h9v-37z" fill="#efeec8"/><path id="path420" d="m494 308h-197v23h197v-23z" fill="#dc5164"/><path id="path422" d="m488 308h-8v23h8v-23z" fill="#efeec8"/><path id="path424" d="m478 308h-8v23h8v-23z" fill="#efeec8"/></g><g id="g426" transform="translate(505,244)"><path id="path428" d="m0 0h-140.62c-9.12 0-16.38 3.625-16.38 11.605v2.167c0 7.98 7.257 9.228 16.383 9.228h140.62v-23z" fill="#fcfcf7"/></g><g id="g430" transform="translate(513.11 244)"><path id="path432" d="m0 0h-92.114v23h92.114s-2.318-4.667-2.318-11.57c0-6.961 2.318-11.43 2.318-11.43" fill="#f0f0e2"/></g><g id="g434" transform="translate(364.88 243)"><path id="path436" d="m0 0h151.12v2h-151.12c-10.442 0-14.875 3.743-14.875 10.605v2.167c0 5.979 3.998 8.228 14.875 8.228h151.12v3h-151.12c-7.802 0-16.875-1.501-16.875-11.228v-2.167c0-5.712 1.854-12.605 16.875-12.605" fill="#e2c95e"/></g><g id="g438" transform="translate(599.81 690.33)"><path id="path440" d="m0 0c0-4.588-2.57-8.307-5.74-8.307-3.169 0-5.739 3.719-5.739 8.307s2.57 8.307 5.739 8.307c3.17 0 5.74-3.719 5.74-8.307" fill="#fcfcf7"/></g><g id="g442" transform="translate(469.31 680.87)"><path id="path444" d="m0 0-58.296-2.257c-0.014-0.001-0.027 0.011-0.027 0.025l-0.453 11.679c0 0.014 0.011 0.027 0.026 0.027l58.296 2.257c0.014 0.001 0.027-0.011 0.027-0.025l0.453-11.678c0-0.015-0.011-0.027-0.026-0.028" fill="#e2c95e"/></g><g id="g446" transform="translate(510.53 681.85)"><path id="path448" d="m0 0-41.446-1.605c-0.014 0-0.027 0.011-0.027 0.026l-0.493 12.723c0 0.015 0.011 0.028 0.026 0.028l41.445 1.605c0.015 0 0.027-0.011 0.028-0.026l0.492-12.723c0.001-0.015-0.01-0.027-0.025-0.028" fill="#e2c95e"/></g><g id="g450" transform="translate(553.06 681.7)"><path id="path452" d="m0 0-41.434-1.604c-0.018-0.001-0.033 0.015-0.034 0.036l-0.589 15.22c-0.001 0.02 0.013 0.037 0.03 0.038l41.435 1.604c0.018 0.001 1.154 0.429 1.155 0.408l-0.532-15.664c0-0.02-0.013-0.037-0.031-0.038" fill="#e2c95e"/></g><g id="g454" transform="translate(595.5 681.87)"><path id="path456" d="m0 0-41.446-1.605c-0.014 0-0.027 0.011-0.027 0.026l-0.698 18.022c-0.001 0.015 0.011 0.027 0.026 0.028l41.445 1.605c0.015 0 0.027-0.011 0.028-0.026l0.697-18.022c0.001-0.015-0.01-0.027-0.025-0.028" fill="#e2c95e"/></g><g id="g458" transform="translate(410.71 678.2)"><path id="path460" d="m0 0h-0.354c-0.469 0-0.852 0.383-0.852 0.851v11.666c0 0.468 0.383 0.851 0.852 0.851h0.354c0.468 0 0.851-0.383 0.851-0.851v-11.666c0-0.468-0.383-0.851-0.851-0.851" fill="#dfda8a"/></g><g id="g462" transform="translate(468.5 679.03)"><path id="path464" d="m0 0h-0.354c-0.469 0-0.852 0.383-0.852 0.851v13.517c0 0.468 0.383 0.851 0.852 0.851h0.354c0.468 0 0.851-0.383 0.851-0.851v-13.517c0-0.468-0.383-0.851-0.851-0.851" fill="#dfda8a"/></g><g id="g466" transform="translate(511.08 679.03)"><path id="path468" d="m0 0h-0.354c-0.469 0-0.852 0.383-0.852 0.851v15.782c0 0.468 0.383 0.851 0.852 0.851h0.354c0.468 0 0.851-0.383 0.851-0.851v-15.782c0-0.468-0.383-0.851-0.851-0.851" fill="#dfda8a"/></g><g id="g470" transform="translate(553.29 679.28)"><path id="path472" d="m0 0h0.355c0.468 0 0.851 0.383 0.851 0.851v18.477c0 0.469-0.383 0.852-0.851 0.852h-0.355c-0.468 0-0.851-0.383-0.851-0.852v-18.477c0-0.468 0.383-0.851 0.851-0.851" fill="#dfda8a"/></g><g id="g474" transform="translate(595.86 680.23)"><path id="path476" d="m0 0h-0.355c-0.468 0-0.851 0.383-0.851 0.851v18.94c0 0.468 0.383 0.851 0.851 0.851h0.355c0.468 0 0.851-0.383 0.851-0.851v-18.94c0-0.468-0.383-0.851-0.851-0.851" fill="#dfda8a"/></g><g id="g478" transform="translate(376.37 653.23)"><path id="path480" d="m0 0s-14.5-39.472-0.045-16.999c0.007 0.01 0.024-0.017 0.035-0.024 0.617 0.02 1.222-0.153 1.763-0.453 0.649 0.306 1.396 0.387 2.11 0.267 0.104 0.196 4.854-12.364 4.998-12.193l-4.489 12.92c0.082 0.096 0.176 0.171 0.265 0.255-0.163 0.467 2.042-12.948 1.807-12.37 0.078 2.978 1.454 26.624 1.454 26.624-7.392 1.18-7.898 1.973-7.898 1.973" fill="#f9f7e8"/></g><g id="g482" transform="translate(466.85 685.47)"><path id="path484" d="m0 0c-0.421-0.834-0.967-1.588-1.618-2.24-1.073-1.546-2.864-2.778-3.774-2.852-0.161-0.013-0.363 0.05-0.589 0.156-0.716-0.189-1.49-0.303-2.339-0.303-0.35 0-0.681 0.031-1.007 0.067-0.266-0.032-0.535-0.055-0.805-0.067-0.173-0.008-0.343 0.004-0.514 0.01 0.067-1.598 0.86-3.945 3.071-6.831 3.634-4.745 6.457-7.997 6.457-7.997s-3.96-17.628-9.775-24.515c-5.814-6.887 8.919-4.15 10.785-5.081 0 0 7.184 16.822 8.164 26.757 0 0 5.9 12.323 6.18 17.434 0.172 3.143-9.326 9.838-14.236 5.462" fill="#f9f7e8"/></g><g id="g486" transform="translate(369.9 396.54)"><path id="path488" d="m0 0s-4.837-15.547-5.078-19.425 17.2-3.991 18.851-2.869c1.65 1.123 5.557 19.709 3.927 20.246s-17.135 3.895-17.7 2.048" fill="#5d3938"/></g><g id="g490" transform="translate(368.58 395.3)"><path id="path492" d="m0 0s2.885-2.675 7.755-4.641c4.871-1.966 11.308 3.46 11.308 3.46 6.795 15.664 15.992 114.45 15.992 114.45s-22.579 24.713-24.459 17.036c-1.88-7.676 5.968-42.026 3.165-62.652l-13.761-67.658z" fill="#0a648f"/></g><g id="g494" transform="translate(400.03 394.42)"><path id="path496" d="m0 0s6.222-11.479 7.828-12.411c1.607-0.931 13.037 0.024 14.09-0.873 1.054-0.897 1.043-6.765 1.043-6.765-2.737-0.912-16.381-1.856-21.371-1.825-4.99 0.032-17.671-0.426-20.59 1.696-0.467 1.416 3.961 19.169 5.186 21.034s13.208 2.787 13.814-0.856" fill="#613d3c"/></g><g id="g498" transform="translate(426.33 530.18)"><path id="path500" d="m0 0s0.263-62.483-3.925-76.367c-4.189-13.885-15.379-48.968-16.326-51.96 0 0 0.001-3.328-0.308-4.973s-3.189-7.845-4.932-9.124-14.279-2.166-16.9 3.148c0 0 5.439 22.245 7.661 31.26 2.223 9.014 7.903 64.472 6.943 84.778 0 0-16.534 8.939-18.518 14.459-1.799 5.004-2.924 10.998-2.872 11.827 0.051 0.823 49.177-3.054 49.177-3.054" fill="#006c9a"/></g><g id="g502" transform="translate(373.09 528.67)"><path id="path504" d="m0 0s5.789 31.491-0.509 52.874c-6.297 21.384-18.961 46.149-13.148 56.084 0 0 4.775 1.275 10.795 0 6.021-1.276 17.024-0.783 17.024-0.783s10.796-0.7 13.494-1.323c2.699-0.623 20.346-14.74 31.141-16.609 10.796-1.868 25.661 30.851 27.945 34.965 2.283 4.113 14.181 1.832 14.596-1.991s-11.192-38.579-24.064-45.222c-12.871-6.644-33.839-1.869-33.839-1.869s16.148-42.702 12.203-79.448c0 0-29.436-7.228-55.638 3.322" fill="#dc5164"/></g><g id="g506" transform="translate(391.37 636.7)"><path id="path508" d="m0 0s-1.661 5.813-2.491 6.228c-0.831 0.415-19.1-2.076-24.498 0 0 0-0.623-3.114 0-5.605 0 0 6.436-5.605 26.989-0.623" fill="#5f2d34"/></g><g id="g510" transform="translate(423.09 679.23)"><path id="path512" d="m0 0c-4.632-0.223-6.756 2.732-7.772 1.9-1.015-0.832-1.16-4.177 2.474-8.922 3.635-4.746 6.458-7.998 6.458-7.998s-3.961-17.627-9.775-24.514c-5.814-6.888 8.918-4.15 10.785-5.082 0 0 7.184 16.822 8.164 26.758 0 0 8.157 15.474 8.961 18.498-6.446-0.691-12.808-0.328-19.295-0.64" fill="#f9f7e8"/></g><g id="g514" transform="translate(432.14 648.26)"><path id="path516" d="m0 0c-0.415 3.823-12.313 6.104-14.596 1.99-2.284-4.113-17.149-36.832-27.945-34.964-7.519 1.301-18.356 8.541-25.157 13.028 1.687-3.509 3.396-6.995 5.401-10.363 3.371-5.66 6.13-11.506 8.492-17.52 6.746-1.018 20.381-2.225 29.741 2.606 12.872 6.644 24.479 41.4 24.064 45.223" fill="#dc5164"/></g><g id="g518" transform="translate(395.56 701.97)"><path id="path520" d="m0 0s0.209-9.616 4.481-23.273c4.39-14.03 6.137-16.606 6.741-19.627 2.863-14.317-23.86-13.89-31.05-8.314s-16.47 37.178-17.509 43.583c-1.039 6.404 27.127 28.441 37.337 7.631" fill="#f9f7e8"/></g><g id="g522" transform="translate(371.15 667.52)"><path id="path524" d="m0 0s7.257 4.646 3.703 17.859c-1.254 4.661-0.599 8.604-0.599 8.604s-1.674-2.901 7.203 5.38c2.896 2.703 14.217-1.191 18.491 2.054 4.274 3.244 11.949 17.097-1.889 21.593-14.29 4.644-29.955 8.674-23.696 4.416 24.119-16.408-14.941-12.227-23.326-23.223 0 0 1.337 4.476-0.87 4.497-4.345 0.043-0.242-4.578-0.242-4.578s-2.848 3.77-4.561 0.425 3.629-3.386 3.629-3.386-11.741-15.172 3.449-30.693c0 0 12.862-11.735 13.307-14.477 0.445-2.743 3.938 1.405 3.938 1.405s-2.494-6.535 3.423-3.379c9.801 5.227-1.96 13.503-1.96 13.503" fill="#613d3c"/></g><g id="g526" transform="translate(375.25 675.14)"><path id="path528" d="m0 0s-4.33 3.674-8.802 0.82c-4.471-2.854 1.464-14.388 10.767-7.311 0 0 1.802 1.78-1.965 6.491" fill="#f9f7e8"/></g><g id="g530"><g id="g538"><g id="g540" opacity="0.34" clip-path="url(#clipPath534)"><g id="g542" transform="translate(376.8 672.84)"><path id="path544" d="m0 0c-0.037-0.033-0.065-0.073-0.103-0.104-1.365-1.109-3.199-1.553-4.748-0.439-1.316 0.946-1.578 2.38-1.441 3.865 0.027 0.299 0.103 0.575 0.199 0.84-1.302 0.12-2.769-0.099-4.257-1.049-4.471-2.854 1.463-14.388 10.767-7.311 0 0 1.2 1.191-0.417 4.198" fill="#f9f7e8"/></g></g></g></g><g id="g546"><g id="g554"><g id="g556" opacity="0.58" clip-path="url(#clipPath550)"><g id="g558" transform="translate(376.19 669.85)"><path id="path560" d="m0 0s-6.447-1.106-9.064 2.812c0 0 0.953-6.955 9.064-2.812" fill="#f9f7e8"/></g></g></g></g><g id="g562" transform="translate(391.04 696.88)"><path id="path564" d="m0 0s1.307-1.847-0.387-4.155c-1.694-2.307-5.644 0.28-7.764-3.96s-3.103 3.74 4.968 5.7c0 0 0.609 3.887 3.183 2.415" fill="#613d3c"/></g><g id="g566" transform="translate(394.87 685.34)"><path id="path568" d="m0 0s-0.081-0.081-0.223-0.203c0.003 0.005 0.011 0.024 0.011 0.024s-0.012-0.018-0.028-0.039c-0.358-0.304-1.119-0.864-2.268-1.247-1.547-0.516-3.066-0.107-3.066-0.107s1.574-0.804 3.113-0.369c0.123 0.034 0.235 0.085 0.35 0.132-0.116-0.068-0.229-0.136-0.355-0.201-1.45-0.747-3.013-0.575-3.013-0.575s1.678-0.554 3.132 0.111c1.057 0.482 1.7 1.469 1.975 1.976 0.243 0.287 0.372 0.498 0.372 0.498" fill="#51718e"/></g><g id="g570" transform="translate(394.26 668.39)"><path id="path572" d="m0 0s0.367-0.269 0.918-0.672c0.27-0.19 0.579-0.406 0.914-0.599 0.163-0.104 0.342-0.186 0.517-0.268 0.17-0.102 0.357-0.133 0.534-0.204 0.178-0.022 0.358-0.108 0.534-0.087 0.088 0.001 0.175-0.006 0.264-0.016l0.257 0.039c0.175 0.007 0.335 0.08 0.498 0.127 0.167 0.038 0.309 0.13 0.452 0.197 0.137 0.076 0.286 0.123 0.391 0.207 0.115 0.073 0.216 0.138 0.299 0.19 0.173 0.104 0.283 0.162 0.283 0.162s-0.042-0.108-0.135-0.294c-0.098-0.182-0.219-0.466-0.488-0.721-0.127-0.133-0.254-0.297-0.452-0.401-0.187-0.115-0.376-0.267-0.625-0.319-0.12-0.037-0.243-0.074-0.367-0.111-0.128-0.016-0.26-0.023-0.393-0.026-0.27-0.029-0.526 0.055-0.791 0.091-0.238 0.1-0.496 0.174-0.703 0.308-0.224 0.113-0.411 0.267-0.588 0.413-0.187 0.136-0.322 0.312-0.467 0.458-0.132 0.158-0.253 0.309-0.347 0.46-0.397 0.593-0.505 1.066-0.505 1.066" fill="#bfacae"/></g><g id="g574" transform="translate(373.34 686.69)"><path id="path576" d="m0 0s5.388-6.52 7.903-12.753c0.461-1.143-0.787-2.234-1.853-1.614-2.648 1.54-7.228 4.12-6.63 6.291 0.266 0.966 0.58 8.076 0.58 8.076" fill="#613d3c"/></g><g id="g578" transform="translate(399.03 681.03)"><path id="path580" d="m0 0c1.742 2.831 9.963-2.534 1.682-6.477" fill="#f9f7e8"/></g><g id="g582"><g id="g590"><g id="g592" opacity=".28999" clip-path="url(#clipPath586)"><g id="g594" transform="translate(398.52 632.49)"><path id="path596" d="m0 0s-0.35-0.167-0.939-0.488c-0.592-0.317-1.41-0.82-2.339-1.477-1.849-1.301-4.137-3.4-5.327-6.115-0.282-0.677-0.542-1.368-0.679-2.08-0.161-0.706-0.245-1.418-0.272-2.112-0.017-0.694 0.003-1.371 0.081-2.011 0.066-0.639 0.181-1.244 0.299-1.798 0.255-1.106 0.529-2.027 0.766-2.655 0.233-0.63 0.355-1 0.355-1s-0.201 0.329-0.533 0.921c-0.174 0.293-0.343 0.667-0.544 1.098-0.217 0.424-0.403 0.927-0.597 1.482-0.184 0.556-0.37 1.172-0.484 1.841-0.133 0.666-0.217 1.384-0.223 2.131 0.001 0.746 0.032 1.529 0.207 2.301 0.14 0.779 0.408 1.542 0.71 2.286 0.348 0.724 0.73 1.434 1.199 2.066 0.453 0.643 0.972 1.218 1.505 1.735 1.063 1.04 2.211 1.819 3.231 2.393 2.058 1.139 3.584 1.482 3.584 1.482" fill="#5f2d34"/></g></g></g></g><g id="g598" transform="translate(481.28 680.37)"><path id="path600" d="m0 0c-0.187 2.854-0.629 6.671-1.598 11.52-0.818 4.089-17.486 1.801-19.556-1.369-0.052 0.079 1.626-9.667 0.223-12.728-0.883-1.926 8.576-2.956 15.067-3.432 0.663 2.821 2.617 5.283 5.864 6.009" fill="#f9f7e8"/></g><g id="g602" transform="translate(428.53 687.67)"><path id="path604" d="m0 0c0-2.669-1.172-4.833-2.618-4.833s-2.618 2.164-2.618 4.833 1.172 4.833 2.618 4.833 2.618-2.164 2.618-4.833" fill="#f9f7e8"/></g><g id="g606" transform="translate(432.96 688.27)"><path id="path608" d="m0 0c0-2.669-1.172-4.833-2.618-4.833s-2.618 2.164-2.618 4.833 1.172 4.833 2.618 4.833 2.618-2.164 2.618-4.833" fill="#f9f7e8"/></g><g id="g610" transform="translate(437.79 688.87)"><path id="path612" d="m0 0c0-2.669-1.172-4.833-2.618-4.833s-2.618 2.164-2.618 4.833 1.172 4.833 2.618 4.833 2.618-2.164 2.618-4.833" fill="#f9f7e8"/></g><g id="g614" transform="translate(442.83 688.87)"><path id="path616" d="m0 0c0-2.669-1.172-4.833-2.618-4.833s-2.618 2.164-2.618 4.833 1.172 4.833 2.618 4.833 2.618-2.164 2.618-4.833" fill="#f9f7e8"/></g><g id="g618" transform="translate(465.38 690.69)"><path id="path620" d="m0 0c0-2.669-1.172-4.833-2.618-4.833s-2.618 2.164-2.618 4.833 1.172 4.833 2.618 4.833 2.618-2.164 2.618-4.833" fill="#f9f7e8"/></g><g id="g622" transform="translate(469.81 691.29)"><path id="path624" d="m0 0c0-2.669-1.172-4.833-2.618-4.833s-2.618 2.164-2.618 4.833 1.172 4.833 2.618 4.833 2.618-2.164 2.618-4.833" fill="#f9f7e8"/></g><g id="g626" transform="translate(474.65 691.89)"><path id="path628" d="m0 0c0-2.669-1.172-4.833-2.618-4.833s-2.618 2.164-2.618 4.833 1.172 4.833 2.618 4.833 2.618-2.164 2.618-4.833" fill="#f9f7e8"/></g><g id="g630" transform="translate(479.68 691.89)"><path id="path632" d="m0 0c0-2.669-1.172-4.833-2.618-4.833s-2.618 2.164-2.618 4.833 1.172 4.833 2.618 4.833 2.618-2.164 2.618-4.833" fill="#f9f7e8"/></g><g id="g634"><g id="g642"><g id="g644" opacity=".28999" clip-path="url(#clipPath638)"><g id="g646" transform="translate(376.52 591.19)"><path id="path648" d="m0 0c-0.057 0.143 0.095-0.081 0.239-0.457 0.159-0.377 0.394-0.93 0.664-1.644 0.539-1.429 1.318-3.469 2.13-5.958 0.809-2.49 1.75-5.4 2.6-8.563 0.851-3.163 1.682-6.559 2.386-9.987 0.662-3.435 1.189-6.9 1.486-10.174 0.302-3.274 0.282-6.363 0.002-8.987-0.27-2.628-0.963-4.763-1.679-6.124-0.356-0.684-0.719-1.171-0.979-1.488-0.262-0.316-0.419-0.467-0.419-0.467s0.143 0.165 0.375 0.5c0.235 0.334 0.537 0.85 0.847 1.539 0.634 1.378 1.117 3.507 1.294 6.091 0.195 2.587 0.027 5.622-0.304 8.852-0.335 3.233-0.906 6.661-1.603 10.064-0.654 3.412-1.438 6.801-2.244 9.961-0.809 3.159-1.57 6.11-2.297 8.618-0.724 2.509-1.316 4.606-1.778 6.059-0.229 0.728-0.409 1.299-0.532 1.688-0.119 0.386-0.23 0.624-0.188 0.477" fill="#5f2d34"/></g></g></g></g><g id="g650" transform="translate(660.92 560)"><path id="path652" d="m0 0c-2.261 0-4.376-0.63-6.177-1.723-0.177 6.433-5.443 11.593-11.918 11.593-2.619 0-5.04-0.846-7.007-2.277-0.319 11.305-9.577 20.373-20.959 20.373-9.736 0-17.92-6.635-20.284-15.628-2.951 1.823-6.426 2.879-10.149 2.879-10.676 0-19.33-8.654-19.33-19.33 0-8.497 5.487-15.709 13.108-18.3 1.249-0.653 2.665-1.029 4.165-1.029h75.444c0.991-0.267 2.032-0.411 3.107-0.411 6.587 0 11.927 5.34 11.927 11.926 0 6.587-5.34 11.927-11.927 11.927" fill="#fcfcf7"/></g><g id="g654" transform="translate(263.58 487.17)"><path id="path656" d="m0 0c-2.287 0-4.425-0.637-6.247-1.742-0.179 6.505-5.505 11.724-12.053 11.724-2.648 0-5.096-0.856-7.085-2.304-0.323 11.433-9.685 20.603-21.196 20.603-9.846 0-18.122-6.709-20.513-15.804-2.983 1.844-6.498 2.911-10.263 2.911-10.796 0-19.548-8.751-19.548-19.547 0-8.594 5.548-15.887 13.256-18.506 1.263-0.662 2.694-1.041 4.212-1.041h76.295c1.002-0.27 2.055-0.416 3.142-0.416 6.661 0 12.061 5.4 12.061 12.061s-5.4 12.061-12.061 12.061" fill="#fcfcf7"/></g></g></g></g></svg>
