<?xml version="1.0" encoding="UTF-8" standalone="no"?>
<!-- Created with Inkscape (http://www.inkscape.org/) -->
<svg id="svg2" xmlns:rdf="http://www.w3.org/1999/02/22-rdf-syntax-ns#" xmlns="http://www.w3.org/2000/svg" xml:space="preserve" height="1e3" viewBox="0 0 1000 1000" width="1e3" version="1.1" xmlns:cc="http://creativecommons.org/ns#" xmlns:dc="http://purl.org/dc/elements/1.1/"><metadata id="metadata8"><rdf:RDF><cc:Work rdf:about=""><dc:format>image/svg+xml</dc:format><dc:type rdf:resource="http://purl.org/dc/dcmitype/StillImage"/><dc:title/></cc:Work></rdf:RDF></metadata><defs id="defs6"><clipPath id="clipPath162" clipPathUnits="userSpaceOnUse"><path id="path164" d="m0 800h800v-800h-800v800z"/></clipPath></defs><g id="g10" transform="matrix(1.25 0 0 -1.25 0 1e3)"><g id="g150" transform="translate(648.12 662.65)"><path id="path152" d="m0 0-6.165-70.797 67.068-23.495-28.818-64.958 55.805-43.999-48.349-52.082 38.495-59.735-62.64-33.561 17.013-68.998-70.143-11.403-6.312-70.784-70.046 11.991-28.953-64.899-62.357 34.084-48.457-51.981-47.911 52.485-62.71-33.431-28.274 65.198-70.167-11.258-5.572 70.846-70.02 12.135 17.733 68.816-62.286 34.214 39.118 59.329-47.803 52.585 56.262 43.413-28.138 65.256 67.31 22.793-5.425 70.857 71.064-0.297 17.876 68.779 67.117-23.356 39.24 59.248 55.897-43.883 56.352 43.297 38.619-59.655l67.35 22.642 17.157-68.962 71.063-0.445z" fill="#009ee2"/></g><g id="g154" transform="translate(504.99 609.78)"><path id="path156" d="m0 0 11.269-10.52 60.008 4.374 112.15-78.466-8.218-21.768 55.805-43.999-48.349-52.082 38.495-59.735-62.64-33.561 17.014-68.998-70.144-11.403-6.312-70.784-70.045 11.991-28.954-64.899-62.357 34.084-37.59-39.429-97.284 114.53 24.282 18.401 78.45 192.86l94.42 179.41z" fill="#006a94"/></g><g id="g158"><g id="g160" clip-path="url(#clipPath162)"><g id="g166" transform="translate(461.18 486.11)"><path id="path168" d="m0 0c21.618 30.445 37.003 71.268 42 103.28h54.389c-10.148-31.572-37.979-96.195-96.389-103.28m-12.073-161.66v-66.777h-99.069v66.777h99.069m-211.61 264.95h54.36c4.998-32.005 20.393-72.828 42.02-103.28-58.448 7.094-86.26 71.727-96.38 103.28m267.23 14.246c0.115 2.087 0.259 4.194 0.259 6.147h-214.92c0-1.953 0.134-4.06 0.249-6.147h-71.516s27.017-132.6 125.59-132.6c0.498 0 1.034 0.048 1.561 0.057 5.629-6.232 11.546-11.766 17.749-16.16-4.365-0.087-7.879-3.581-7.879-7.937 0-4.414 3.59-7.994 7.985-7.994h10.54l-24.097-101.4h-17.903v-96.006h135.99v96.006h-17.942l-24.107 101.4h10.57c4.385 0 7.975 3.58 7.975 7.994 0 4.394-3.581 7.984-7.975 7.984h-5.448c6.176 4.385 12.063 9.9 17.693 16.113 0.507-0.009 1.043-0.057 1.541-0.057 98.582 0 125.63 132.6 125.63 132.6h-71.536" fill="#ffc400"/></g><g id="g170" transform="translate(237.5 589.39)"><path id="path172" d="m0 0h54.36c4.998-32.005 20.392-72.828 42.02-103.28-58.449 7.092-86.26 71.725-96.38 103.28m94.848-251.78v-96.006h64.367v16.065h-46.675v66.777h46.675v285.34h-106.64c0-1.953 0.134-4.059 0.249-6.146h-71.517s27.018-132.6 125.59-132.6c0.498 0 1.034 0.048 1.56 0.058 5.63-6.233 11.546-11.766 17.75-16.161-4.366-0.086-7.879-3.58-7.879-7.936 0-4.414 3.59-7.995 7.984-7.995h10.541l-24.097-101.4h-17.903z" fill="#ffe400"/></g><g id="g174" transform="translate(237.5 589.39)"><path id="path176" d="m0 0h54.36c4.998-32.005 20.392-72.828 42.02-103.28-58.449 7.092-86.26 71.725-96.38 103.28m112.54-331.72v66.777h3.691c-0.13 0.605-0.196 1.269-0.034 1.97 6.313 27.36 11.042 48.642 16.92 75.092 3.818 17.183 5.94 29.063 8.698 40.518-6.152-0.636-17.052-2.952-17.608 4.455-0.636 8.486 8.489 7.171 8.91 7.213-7.213 6.576-24.608 26.093-44.411 65.977-8.334 16.787-20.774 61.066-22.995 90.113h-13.141c0-1.953 0.134-4.059 0.249-6.146h-71.517s27.018-132.6 125.59-132.6c0.498 0 1.034 0.048 1.56 0.058 5.63-6.233 11.546-11.766 17.75-16.161-4.366-0.086-7.879-3.58-7.879-7.936 0-4.414 3.59-7.995 7.984-7.995h10.541l-24.097-101.4h-17.903v-96.006h64.367v16.065h-46.675z" fill="#ffcf00"/></g><g id="g178" transform="translate(363.04 324.44)"><path id="path180" d="m0 0h4.866c1.537 9.166 1.621 18.476 2.579 27.735 0.44 4.263 1.191 8.465 2.034 12.649-3.655-13.332-7.06-26.726-9.479-40.384" fill="#ffe400"/></g><g id="g182" transform="translate(341.69 609.78)"><path id="path184" d="m0 0c-1.004-28.418 1.457-51.355 12.846-83.188 17.354-48.506 35.174-66.326 35.174-77.994 0-29.59-9.992-106.46-12.137-124.16h19.143v285.34h-55.026z" fill="#ffcf00"/></g><path id="path186" d="m307.84 242.61h179.4v-23.494h-179.4v23.494z" fill="#001a36"/><path id="path188" d="m307.84 242.61h88.723v-23.494h-88.723v23.494z" fill="#324b60"/><g id="g190" transform="translate(290.32 603.63)"><path id="path192" d="m0 0h-71.516s8.048-40.779 33.483-78.596c25.434-37.816 55.173-47.679 60.071-49.028 23.092-6.358 33.596-4.916 33.596-4.916s-30.082 0.733-59.699 22.988c-22.325 16.775-39.156 44.51-49.53 70.279-8.893 22.088-11.881 35.306-11.881 35.306l65.761-0.169-0.285 4.134z" fill="#ffe400"/></g><g id="g194" transform="translate(504.74 603.63)"><path id="path196" d="m0 0h71.536s-9.906-48.811-40.025-87.297c-26.448-33.794-51.203-40.494-66.932-43.841-15.729-3.346-20.212-1.402-20.212-1.402s12.349 0.393 24.395 3.912c14.892 4.351 40.159 16.733 62.916 49.195 26.001 37.09 30.789 73.626 30.789 73.626l-63.412 0.169 0.951 5.64z" fill="#ffe400"/></g><g id="g198" transform="translate(448.78 324.26)"><path id="path200" d="m0 0-104.06 2.313 5.501-67.925 0.139-0.695l98.42 66.307z" fill="#ffe400"/></g><path id="path202" d="m449.11 324.44h-99.07v-66.777h99.07v66.777z" fill="#f19000"/><path id="path204" d="m447.63 319.84h-93.477v-60.527h93.477v60.527z" fill="#f7b033"/><g id="g206" transform="translate(289.03 603.95)"><path id="path208" d="m0 0s10.631 0.839 16.506 7.554c5.908 6.752 7.414 15.247 7.414 15.247s1.818-10.072 8.952-15.527c6.361-4.864 15.527-6.854 15.527-6.854s-9.932-1.539-15.527-7.134c-5.595-5.596-8.533-15.947-8.533-15.947s-3.776 22.381-24.339 22.661" fill="#fff"/></g></g></g></g></svg>
