<?xml version="1.0" encoding="UTF-8" standalone="no"?>
<!-- Created with Inkscape (http://www.inkscape.org/) -->

<svg
   xmlns:dc="http://purl.org/dc/elements/1.1/"
   xmlns:cc="http://creativecommons.org/ns#"
   xmlns:rdf="http://www.w3.org/1999/02/22-rdf-syntax-ns#"
   xmlns:svg="http://www.w3.org/2000/svg"
   xmlns="http://www.w3.org/2000/svg"
   xmlns:sodipodi="http://sodipodi.sourceforge.net/DTD/sodipodi-0.dtd"
   xmlns:inkscape="http://www.inkscape.org/namespaces/inkscape"
   id="svg2"
   version="1.1"
   inkscape:version="0.91 r13725"
   xml:space="preserve"
   width="55mm"
   height="66mm"
   viewBox="0 0 194.88189 233.8582"
   sodipodi:docname="child01.svg"><metadata
     id="metadata8"><rdf:RDF><cc:Work
         rdf:about=""><dc:format>image/svg+xml</dc:format><dc:type
           rdf:resource="http://purl.org/dc/dcmitype/StillImage" /><dc:title /></cc:Work></rdf:RDF></metadata><defs
     id="defs6"><clipPath
       clipPathUnits="userSpaceOnUse"
       id="clipPath18"><path
         d="M 0,800 800,800 800,0 0,0 0,800 Z"
         id="path20"
         inkscape:connector-curvature="0" /></clipPath><clipPath
       clipPathUnits="userSpaceOnUse"
       id="clipPath150"><path
         d="M 0,800 800,800 800,0 0,0 0,800 Z"
         id="path152"
         inkscape:connector-curvature="0" /></clipPath><clipPath
       clipPathUnits="userSpaceOnUse"
       id="clipPath158"><path
         d="m 99.9262,491.759 217.1238,0 0,-76.981 -217.1238,0 0,76.981 z"
         id="path160"
         inkscape:connector-curvature="0" /></clipPath><clipPath
       clipPathUnits="userSpaceOnUse"
       id="clipPath218"><path
         d="m 143.787,627.052 134.484,0 0,-134.484 -134.484,0 0,134.484 z"
         id="path220"
         inkscape:connector-curvature="0" /></clipPath><clipPath
       clipPathUnits="userSpaceOnUse"
       id="clipPath234"><path
         d="m 155.203,630.608 108.287,0 0,-120.99 -108.287,0 0,120.99 z"
         id="path236"
         inkscape:connector-curvature="0" /></clipPath><clipPath
       clipPathUnits="userSpaceOnUse"
       id="clipPath294"><path
         d="m 181.173,730.824 74.375,0 0,-61.566 -74.375,0 0,61.566 z"
         id="path296"
         inkscape:connector-curvature="0" /></clipPath><clipPath
       clipPathUnits="userSpaceOnUse"
       id="clipPath338"><path
         d="m 153.219,681.625 39.047,0 0,-31.045 -39.047,0 0,31.045 z"
         id="path340"
         inkscape:connector-curvature="0" /></clipPath><clipPath
       clipPathUnits="userSpaceOnUse"
       id="clipPath354"><path
         d="m 232.387,670.981 39.046,0 0,-31.046 -39.046,0 0,31.046 z"
         id="path356"
         inkscape:connector-curvature="0" /></clipPath><clipPath
       clipPathUnits="userSpaceOnUse"
       id="clipPath382"><path
         d="m 159.098,661.484 c -1.188,-8.833 4.809,-18.444 13.642,-19.632 l 0,0 c 8.832,-1.188 16.755,3.522 17.942,12.354 l 0,0 c 1.188,8.832 -4.81,18.444 -13.642,19.631 l 0,0 c -0.904,0.122 -1.797,0.182 -2.676,0.182 l 0,0 c -7.706,-10e-4 -14.2,-4.607 -15.266,-12.535"
         id="path384"
         inkscape:connector-curvature="0" /></clipPath><clipPath
       clipPathUnits="userSpaceOnUse"
       id="clipPath406"><path
         d="M 0,800 800,800 800,0 0,0 0,800 Z"
         id="path408"
         inkscape:connector-curvature="0" /></clipPath><clipPath
       clipPathUnits="userSpaceOnUse"
       id="clipPath418"><path
         d="m 231.82,648.675 c -1.187,-8.833 5.21,-15.467 14.043,-16.654 l 0,0 c 8.832,-1.189 17.156,6.497 18.343,15.33 l 0,0 c 1.188,8.833 -5.21,15.467 -14.043,16.655 l 0,0 c -0.608,0.081 -1.216,0.121 -1.818,0.121 l 0,0 c -8.128,0.001 -15.419,-7.229 -16.525,-15.452"
         id="path420"
         inkscape:connector-curvature="0" /></clipPath><clipPath
       clipPathUnits="userSpaceOnUse"
       id="clipPath442"><path
         d="M 0,800 800,800 800,0 0,0 0,800 Z"
         id="path444"
         inkscape:connector-curvature="0" /></clipPath><clipPath
       clipPathUnits="userSpaceOnUse"
       id="clipPath450"><path
         d="m 175.572,654.261 10,0 0,-10 -10,0 0,10 z"
         id="path452"
         inkscape:connector-curvature="0" /></clipPath><clipPath
       clipPathUnits="userSpaceOnUse"
       id="clipPath466"><path
         d="m 243.911,644.697 10,0 0,-10 -10,0 0,10 z"
         id="path468"
         inkscape:connector-curvature="0" /></clipPath><clipPath
       clipPathUnits="userSpaceOnUse"
       id="clipPath514"><path
         d="m 94.0475,123.455 217.1235,0 0,-76.9812 -217.1235,0 0,76.9812 z"
         id="path516"
         inkscape:connector-curvature="0" /></clipPath><clipPath
       clipPathUnits="userSpaceOnUse"
       id="clipPath614"><path
         d="m 135.831,253.759 134.483,0 0,-134.483 -134.483,0 0,134.483 z"
         id="path616"
         inkscape:connector-curvature="0" /></clipPath><clipPath
       clipPathUnits="userSpaceOnUse"
       id="clipPath630"><path
         d="m 147.247,257.316 108.287,0 0,-120.99 -108.287,0 0,120.99 z"
         id="path632"
         inkscape:connector-curvature="0" /></clipPath><clipPath
       clipPathUnits="userSpaceOnUse"
       id="clipPath678"><path
         d="m 154.411,261.416 93.862,0 0,-76.691 -93.862,0 0,76.691 z"
         id="path680"
         inkscape:connector-curvature="0" /></clipPath><clipPath
       clipPathUnits="userSpaceOnUse"
       id="clipPath734"><path
         d="m 167.119,354.04 74.461,0 0,-61 -74.461,0 0,61 z"
         id="path736"
         inkscape:connector-curvature="0" /></clipPath><clipPath
       clipPathUnits="userSpaceOnUse"
       id="clipPath758"><path
         d="m 145.223,297.892 39.062,0 0,-27.185 -39.062,0 0,27.185 z"
         id="path760"
         inkscape:connector-curvature="0" /></clipPath><clipPath
       clipPathUnits="userSpaceOnUse"
       id="clipPath774"><path
         d="m 225.103,297.892 39.062,0 0,-27.185 -39.062,0 0,27.185 z"
         id="path776"
         inkscape:connector-curvature="0" /></clipPath><clipPath
       clipPathUnits="userSpaceOnUse"
       id="clipPath794"><path
         d="m 151.322,278.943 c 0,-8.912 7.225,-17.639 16.136,-17.639 l 0,0 c 8.912,0 16.137,5.723 16.137,14.635 l 0,0 c 0,8.912 -7.225,14.637 -16.137,14.637 l 0,0 c -8.911,0 -16.136,-2.721 -16.136,-11.633"
         id="path796"
         inkscape:connector-curvature="0" /></clipPath><clipPath
       clipPathUnits="userSpaceOnUse"
       id="clipPath818"><path
         d="M 0,800 800,800 800,0 0,0 0,800 Z"
         id="path820"
         inkscape:connector-curvature="0" /></clipPath><clipPath
       clipPathUnits="userSpaceOnUse"
       id="clipPath830"><path
         d="m 225.104,275.939 c 0,-8.912 7.224,-14.635 16.136,-14.635 l 0,0 c 8.911,0 16.137,8.727 16.137,17.639 l 0,0 c 0,8.912 -7.226,11.633 -16.137,11.633 l 0,0 c -8.912,0 -16.136,-5.725 -16.136,-14.637"
         id="path832"
         inkscape:connector-curvature="0" /></clipPath><clipPath
       clipPathUnits="userSpaceOnUse"
       id="clipPath854"><path
         d="M 0,800 800,800 800,0 0,0 0,800 Z"
         id="path856"
         inkscape:connector-curvature="0" /></clipPath><clipPath
       clipPathUnits="userSpaceOnUse"
       id="clipPath870"><path
         d="m 169.287,276.708 10,0 0,-10 -10,0 0,10 z"
         id="path872"
         inkscape:connector-curvature="0" /></clipPath><clipPath
       clipPathUnits="userSpaceOnUse"
       id="clipPath886"><path
         d="m 239.627,276.708 10,0 0,-10 -10,0 0,10 z"
         id="path888"
         inkscape:connector-curvature="0" /></clipPath><clipPath
       clipPathUnits="userSpaceOnUse"
       id="clipPath946"><path
         d="m 474.505,123.455 217.124,0 0,-76.9812 -217.124,0 0,76.9812 z"
         id="path948"
         inkscape:connector-curvature="0" /></clipPath><clipPath
       clipPathUnits="userSpaceOnUse"
       id="clipPath994"><path
         d="m 523.035,251.485 131.644,0 0,-129.807 -131.644,0 0,129.807 z"
         id="path996"
         inkscape:connector-curvature="0" /></clipPath><clipPath
       clipPathUnits="userSpaceOnUse"
       id="clipPath1010"><path
         d="m 531.71,254.543 108.764,0 0,-120.6 -108.764,0 0,120.6 z"
         id="path1012"
         inkscape:connector-curvature="0" /></clipPath><clipPath
       clipPathUnits="userSpaceOnUse"
       id="clipPath1030"><path
         d="m 540.316,260.852 93.861,0 0,-76.691 -93.861,0 0,76.691 z"
         id="path1032"
         inkscape:connector-curvature="0" /></clipPath><clipPath
       clipPathUnits="userSpaceOnUse"
       id="clipPath1134"><path
         d="m 567.222,355.234 74.339,0 0,-61.752 -74.339,0 0,61.752 z"
         id="path1136"
         inkscape:connector-curvature="0" /></clipPath><clipPath
       clipPathUnits="userSpaceOnUse"
       id="clipPath1158"><path
         d="m 538.508,305.283 39.024,0 0,-28.389 -39.024,0 0,28.389 z"
         id="path1160"
         inkscape:connector-curvature="0" /></clipPath><clipPath
       clipPathUnits="userSpaceOnUse"
       id="clipPath1174"><path
         d="m 617.413,292.839 39.024,0 0,-28.389 -39.024,0 0,28.389 z"
         id="path1176"
         inkscape:connector-curvature="0" /></clipPath><clipPath
       clipPathUnits="userSpaceOnUse"
       id="clipPath1190"><path
         d="m 544.365,288.306 c -1.388,-8.804 5.324,-12.619 14.127,-14.007 l 0,0 c 8.803,-1.388 15.896,-2.792 17.284,6.011 l 0,0 c 1.389,8.804 -4.856,15.584 -13.659,16.973 l 0,0 c -1.804,0.284 -3.554,0.445 -5.21,0.445 l 0,0 c -6.431,-0.001 -11.438,-2.422 -12.542,-9.422"
         id="path1192"
         inkscape:connector-curvature="0" /></clipPath><clipPath
       clipPathUnits="userSpaceOnUse"
       id="clipPath1214"><path
         d="m 616.778,273.845 c -1.389,-8.804 5.792,-9.652 14.594,-11.04 l 0,0 c 8.803,-1.388 16.364,0.176 17.753,8.979 l 0,0 c 1.388,8.804 -5.324,12.616 -14.127,14.005 l 0,0 c -1.05,0.165 -2.09,0.247 -3.108,0.247 l 0,0 c -7.517,0 -13.89,-4.438 -15.112,-12.191"
         id="path1216"
         inkscape:connector-curvature="0" /></clipPath><clipPath
       clipPathUnits="userSpaceOnUse"
       id="clipPath1238"><path
         d="M 0,800 800,800 800,0 0,0 0,800 Z"
         id="path1240"
         inkscape:connector-curvature="0" /></clipPath><clipPath
       clipPathUnits="userSpaceOnUse"
       id="clipPath1270"><path
         d="m 563.578,284.299 10,0 0,-10 -10,0 0,10 z"
         id="path1272"
         inkscape:connector-curvature="0" /></clipPath><clipPath
       clipPathUnits="userSpaceOnUse"
       id="clipPath1286"><path
         d="m 630.917,273.292 10,0 0,-10 -10,0 0,10 z"
         id="path1288"
         inkscape:connector-curvature="0" /></clipPath><clipPath
       clipPathUnits="userSpaceOnUse"
       id="clipPath1362"><path
         d="m 540.509,284.21 11.988,0 0,-11.989 -11.988,0 0,11.989 z"
         id="path1364"
         inkscape:connector-curvature="0" /></clipPath><clipPath
       clipPathUnits="userSpaceOnUse"
       id="clipPath1394"><path
         d="m 483.511,491.759 217.123,0 0,-76.981 -217.123,0 0,76.981 z"
         id="path1396"
         inkscape:connector-curvature="0" /></clipPath><clipPath
       clipPathUnits="userSpaceOnUse"
       id="clipPath1518"><path
         d="m 524.831,617.046 134.483,0 0,-134.484 -134.483,0 0,134.484 z"
         id="path1520"
         inkscape:connector-curvature="0" /></clipPath><clipPath
       clipPathUnits="userSpaceOnUse"
       id="clipPath1534"><path
         d="m 536.247,620.602 108.287,0 0,-120.99 -108.287,0 0,120.99 z"
         id="path1536"
         inkscape:connector-curvature="0" /></clipPath><clipPath
       clipPathUnits="userSpaceOnUse"
       id="clipPath1622"><path
         d="m 556.118,728.57 74.462,0 0,-61 -74.462,0 0,61 z"
         id="path1624"
         inkscape:connector-curvature="0" /></clipPath><clipPath
       clipPathUnits="userSpaceOnUse"
       id="clipPath1654"><path
         d="m 534.223,671.185 39.062,0 0,-27.185 -39.062,0 0,27.185 z"
         id="path1656"
         inkscape:connector-curvature="0" /></clipPath><clipPath
       clipPathUnits="userSpaceOnUse"
       id="clipPath1670"><path
         d="m 614.103,671.185 39.062,0 0,-27.185 -39.062,0 0,27.185 z"
         id="path1672"
         inkscape:connector-curvature="0" /></clipPath><clipPath
       clipPathUnits="userSpaceOnUse"
       id="clipPath1690"><path
         d="m 540.322,652.235 c 0,-8.911 7.225,-17.638 16.136,-17.638 l 0,0 c 8.912,0 16.137,5.722 16.137,14.635 l 0,0 c 0,8.912 -7.225,14.637 -16.137,14.637 l 0,0 c -8.911,0 -16.136,-2.722 -16.136,-11.634"
         id="path1692"
         inkscape:connector-curvature="0" /></clipPath><clipPath
       clipPathUnits="userSpaceOnUse"
       id="clipPath1714"><path
         d="M 0,800 800,800 800,0 0,0 0,800 Z"
         id="path1716"
         inkscape:connector-curvature="0" /></clipPath><clipPath
       clipPathUnits="userSpaceOnUse"
       id="clipPath1726"><path
         d="m 614.103,649.232 c 0,-8.913 7.225,-14.635 16.136,-14.635 l 0,0 c 8.912,0 16.137,8.727 16.137,17.638 l 0,0 c 0,8.912 -7.225,11.634 -16.137,11.634 l 0,0 c -8.911,0 -16.136,-5.725 -16.136,-14.637"
         id="path1728"
         inkscape:connector-curvature="0" /></clipPath><clipPath
       clipPathUnits="userSpaceOnUse"
       id="clipPath1750"><path
         d="M 0,800 800,800 800,0 0,0 0,800 Z"
         id="path1752"
         inkscape:connector-curvature="0" /></clipPath><clipPath
       clipPathUnits="userSpaceOnUse"
       id="clipPath1758"><path
         d="m 561.578,655.307 10,0 0,-10 -10,0 0,10 z"
         id="path1760"
         inkscape:connector-curvature="0" /></clipPath><clipPath
       clipPathUnits="userSpaceOnUse"
       id="clipPath1774"><path
         d="m 629.917,655.307 10,0 0,-10 -10,0 0,10 z"
         id="path1776"
         inkscape:connector-curvature="0" /></clipPath></defs><sodipodi:namedview
     pagecolor="#ffffff"
     bordercolor="#666666"
     borderopacity="1"
     objecttolerance="10"
     gridtolerance="10"
     guidetolerance="10"
     inkscape:pageopacity="0"
     inkscape:pageshadow="2"
     inkscape:window-width="1920"
     inkscape:window-height="963"
     id="namedview4"
     showgrid="false"
     showguides="false"
     units="mm"
     height="89mm"
     inkscape:zoom="0.944"
     inkscape:cx="-93.040801"
     inkscape:cy="88.02453"
     inkscape:window-x="473"
     inkscape:window-y="215"
     inkscape:window-maximized="0"
     inkscape:current-layer="g10" /><g
     id="g10"
     inkscape:groupmode="layer"
     inkscape:label="52658-O77YO3"
     transform="matrix(1.25,0,0,-1.25,0,233.8582)"><g
       id="g1390"
       transform="matrix(0.39776075,0,0,0.34982131,-154.01957,-116.19971)"><g
         id="g1392" /><g
         id="g1398"><g
           clip-path="url(#clipPath1394)"
           id="g1400"><g
             transform="translate(700.6344,453.2689)"
             id="g1402"><path
               d="m 0,0 c 0,-21.258 -48.605,-38.49 -108.562,-38.49 -59.957,0 -108.562,17.232 -108.562,38.49 0,21.258 48.605,38.491 108.562,38.491 C -48.605,38.491 0,21.258 0,0"
               style="fill:#e8f3fc;fill-opacity:1;fill-rule:nonzero;stroke:none"
               id="path1404"
               inkscape:connector-curvature="0" /></g></g></g></g><g
       id="g1406"
       transform="matrix(0.39776075,0,0,0.34982131,60.103271,139.44779)"><path
         d="m 0,0 c 0,-9.401 -7.621,-17.023 -17.023,-17.023 -9.401,0 -17.023,7.622 -17.023,17.023 0,9.401 7.622,17.023 17.023,17.023 C -7.621,17.023 0,9.401 0,0"
         style="fill:#fccbb9;fill-opacity:1;fill-rule:nonzero;stroke:none"
         id="path1408"
         inkscape:connector-curvature="0" /></g><g
       id="g1410"
       transform="matrix(0.39776075,0,0,0.34982131,60.208479,140.81125)"><path
         d="m 0,0 c 3.973,-5.733 4.237,-12.509 -3.114,-17.603 -7.35,-5.093 -16.53,-4.575 -20.503,1.158 -3.973,5.733 -1.235,14.51 6.116,19.603 C -10.151,8.252 -3.973,5.733 0,0"
         style="fill:#fccbb9;fill-opacity:1;fill-rule:nonzero;stroke:none"
         id="path1412"
         inkscape:connector-curvature="0" /></g><g
       id="g1414"
       transform="matrix(0.39776075,0,0,0.34982131,56.10856,146.98185)"><path
         d="m 0,0 c 0,-7.84 -2.866,-14.196 -6.401,-14.196 -3.536,0 -6.402,6.356 -6.402,14.196 0,7.84 2.866,14.196 6.402,14.196 C -2.866,14.196 0,7.84 0,0"
         style="fill:#fccbb9;fill-opacity:1;fill-rule:nonzero;stroke:none"
         id="path1416"
         inkscape:connector-curvature="0" /></g><g
       id="g1418"
       transform="matrix(0.39776075,0,0,0.34982131,50.48116,145.10706)"><path
         d="m 0,0 c 4.466,-6.444 5.73,-13.301 2.825,-15.314 -2.906,-2.014 -8.882,1.577 -13.348,8.022 -4.466,6.444 -5.73,13.3 -2.825,15.314 C -10.442,10.036 -4.466,6.444 0,0"
         style="fill:#fccbb9;fill-opacity:1;fill-rule:nonzero;stroke:none"
         id="path1420"
         inkscape:connector-curvature="0" /></g><g
       id="g1422"
       transform="matrix(0.39776075,0,0,0.34982131,48.868002,142.53048)"><path
         d="m 0,0 c 7.7,-1.477 13.402,-5.489 12.736,-8.961 -0.666,-3.472 -7.448,-5.089 -15.148,-3.612 -7.7,1.476 -13.402,5.488 -12.736,8.96 C -14.482,-0.141 -7.7,1.477 0,0"
         style="fill:#fccbb9;fill-opacity:1;fill-rule:nonzero;stroke:none"
         id="path1424"
         inkscape:connector-curvature="0" /></g><g
       id="g1426"
       transform="matrix(0.39776075,0,0,0.34982131,57.041588,145.80712)"><path
         d="m 0,0 c -4.466,-6.444 -5.731,-13.301 -2.825,-15.314 2.906,-2.014 8.882,1.577 13.348,8.022 4.466,6.444 5.73,13.3 2.824,15.314 C 10.442,10.036 4.466,6.444 0,0"
         style="fill:#fccbb9;fill-opacity:1;fill-rule:nonzero;stroke:none"
         id="path1428"
         inkscape:connector-curvature="0" /></g><g
       id="g1430"
       transform="matrix(0.39776075,0,0,0.34982131,60.767691,140.44831)"><path
         d="m 0,0 c -7.763,-1.098 -13.655,-4.826 -13.16,-8.327 0.496,-3.5 7.19,-5.448 14.953,-4.349 7.763,1.098 13.655,4.826 13.16,8.326 C 14.458,-0.849 7.763,1.098 0,0"
         style="fill:#fccbb9;fill-opacity:1;fill-rule:nonzero;stroke:none"
         id="path1432"
         inkscape:connector-curvature="0" /></g><g
       id="g1434"
       transform="matrix(0.39776075,0,0,0.34982131,101.37246,139.44779)"><path
         d="m 0,0 c 0,-9.401 7.622,-17.023 17.023,-17.023 9.402,0 17.023,7.622 17.023,17.023 0,9.401 -7.621,17.023 -17.023,17.023 C 7.622,17.023 0,9.401 0,0"
         style="fill:#fccbb9;fill-opacity:1;fill-rule:nonzero;stroke:none"
         id="path1436"
         inkscape:connector-curvature="0" /></g><g
       id="g1438"
       transform="matrix(0.39776075,0,0,0.34982131,101.26729,140.81125)"><path
         d="m 0,0 c -3.973,-5.733 -4.237,-12.509 3.114,-17.603 7.35,-5.093 16.53,-4.575 20.503,1.158 3.973,5.733 1.235,14.51 -6.116,19.603 C 10.151,8.252 3.973,5.733 0,0"
         style="fill:#fccbb9;fill-opacity:1;fill-rule:nonzero;stroke:none"
         id="path1440"
         inkscape:connector-curvature="0" /></g><g
       id="g1442"
       transform="matrix(0.39776075,0,0,0.34982131,105.36718,146.98185)"><path
         d="m 0,0 c 0,-7.84 2.866,-14.196 6.401,-14.196 3.536,0 6.402,6.356 6.402,14.196 0,7.84 -2.866,14.196 -6.402,14.196 C 2.866,14.196 0,7.84 0,0"
         style="fill:#fccbb9;fill-opacity:1;fill-rule:nonzero;stroke:none"
         id="path1444"
         inkscape:connector-curvature="0" /></g><g
       id="g1446"
       transform="matrix(0.39776075,0,0,0.34982131,110.99458,145.10706)"><path
         d="m 0,0 c -4.466,-6.444 -5.73,-13.301 -2.825,-15.314 2.906,-2.014 8.882,1.577 13.348,8.022 4.466,6.444 5.73,13.3 2.824,15.314 C 10.442,10.036 4.466,6.444 0,0"
         style="fill:#fccbb9;fill-opacity:1;fill-rule:nonzero;stroke:none"
         id="path1448"
         inkscape:connector-curvature="0" /></g><g
       id="g1450"
       transform="matrix(0.39776075,0,0,0.34982131,112.60777,142.53048)"><path
         d="m 0,0 c -7.7,-1.477 -13.402,-5.489 -12.736,-8.961 0.666,-3.472 7.448,-5.089 15.148,-3.612 7.7,1.476 13.402,5.488 12.736,8.96 C 14.482,-0.141 7.7,1.477 0,0"
         style="fill:#fccbb9;fill-opacity:1;fill-rule:nonzero;stroke:none"
         id="path1452"
         inkscape:connector-curvature="0" /></g><g
       id="g1454"
       transform="matrix(0.39776075,0,0,0.34982131,104.43418,145.80712)"><path
         d="m 0,0 c 4.466,-6.444 5.73,-13.301 2.825,-15.314 -2.906,-2.014 -8.882,1.577 -13.348,8.022 -4.466,6.444 -5.73,13.3 -2.825,15.314 C -10.442,10.036 -4.466,6.444 0,0"
         style="fill:#fccbb9;fill-opacity:1;fill-rule:nonzero;stroke:none"
         id="path1456"
         inkscape:connector-curvature="0" /></g><g
       id="g1458"
       transform="matrix(0.39776075,0,0,0.34982131,100.70804,140.44831)"><path
         d="m 0,0 c 7.763,-1.098 13.655,-4.826 13.16,-8.327 -0.496,-3.5 -7.19,-5.448 -14.953,-4.349 -7.763,1.098 -13.655,4.826 -13.16,8.326 C -14.458,-0.849 -7.763,1.098 0,0"
         style="fill:#fccbb9;fill-opacity:1;fill-rule:nonzero;stroke:none"
         id="path1460"
         inkscape:connector-curvature="0" /></g><g
       id="g1462"
       transform="matrix(0.39776075,0,0,0.34982131,54.433629,82.050886)"><path
         d="m 0,0 c 8.227,-7.883 19.38,-2.724 26.005,6.672 6.625,9.396 7.829,21.018 3.853,30.805 -5.146,12.667 -8.635,23.556 -10.977,33.499 L -29.302,43.251 C -23.067,27.464 -13.261,12.707 0,0"
         style="fill:#f9e8a2;fill-opacity:1;fill-rule:nonzero;stroke:none"
         id="path1464"
         inkscape:connector-curvature="0" /></g><g
       id="g1466"
       transform="matrix(0.39776075,0,0,0.34982131,60.727636,134.7506)"><path
         d="m 0,0 c -11.709,-2.382 -22.316,-2.428 -33.514,0.277 -13.614,-21.051 -20.07,-44.345 -19.676,-67.281 l 51.91,24.037 C -1.446,-29.827 -0.49,-16.394 0,0"
         style="fill:#bfaeed;fill-opacity:1;fill-rule:nonzero;stroke:none"
         id="path1468"
         inkscape:connector-curvature="0" /></g><g
       id="g1470"
       transform="matrix(0.39776075,0,0,0.34982131,42.778523,97.181006)"><path
         d="M 0,0 48.183,27.725 C 46.776,33.7 45.791,39.33 45.115,44.792 L -5.931,20.262 C -4.583,13.378 -2.606,6.599 0,0"
         style="fill:#bfaeed;fill-opacity:1;fill-rule:nonzero;stroke:none"
         id="path1472"
         inkscape:connector-curvature="0" /></g><g
       id="g1474"
       transform="matrix(0.39776075,0,0,0.34982131,94.994248,95.161106)"><path
         d="m 0,0 c -3.976,-9.787 -2.771,-21.409 3.853,-30.805 6.625,-9.396 17.778,-14.555 26.005,-6.672 12.635,12.106 22.131,26.074 28.393,41.02 L 10.39,31.082 C 8.063,21.793 4.733,11.649 0,0"
         style="fill:#f9e8a2;fill-opacity:1;fill-rule:nonzero;stroke:none"
         id="path1476"
         inkscape:connector-curvature="0" /></g><g
       id="g1478"
       transform="matrix(0.39776075,0,0,0.34982131,113.90718,134.84743)"><path
         d="m 0,0 c -11.198,-2.705 -21.805,-2.659 -33.514,-0.277 0.498,-16.672 1.478,-30.281 1.27,-43.634 L 19.631,-69.002 C 20.386,-45.512 13.955,-21.578 0,0"
         style="fill:#bfaeed;fill-opacity:1;fill-rule:nonzero;stroke:none"
         id="path1480"
         inkscape:connector-curvature="0" /></g><g
       id="g1482"
       transform="matrix(0.39776075,0,0,0.34982131,99.127022,106.03422)"><path
         d="m 0,0 47.861,-27.539 c 2.521,6.018 4.504,12.197 5.969,18.475 L 3.411,17.604 C 2.647,11.993 1.55,6.189 0,0"
         style="fill:#bfaeed;fill-opacity:1;fill-rule:nonzero;stroke:none"
         id="path1484"
         inkscape:connector-curvature="0" /></g><g
       id="g1486"
       transform="matrix(0.39776075,0,0,0.34982131,39.570782,111.31117)"><path
         d="M 0,0 C 0.116,-6.764 0.833,-13.496 2.133,-20.131 L 53.179,4.4 C 52.352,11.089 51.992,17.528 51.91,24.037 L 0,0 Z"
         style="fill:#f9e8a2;fill-opacity:1;fill-rule:nonzero;stroke:none"
         id="path1488"
         inkscape:connector-curvature="0" /></g><g
       id="g1490"
       transform="matrix(0.39776075,0,0,0.34982131,101.0817,119.48635)"><path
         d="m 0,0 c -0.107,-6.889 -0.533,-13.713 -1.504,-20.851 l 50.42,-26.668 c 1.719,7.369 2.716,14.875 2.959,22.428 L 0,0 Z"
         style="fill:#f9e8a2;fill-opacity:1;fill-rule:nonzero;stroke:none"
         id="path1492"
         inkscape:connector-curvature="0" /></g><g
       id="g1494"
       transform="matrix(0.39776075,0,0,0.34982131,40.717168,55.828246)"><path
         d="m 0,0 c -26.686,-15.208 -43.251,-36.4 -43.251,-59.846 0,-0.071 0,-0.142 10e-4,-0.213 0.036,-8.597 9.728,-13.585 16.9,-8.845 8.785,5.806 20.682,10.934 34.886,15.12 -5.899,12.863 -9.193,27.171 -9.193,42.249 0,3.901 0.228,7.749 0.657,11.535"
         style="fill:#d96e9f;fill-opacity:1;fill-rule:nonzero;stroke:none"
         id="path1496"
         inkscape:connector-curvature="0" /></g><g
       id="g1498"
       transform="matrix(0.39776075,0,0,0.34982131,120.91226,55.828276)"><path
         d="m 0,0 c 0.429,-3.787 0.657,-7.634 0.657,-11.535 0,-15.078 -3.294,-29.386 -9.193,-42.249 14.204,-4.186 26.101,-9.315 34.886,-15.12 7.172,-4.74 16.864,0.248 16.9,8.845 10e-4,0.071 10e-4,0.142 10e-4,0.212 C 43.251,-36.4 26.686,-15.208 0,0"
         style="fill:#d96e9f;fill-opacity:1;fill-rule:nonzero;stroke:none"
         id="path1500"
         inkscape:connector-curvature="0" /></g><g
       id="g1502"
       transform="matrix(0.39776075,0,0,0.34982131,120.91226,55.828276)"><path
         d="m 0,0 c -9.877,5.629 -21.147,10.431 -33.471,14.23 -11.701,-31.953 -38.198,-54.255 -69.019,-54.255 -30.507,0 -56.782,21.851 -68.66,53.284 C -182.298,9.621 -192.552,5.166 -201.616,0 c -0.429,-3.787 -0.657,-7.634 -0.657,-11.535 0,-15.078 3.294,-29.386 9.193,-42.249 24.994,7.365 57.159,11.803 92.272,11.803 35.113,0 67.278,-4.438 92.272,-11.803 5.899,12.863 9.192,27.171 9.192,42.249 C 0.656,-7.634 0.429,-3.787 0,0"
         style="fill:#bb688e;fill-opacity:1;fill-rule:nonzero;stroke:none"
         id="path1504"
         inkscape:connector-curvature="0" /></g><g
       id="g1506"
       transform="matrix(0.39776075,0,0,0.34982131,80.145839,41.826574)"><path
         d="m 0,0 c 30.82,0 57.318,22.303 69.018,54.256 -20.096,6.194 -43.007,9.71 -67.336,9.71 -25.557,0 -49.535,-3.892 -70.342,-10.682 C -56.782,21.851 -30.508,0 0,0"
         style="fill:#9e5076;fill-opacity:1;fill-rule:nonzero;stroke:none"
         id="path1508"
         inkscape:connector-curvature="0" /></g><g
       id="g1510"
       transform="matrix(0.39776075,0,0,0.34982131,108.03619,69.868986)"><path
         d="m 0,0 c 0,-42.943 -30.64,-50.739 -68.437,-50.739 -37.796,0 -68.437,7.796 -68.437,50.739 0,42.943 30.641,85.76 68.437,85.76 C -30.64,85.76 0,42.943 0,0"
         style="fill:#f9e8a2;fill-opacity:1;fill-rule:nonzero;stroke:none"
         id="path1512"
         inkscape:connector-curvature="0" /></g><g
       id="g1514"
       transform="matrix(0.39776075,0,0,0.34982131,-154.01957,-116.19971)"><g
         id="g1516" /><g
         id="g1522"><g
           clip-path="url(#clipPath1518)"
           id="g1524"
           style="opacity:0.30000299"><g
             transform="translate(524.8308,558.6798)"
             id="g1526"><path
               d="m 0,0 c 0,-37.137 30.105,-76.117 67.242,-76.117 37.136,0 67.242,38.98 67.242,76.117 0,37.137 -30.106,58.366 -67.242,58.366 C 30.105,58.366 0,37.137 0,0"
               style="fill:#97cad3;fill-opacity:1;fill-rule:nonzero;stroke:none"
               id="path1528"
               inkscape:connector-curvature="0" /></g></g></g></g><g
       id="g1530"
       transform="matrix(0.39776075,0,0,0.34982131,-154.01957,-116.19971)"><g
         id="g1532" /><g
         id="g1538"><g
           clip-path="url(#clipPath1534)"
           id="g1540"><g
             transform="translate(644.5342,560.1072)"
             id="g1542"><path
               d="m 0,0 c 0,-33.41 -24.241,-60.495 -54.143,-60.495 -29.903,0 -54.144,27.085 -54.144,60.495 0,33.411 24.241,60.495 54.144,60.495 C -24.241,60.495 0,33.411 0,0"
               style="fill:#f9e8a2;fill-opacity:1;fill-rule:nonzero;stroke:none"
               id="path1544"
               inkscape:connector-curvature="0" /></g></g></g></g><g
       id="g1546"
       transform="matrix(0.39776075,0,0,0.34982131,102.64645,80.669196)"><path
         d="m 0,0 c 0,-30.313 -24.574,-54.887 -54.887,-54.887 -30.313,0 -54.886,24.574 -54.886,54.887 0,30.313 24.573,54.887 54.886,54.887 C -24.574,54.887 0,30.313 0,0"
         style="fill:#ffffff;fill-opacity:1;fill-rule:nonzero;stroke:none"
         id="path1548"
         inkscape:connector-curvature="0" /></g><g
       id="g1550"
       transform="matrix(0.39776075,0,0,0.34982131,15.151613,40.836124)"><path
         d="M 0,0 C -5.655,21.592 -7.406,38.92 7.461,42.814 22.328,46.707 41.071,41.833 50.935,4.164 56.59,-17.428 47.732,-29.278 32.865,-33.171 17.998,-37.064 5.655,-21.592 0,0"
         style="fill:#ffa7a0;fill-opacity:1;fill-rule:nonzero;stroke:none"
         id="path1552"
         inkscape:connector-curvature="0" /></g><g
       id="g1554"
       transform="matrix(0.39776075,0,0,0.34982131,30.810221,44.121644)"><path
         d="m 0,0 c 5.655,-21.592 7.406,-38.921 -7.461,-42.814 -14.867,-3.893 -34.713,8.696 -40.367,30.289 -5.655,21.592 0.096,41.802 14.963,45.696 C -17.998,37.064 -5.655,21.592 0,0"
         style="fill:#f5efec;fill-opacity:1;fill-rule:nonzero;stroke:none"
         id="path1556"
         inkscape:connector-curvature="0" /></g><g
       id="g1558"
       transform="matrix(0.39776075,0,0,0.34982131,25.613874,30.139924)"><path
         d="m 0,0 c -11.753,0 -26.686,10.601 -31.332,28.341 -2.612,9.975 -2.705,19.749 -0.261,27.523 1.643,5.229 5.179,11.875 12.691,13.842 1.23,0.323 2.463,0.486 3.664,0.486 10.156,0 19.918,-12.216 24.87,-31.123 3.254,-12.424 4.446,-20.693 3.865,-26.81 C 12.866,5.614 10.154,2.014 4.704,0.586 3.217,0.197 1.635,0 0,0"
         style="fill:#d5cac7;fill-opacity:1;fill-rule:nonzero;stroke:none"
         id="path1560"
         inkscape:connector-curvature="0" /></g><g
       id="g1562"
       transform="matrix(0.39776075,0,0,0.34982131,146.47782,40.836124)"><path
         d="m 0,0 c 5.655,21.592 7.406,38.92 -7.461,42.814 -14.867,3.893 -33.61,-0.981 -43.474,-38.65 -5.655,-21.592 3.203,-33.442 18.07,-37.335 C -17.998,-37.064 -5.655,-21.592 0,0"
         style="fill:#ffa7a0;fill-opacity:1;fill-rule:nonzero;stroke:none"
         id="path1564"
         inkscape:connector-curvature="0" /></g><g
       id="g1566"
       transform="matrix(0.39776075,0,0,0.34982131,130.81921,44.121644)"><path
         d="m 0,0 c -5.655,-21.592 -7.406,-38.921 7.461,-42.814 14.867,-3.893 34.713,8.696 40.367,30.289 C 53.483,9.067 47.732,29.277 32.865,33.171 17.998,37.064 5.655,21.592 0,0"
         style="fill:#f5efec;fill-opacity:1;fill-rule:nonzero;stroke:none"
         id="path1568"
         inkscape:connector-curvature="0" /></g><g
       id="g1570"
       transform="matrix(0.39776075,0,0,0.34982131,136.01556,30.139924)"><path
         d="m 0,0 c 11.753,0 26.686,10.601 31.332,28.341 2.612,9.975 2.705,19.749 0.261,27.523 -1.643,5.229 -5.179,11.875 -12.691,13.842 -1.23,0.323 -2.463,0.486 -3.664,0.486 C 5.082,70.192 -4.68,57.976 -9.632,39.069 -12.886,26.645 -14.078,18.376 -13.497,12.259 -12.866,5.614 -10.154,2.014 -4.705,0.586 -3.217,0.197 -1.635,0 0,0"
         style="fill:#d5cac7;fill-opacity:1;fill-rule:nonzero;stroke:none"
         id="path1572"
         inkscape:connector-curvature="0" /></g><g
       id="g1574"
       transform="matrix(0.39776075,0,0,0.34982131,99.481864,94.670446)"><path
         d="m 0,0 c 0,-21.178 -21.012,-38.345 -46.931,-38.345 -25.919,0 -46.93,17.167 -46.93,38.345 0,21.178 21.011,38.345 46.93,38.345 C -21.012,38.345 0,21.178 0,0"
         style="fill:#efefef;fill-opacity:1;fill-rule:nonzero;stroke:none"
         id="path1576"
         inkscape:connector-curvature="0" /></g><g
       id="g1578"
       transform="matrix(0.39776075,0,0,0.34982131,54.166732,99.959256)"><path
         d="m 0,0 c 2.944,-4.8 2.984,-11.236 0.1,-16.073 -2.884,-4.836 -8.566,-7.86 -14.188,-7.552 5.299,-2.674 10.866,-5.142 16.786,-5.576 5.921,-0.434 12.318,1.51 15.887,6.252 3.57,4.743 3.204,12.458 -1.653,15.872"
         style="fill:#da7d14;fill-opacity:1;fill-rule:nonzero;stroke:none"
         id="path1580"
         inkscape:connector-curvature="0" /></g><g
       id="g1582"
       transform="matrix(0.39776075,0,0,0.34982131,108.24366,99.959256)"><path
         d="m 0,0 c -2.944,-4.8 -2.984,-11.236 -0.1,-16.073 2.884,-4.836 8.566,-7.86 14.188,-7.552 -5.3,-2.674 -10.866,-5.142 -16.786,-5.576 -5.921,-0.434 -12.318,1.51 -15.888,6.252 -3.569,4.743 -3.203,12.458 1.654,15.872"
         style="fill:#da7d14;fill-opacity:1;fill-rule:nonzero;stroke:none"
         id="path1584"
         inkscape:connector-curvature="0" /></g><g
       id="g1586"
       transform="matrix(0.39776075,0,0,0.34982131,120.19832,111.88509)"><path
         d="m 0,0 c 0,-10.594 -8.588,-19.182 -19.182,-19.182 -10.593,0 -19.181,8.588 -19.181,19.182 0,10.594 8.588,19.182 19.181,19.182 C -8.588,19.182 0,10.594 0,0"
         style="fill:#fccbb9;fill-opacity:1;fill-rule:nonzero;stroke:none"
         id="path1588"
         inkscape:connector-curvature="0" /></g><g
       id="g1590"
       transform="matrix(0.39776075,0,0,0.34982131,116.62567,111.88509)"><path
         d="m 0,0 c 0,-6.614 -5.361,-11.975 -11.975,-11.975 -6.613,0 -11.975,5.361 -11.975,11.975 0,6.613 5.362,11.975 11.975,11.975 C -5.361,11.975 0,6.613 0,0"
         style="fill:#fb9f79;fill-opacity:1;fill-rule:nonzero;stroke:none"
         id="path1592"
         inkscape:connector-curvature="0" /></g><g
       id="g1594"
       transform="matrix(0.39776075,0,0,0.34982131,43.78446,111.88509)"><path
         d="m 0,0 c 0,-10.594 8.588,-19.182 19.182,-19.182 10.593,0 19.181,8.588 19.181,19.182 0,10.594 -8.588,19.182 -19.181,19.182 C 8.588,19.182 0,10.594 0,0"
         style="fill:#fccbb9;fill-opacity:1;fill-rule:nonzero;stroke:none"
         id="path1596"
         inkscape:connector-curvature="0" /></g><g
       id="g1598"
       transform="matrix(0.39776075,0,0,0.34982131,47.357147,111.88509)"><path
         d="m 0,0 c 0,-6.614 5.361,-11.975 11.975,-11.975 6.613,0 11.975,5.361 11.975,11.975 0,6.613 -5.362,11.975 -11.975,11.975 C 5.361,11.975 0,6.613 0,0"
         style="fill:#fb9f79;fill-opacity:1;fill-rule:nonzero;stroke:none"
         id="path1600"
         inkscape:connector-curvature="0" /></g><g
       id="g1602"
       transform="matrix(0.39776075,0,0,0.34982131,112.22453,117.39407)"><path
         d="m 0,0 c 0,-41.978 -34.03,-76.008 -76.008,-76.008 -41.979,0 -76.009,34.03 -76.009,76.008 0,41.978 34.03,76.008 76.009,76.008 C -34.03,76.008 0,41.978 0,0"
         style="fill:#da7d14;fill-opacity:1;fill-rule:nonzero;stroke:none"
         id="path1604"
         inkscape:connector-curvature="0" /></g><g
       id="g1606"
       transform="matrix(0.39776075,0,0,0.34982131,110.80174,111.95257)"><path
         d="m 0,0 c 0,-43.221 -27.276,-69.329 -72.431,-69.329 -45.155,0 -72.432,26.108 -72.432,69.329 0,43.221 27.277,78.258 72.432,78.258 C -27.276,78.258 0,43.221 0,0"
         style="fill:#fccbb9;fill-opacity:1;fill-rule:nonzero;stroke:none"
         id="path1608"
         inkscape:connector-curvature="0" /></g><g
       id="g1610"
       transform="matrix(0.39776075,0,0,0.34982131,88.759189,106.47485)"><path
         d="m 0,0 c 0,-24.766 -20.975,-44.843 -46.849,-44.843 -25.875,0 -46.85,20.077 -46.85,44.843 0,24.766 20.975,44.843 46.85,44.843 C -20.975,44.843 0,24.766 0,0"
         style="fill:#fccbb9;fill-opacity:1;fill-rule:nonzero;stroke:none"
         id="path1612"
         inkscape:connector-curvature="0" /></g><g
       id="g1614"
       transform="matrix(0.39776075,0,0,0.34982131,112.4933,106.47485)"><path
         d="m 0,0 c 0,-24.766 -20.975,-44.843 -46.849,-44.843 -25.875,0 -46.85,20.077 -46.85,44.843 0,24.766 20.975,44.843 46.85,44.843 C -20.975,44.843 0,24.766 0,0"
         style="fill:#fccbb9;fill-opacity:1;fill-rule:nonzero;stroke:none"
         id="path1616"
         inkscape:connector-curvature="0" /></g><g
       id="g1618"
       transform="matrix(0.39776075,0,0,0.34982131,-154.01957,-116.19971)"><g
         id="g1620" /><g
         id="g1626"><g
           clip-path="url(#clipPath1622)"
           id="g1628"
           style="opacity:0.80000299"><g
             transform="translate(556.1185,702.6569)"
             id="g1630"><path
               d="m 0,0 c 0,-19.378 16.669,-35.087 37.231,-35.087 20.561,0 37.23,15.709 37.23,35.087 0,19.378 -16.669,25.913 -37.23,25.913 C 16.669,25.913 0,19.378 0,0"
               style="fill:#ffd7ca;fill-opacity:1;fill-rule:nonzero;stroke:none"
               id="path1632"
               inkscape:connector-curvature="0" /></g></g></g></g><g
       id="g1634"
       transform="matrix(0.39776075,0,0,0.34982131,81.991409,103.87796)"><path
         d="m 0,0 c -3.526,0 -6.496,2.359 -7.432,5.584 -0.199,-0.686 -0.311,-1.409 -0.311,-2.16 0,-4.276 3.466,-7.743 7.743,-7.743 4.277,0 7.743,3.467 7.743,7.743 0,0.751 -0.112,1.474 -0.311,2.16 C 6.496,2.359 3.526,0 0,0"
         style="fill:#fb9f79;fill-opacity:1;fill-rule:nonzero;stroke:none"
         id="path1636"
         inkscape:connector-curvature="0" /></g><g
       id="g1638"
       transform="matrix(0.39776075,0,0,0.34982131,83.923214,106.30309)"><path
         d="m 0,0 c 0,-2.622 -2.126,-4.748 -4.748,-4.748 -2.623,0 -4.749,2.126 -4.749,4.748 0,2.622 2.126,4.748 4.749,4.748 C -2.126,4.748 0,2.622 0,0"
         style="fill:#ffe4dc;fill-opacity:1;fill-rule:nonzero;stroke:none"
         id="path1640"
         inkscape:connector-curvature="0" /></g><g
       id="g1642"
       transform="matrix(0.39776075,0,0,0.34982131,62.009619,126.15528)"><path
         d="m 0,0 c 4.063,4.179 13.142,7.368 20.146,7.076 0.95,1.12 0.501,2.583 -0.836,3.127 -1.336,0.544 -3.348,0.579 -5.357,0.333 C 9.992,10.05 5.823,8.475 3.083,6.428 0.343,4.382 -0.745,1.917 0,0"
         style="fill:#da7d14;fill-opacity:1;fill-rule:nonzero;stroke:none"
         id="path1644"
         inkscape:connector-curvature="0" /></g><g
       id="g1646"
       transform="matrix(0.39776075,0,0,0.34982131,101.97316,126.15528)"><path
         d="m 0,0 c -4.063,4.179 -13.142,7.368 -20.146,7.076 -0.95,1.12 -0.501,2.583 0.836,3.127 1.336,0.544 3.348,0.579 5.357,0.333 3.962,-0.486 8.13,-2.061 10.87,-4.108 C -0.343,4.382 0.745,1.917 0,0"
         style="fill:#da7d14;fill-opacity:1;fill-rule:nonzero;stroke:none"
         id="path1648"
         inkscape:connector-curvature="0" /></g><g
       id="g1650"
       transform="matrix(0.39776075,0,0,0.34982131,-154.01957,-116.19971)"><g
         id="g1652" /><g
         id="g1658"><g
           clip-path="url(#clipPath1654)"
           id="g1660"
           style="opacity:0.39999402"><g
             transform="translate(573.285,654.6554)"
             id="g1662"><path
               d="m 0,0 c 0,-10.787 -8.744,-10.655 -19.531,-10.655 -10.787,0 -19.531,-0.132 -19.531,10.655 0,10.787 8.744,16.529 19.531,16.529 C -8.744,16.529 0,10.787 0,0"
               style="fill:#f9bead;fill-opacity:1;fill-rule:nonzero;stroke:none"
               id="path1664"
               inkscape:connector-curvature="0" /></g></g></g></g><g
       id="g1666"
       transform="matrix(0.39776075,0,0,0.34982131,-154.01957,-116.19971)"><g
         id="g1668" /><g
         id="g1674"><g
           clip-path="url(#clipPath1670)"
           id="g1676"
           style="opacity:0.39999402"><g
             transform="translate(653.1652,654.6554)"
             id="g1678"><path
               d="m 0,0 c 0,-10.787 -8.744,-10.655 -19.531,-10.655 -10.787,0 -19.531,-0.132 -19.531,10.655 0,10.787 8.744,16.529 19.531,16.529 C -8.744,16.529 0,10.787 0,0"
               style="fill:#f9bead;fill-opacity:1;fill-rule:nonzero;stroke:none"
               id="path1680"
               inkscape:connector-curvature="0" /></g></g></g></g><g
       id="g1682"
       transform="matrix(0.39776075,0,0,0.34982131,73.428495,111.72732)"><path
         d="m 0,0 c 0,-8.912 -7.224,-14.635 -16.136,-14.635 -8.912,0 -17.138,8.727 -17.138,17.639 0,8.912 8.226,11.633 17.138,11.633 C -7.224,14.637 0,8.912 0,0"
         style="fill:#000000;fill-opacity:1;fill-rule:nonzero;stroke:none"
         id="path1684"
         inkscape:connector-curvature="0" /></g><g
       id="g1686"
       transform="matrix(0.39776075,0,0,0.34982131,-154.01957,-116.19971)"><g
         id="g1688"
         clip-path="url(#clipPath1690)"><g
           id="g1694"
           transform="translate(572.595,649.2317)"><path
             d="m 0,0 c 0,-8.912 -7.225,-14.634 -16.136,-14.634 -8.912,0 -16.137,8.726 -16.137,17.638 0,8.912 7.225,11.633 16.137,11.633 C -7.225,14.637 0,8.912 0,0"
             style="fill:#faf1f0;fill-opacity:1;fill-rule:nonzero;stroke:none"
             id="path1696"
             inkscape:connector-curvature="0" /></g><g
           id="g1698"
           transform="translate(545.5281,652.3514)"><path
             d="m 0,0 c 0,-7.668 6.216,-13.885 13.885,-13.885 7.668,0 13.885,6.217 13.885,13.885 0,7.668 -6.217,13.885 -13.885,13.885 C 6.216,13.885 0,7.668 0,0"
             style="fill:#235382;fill-opacity:1;fill-rule:nonzero;stroke:none"
             id="path1700"
             inkscape:connector-curvature="0" /></g><g
           id="g1702"
           transform="translate(550.4066,652.3514)"><path
             d="m 0,0 c 0,-4.974 4.032,-9.006 9.006,-9.006 4.974,0 9.007,4.032 9.007,9.006 0,4.974 -4.033,9.006 -9.007,9.006 C 4.032,9.006 0,4.974 0,0"
             style="fill:#000000;fill-opacity:1;fill-rule:nonzero;stroke:none"
             id="path1704"
             inkscape:connector-curvature="0" /></g><g
           id="g1706"
           transform="translate(562.6023,655.5389)"><path
             d="m 0,0 c 0,-3.316 -2.688,-6.004 -6.004,-6.004 -3.316,0 -6.004,2.688 -6.004,6.004 0,3.316 2.688,6.004 6.004,6.004 C -2.688,6.004 0,3.316 0,0"
             style="fill:#ffffff;fill-opacity:1;fill-rule:nonzero;stroke:none"
             id="path1708"
             inkscape:connector-curvature="0" /></g></g></g><g
       id="g1710"
       transform="matrix(0.39776075,0,0,0.34982131,-154.01957,-116.19971)"><g
         id="g1712"
         clip-path="url(#clipPath1714)"><g
           id="g1718"
           transform="translate(614.8768,651.5527)"><path
             d="m 0,0 c 0,-8.912 7.225,-14.635 16.137,-14.635 8.912,0 17.137,8.727 17.137,17.639 0,8.912 -8.225,11.633 -17.137,11.633 C 7.225,14.637 0,8.912 0,0"
             style="fill:#000000;fill-opacity:1;fill-rule:nonzero;stroke:none"
             id="path1720"
             inkscape:connector-curvature="0" /></g></g></g><g
       id="g1722"
       transform="matrix(0.39776075,0,0,0.34982131,-154.01957,-116.19971)"><g
         id="g1724"
         clip-path="url(#clipPath1726)"><g
           id="g1730"
           transform="translate(614.1031,649.2317)"><path
             d="m 0,0 c 0,-8.912 7.225,-14.634 16.137,-14.634 8.912,0 16.136,8.726 16.136,17.638 0,8.912 -7.224,11.633 -16.136,11.633 C 7.225,14.637 0,8.912 0,0"
             style="fill:#faf1f0;fill-opacity:1;fill-rule:nonzero;stroke:none"
             id="path1732"
             inkscape:connector-curvature="0" /></g><g
           id="g1734"
           transform="translate(641.17,652.3514)"><path
             d="m 0,0 c 0,-7.668 -6.216,-13.885 -13.885,-13.885 -7.668,0 -13.885,6.217 -13.885,13.885 0,7.668 6.217,13.885 13.885,13.885 C -6.216,13.885 0,7.668 0,0"
             style="fill:#235382;fill-opacity:1;fill-rule:nonzero;stroke:none"
             id="path1736"
             inkscape:connector-curvature="0" /></g><g
           id="g1738"
           transform="translate(636.2915,652.3514)"><path
             d="m 0,0 c 0,-4.974 -4.032,-9.006 -9.006,-9.006 -4.975,0 -9.007,4.032 -9.007,9.006 0,4.974 4.032,9.006 9.007,9.006 C -4.032,9.006 0,4.974 0,0"
             style="fill:#000000;fill-opacity:1;fill-rule:nonzero;stroke:none"
             id="path1740"
             inkscape:connector-curvature="0" /></g><g
           id="g1742"
           transform="translate(624.0958,655.5389)"><path
             d="m 0,0 c 0,-3.316 2.688,-6.004 6.004,-6.004 3.316,0 6.005,2.688 6.005,6.004 0,3.316 -2.689,6.004 -6.005,6.004 C 2.688,6.004 0,3.316 0,0"
             style="fill:#ffffff;fill-opacity:1;fill-rule:nonzero;stroke:none"
             id="path1744"
             inkscape:connector-curvature="0" /></g></g></g><g
       id="g1746"
       transform="matrix(0.39776075,0,0,0.34982131,-154.01957,-116.19971)"><g
         id="g1748"
         clip-path="url(#clipPath1750)"><g
           id="g1754"><g
             id="g1756" /><g
             id="g1762"><g
               clip-path="url(#clipPath1758)"
               id="g1764"><g
                 transform="translate(570.1135,653.8428)"
                 id="g1766"><path
                   d="m 0,0 c 1.953,-1.953 1.953,-5.118 0,-7.071 -1.953,-1.953 -5.118,-1.953 -7.071,0 -1.953,1.953 -1.953,5.118 0,7.071 1.953,1.953 5.118,1.953 7.071,0"
                   style="fill:#235382;fill-opacity:1;fill-rule:nonzero;stroke:none"
                   id="path1768"
                   inkscape:connector-curvature="0" /></g></g></g></g><g
           id="g1770"><g
             id="g1772" /><g
             id="g1778"><g
               clip-path="url(#clipPath1774)"
               id="g1780"><g
                 transform="translate(638.453,653.8428)"
                 id="g1782"><path
                   d="m 0,0 c 1.953,-1.953 1.953,-5.118 0,-7.071 -1.953,-1.953 -5.118,-1.953 -7.071,0 -1.953,1.953 -1.953,5.118 0,7.071 1.953,1.953 5.118,1.953 7.071,0"
                   style="fill:#235382;fill-opacity:1;fill-rule:nonzero;stroke:none"
                   id="path1784"
                   inkscape:connector-curvature="0" /></g></g></g></g><g
           id="g1786"
           transform="translate(584.2565,618.7721)"><path
             d="m 0,0 c -2.822,-10.398 -19.406,-14.947 -37.041,-10.161 -17.636,4.786 -29.645,17.094 -26.823,27.492 2.822,10.398 19.406,14.947 37.041,10.161 C -9.187,22.707 2.822,10.398 0,0"
             style="fill:#fccbb9;fill-opacity:1;fill-rule:nonzero;stroke:none"
             id="path1788"
             inkscape:connector-curvature="0" /></g><g
           id="g1790"
           transform="translate(602.4416,618.7721)"><path
             d="M 0,0 C 2.822,-10.398 19.406,-14.947 37.041,-10.161 54.677,-5.375 66.686,6.933 63.864,17.331 61.042,27.729 44.458,32.278 26.823,27.492 9.187,22.707 -2.822,10.398 0,0"
             style="fill:#fccbb9;fill-opacity:1;fill-rule:nonzero;stroke:none"
             id="path1792"
             inkscape:connector-curvature="0" /></g><g
           id="g1794"
           transform="translate(558.3092,628.4001)"><path
             d="m 0,0 c -1.5,-7.822 -9.967,-12.772 -18.91,-11.057 -8.944,1.716 -14.978,9.447 -13.478,17.269 1.5,7.822 9.967,12.772 18.91,11.057 C -4.534,15.554 1.5,7.822 0,0"
             style="fill:#ffa79b;fill-opacity:1;fill-rule:nonzero;stroke:none"
             id="path1796"
             inkscape:connector-curvature="0" /></g><g
           id="g1798"
           transform="translate(628.3889,628.4001)"><path
             d="m 0,0 c 1.5,-7.822 9.967,-12.772 18.91,-11.057 8.944,1.716 14.978,9.447 13.478,17.269 -1.5,7.822 -9.967,12.772 -18.91,11.057 C 4.534,15.554 -1.5,7.822 0,0"
             style="fill:#ffa79b;fill-opacity:1;fill-rule:nonzero;stroke:none"
             id="path1800"
             inkscape:connector-curvature="0" /></g><g
           id="g1802"
           transform="translate(562.376,736.5249)"><path
             d="m 0,0 c 0.799,-9.258 7.412,-17.759 16.189,-20.811 4.392,-1.527 9.117,-1.759 13.658,-2.759 4.541,-1 9.199,-3.013 11.656,-6.961 2.456,-3.948 1.578,-10.131 -2.677,-12.005 7.513,0.963 12.135,5.342 14.982,12.362 2.847,7.019 1.615,15.531 -3.106,21.456 -3.821,4.796 -9.593,7.768 -15.577,9.106 -8.026,1.794 -16.647,0.798 -24.051,-2.779"
             style="fill:#da7d14;fill-opacity:1;fill-rule:nonzero;stroke:none"
             id="path1804"
             inkscape:connector-curvature="0" /></g><g
           id="g1806"
           transform="translate(617.0455,735.2342)"><path
             d="m 0,0 c 1.881,0.193 3.728,0.537 5.518,1.12 3.12,1.018 6.247,2.964 7.275,6.079 1.181,3.577 0.708,7.41 -1.149,10.687 C 11.915,14.561 9.061,11.679 5.923,10.544 2.786,9.409 -0.642,9.532 -3.961,9.201 -12.566,8.342 -20.805,4.222 -26.655,-2.147 c 8.102,3.682 18.235,1.988 26.862,1.705 4.295,-0.141 8.603,0.047 12.802,-0.992 4.872,-1.205 9.338,-3.708 14.358,-4.385 4.454,-0.6 9.094,0.273 13.024,2.451 1.915,-5.456 -1.606,-10.828 -7.093,-12.655 -5.762,-1.918 -11.943,1.181 -16.88,4.718 C 11.482,-7.767 6.031,-0.716 0,0"
             style="fill:#da7d14;fill-opacity:1;fill-rule:nonzero;stroke:none"
             id="path1808"
             inkscape:connector-curvature="0" /></g><g
           id="g1810"
           transform="translate(612.7389,730.2366)"><path
             d="m 0,0 c 9.157,2.032 19.289,-1.136 25.658,-8.022 1.856,-2.006 3.4,-4.287 5.296,-6.256 1.896,-1.969 4.255,-3.66 6.963,-4.032 C 22.803,-19.539 9.093,-12.135 0,0"
             style="fill:#da7d14;fill-opacity:1;fill-rule:nonzero;stroke:none"
             id="path1812"
             inkscape:connector-curvature="0" /></g><g
           id="g1814"
           transform="translate(564.439,735.4666)"><path
             d="m 0,0 c 3.217,7.008 10.319,12.075 17.993,12.838 3.964,0.394 7.998,-0.28 11.932,0.35 3.933,0.63 8.035,3.124 8.657,7.059 1.931,-1.847 2.601,-2.55 3.893,-4.888 1.292,-2.338 1.837,-5.242 0.791,-7.7 C 41.983,4.647 38.718,3.025 35.602,2.02 26.594,-0.887 16.926,-0.734 7.462,-0.553 4.688,-0.5 2.774,-0.053 0,0"
             style="fill:#da7d14;fill-opacity:1;fill-rule:nonzero;stroke:none"
             id="path1816"
             inkscape:connector-curvature="0" /></g><g
           id="g1818"
           transform="translate(569.5786,726.8138)"><path
             d="m 0,0 c -3.563,3.463 -9.362,3.654 -13.971,1.799 -4.609,-1.855 -8.312,-5.377 -11.915,-8.798 -3.603,-3.421 -7.357,-6.904 -12.008,-8.651 5.455,-3.2 10.504,-3.754 16.726,-2.623 6.221,1.13 12,4.552 15.981,9.465 C -2.709,-5.75 -3.767,-1.14 0,0"
             style="fill:#da7d14;fill-opacity:1;fill-rule:nonzero;stroke:none"
             id="path1820"
             inkscape:connector-curvature="0" /></g><g
           id="g1822"
           transform="translate(613.7035,616.5438)"><path
             d="M 0,0 C 2.109,-9.968 -5.75,-20.642 -20.354,-20.64 -34.959,-20.642 -42.817,-9.968 -40.709,0 c 1.195,6.608 9.107,-7.066 20.355,-7.04 C -9.107,-7.065 -1.195,6.608 0,0"
             style="fill:#fb9f79;fill-opacity:1;fill-rule:nonzero;stroke:none"
             id="path1824"
             inkscape:connector-curvature="0" /></g><g
           id="g1826"
           transform="translate(620.3349,616.2593)"><path
             d="M 0,0 C -2.21,7.257 -12.681,1.049 -26.986,1.069 -41.291,1.049 -51.762,7.257 -53.972,0 c 0,0 3.106,-12.186 11.738,-15.246 2.153,6.362 8.159,10.947 15.248,10.947 7.089,0 13.095,-4.585 15.249,-10.947 C -3.105,-12.186 0,0 0,0"
             style="fill:#cf6259;fill-opacity:1;fill-rule:nonzero;stroke:none"
             id="path1828"
             inkscape:connector-curvature="0" /></g><g
           id="g1830"
           transform="translate(593.3491,611.9603)"><path
             d="m 0,0 c -7.089,0 -13.095,-4.585 -15.248,-10.947 4.258,-1.51 9.443,-2.449 15.248,-2.449 5.805,0 10.99,0.939 15.249,2.449 C 13.095,-4.586 7.089,0 0,0"
             style="fill:#f86e6e;fill-opacity:1;fill-rule:nonzero;stroke:none"
             id="path1832"
             inkscape:connector-curvature="0" /></g><g
           id="g1834"
           transform="translate(596.313,593.7067)"><path
             d="m 0,0 c 0,-1.637 -1.327,-2.964 -2.964,-2.964 -1.637,0 -2.964,1.327 -2.964,2.964 0,1.637 1.327,2.964 2.964,2.964 C -1.327,2.964 0,1.637 0,0"
             style="fill:#ffe4dc;fill-opacity:1;fill-rule:nonzero;stroke:none"
             id="path1836"
             inkscape:connector-curvature="0" /></g><g
           id="g1838"
           transform="translate(581.4996,739.2354)"><path
             d="m 0,0 c -2.461,-2.891 -1.679,-7.545 0.786,-10.432 2.465,-2.888 6.159,-4.385 9.767,-5.568 3.608,-1.183 7.369,-2.199 10.427,-4.448 3.059,-2.249 5.295,-6.119 4.374,-9.802 4.128,7.394 3.359,16.627 -2.045,23.147 C 17.905,-0.582 8.032,2.684 0,0"
             style="fill:#f4953c;fill-opacity:1;fill-rule:nonzero;stroke:none"
             id="path1840"
             inkscape:connector-curvature="0" /></g><g
           id="g1842"
           transform="translate(562.6839,731.096)"><path
             d="m 0,0 c 1.413,-4.721 -0.572,-10.252 -4.665,-12.997 -3.37,-2.26 -7.627,-2.602 -11.675,-2.876 C -14.847,-7.432 -8.302,-2.138 0,0"
             style="fill:#f4953c;fill-opacity:1;fill-rule:nonzero;stroke:none"
             id="path1844"
             inkscape:connector-curvature="0" /></g><g
           id="g1846"
           transform="translate(621.051,731.4686)"><path
             d="m 0,0 c 2.943,-4.924 6.889,-9.538 12.199,-11.711 5.309,-2.174 12.163,-1.282 15.697,3.237 -2.695,-1.02 -6.755,-0.234 -9.525,0.561 -2.77,0.796 -5.333,2.17 -7.871,3.535 C 7.22,-2.615 3.279,-1.763 0,0"
             style="fill:#f4953c;fill-opacity:1;fill-rule:nonzero;stroke:none"
             id="path1848"
             inkscape:connector-curvature="0" /></g><g
           id="g1850"
           transform="translate(598.1299,551.0698)"><path
             d="m 0,0 c -1.95,0 -5.724,0.503 -7.926,0.503 -7.484,0 -11.384,-5.786 -11.384,-13.082 0,-6.542 3.145,-12.957 9.938,-12.957 3.963,0 7.044,2.202 8.491,5.158 0.566,1.131 0.881,2.452 0.881,4.025 L 0,0 Z m 10.314,-26.291 c -1.131,-1.824 -2.956,-2.516 -4.591,-2.516 -2.893,0 -5.284,2.139 -5.661,4.906 -2.012,-3.396 -5.471,-4.906 -9.497,-4.906 -8.995,0 -13.459,7.548 -13.459,16.102 0,9.686 5.723,16.479 15.346,16.479 1.887,0 5.283,-0.252 7.548,-0.567 l 3.459,0 0,-26.353 c 0,-1.384 1.132,-2.201 2.201,-2.201 0.692,0 1.384,0.314 1.824,1.006 l 2.83,-1.95 z"
             style="fill:#bb688e;fill-opacity:1;fill-rule:nonzero;stroke:none"
             id="path1852"
             inkscape:connector-curvature="0" /></g><g
           id="g1854"
           transform="translate(608.2921,524.7542)"><path
             d="M 0,0 C -0.957,0.565 -1.906,1.141 -2.851,1.723 L -2.42,1.811 C -2.786,1.151 -3.495,0.649 -4.301,0.564 -5.078,0.462 -5.916,0.749 -6.496,1.331 -6.79,1.62 -7.01,1.992 -7.136,2.389 -7.274,2.814 -7.271,3.215 -7.285,3.529 l -0.079,1.999 c -0.116,2.666 -0.176,5.332 -0.244,7.999 -0.058,2.666 -0.113,5.332 -0.133,7.998 -0.043,2.666 -0.031,5.332 -0.026,7.998 l 1.064,-1.063 -3.459,0.038 -0.083,10e-4 -0.059,0.009 c -1.359,0.205 -2.752,0.354 -4.14,0.473 -1.385,0.102 -2.792,0.236 -4.119,0.159 -1.35,-0.007 -2.674,-0.233 -3.973,-0.55 -1.277,-0.385 -2.518,-0.898 -3.654,-1.61 -1.108,-0.736 -2.187,-1.577 -3.026,-2.647 -0.859,-1.047 -1.595,-2.217 -2.12,-3.49 -0.582,-1.251 -0.901,-2.613 -1.156,-3.973 -0.186,-1.343 -0.31,-2.802 -0.23,-4.165 0.053,-1.392 0.241,-2.78 0.599,-4.119 0.311,-1.354 0.881,-2.628 1.523,-3.83 0.653,-1.204 1.517,-2.266 2.474,-3.194 0.956,-0.941 2.119,-1.619 3.316,-2.14 1.198,-0.576 2.511,-0.76 3.776,-0.945 l 1.057,-0.052 c 0.152,-0.004 0.407,-0.026 0.475,-0.017 l 0.498,0.014 c 0.662,0.034 1.324,0.08 1.967,0.21 1.293,0.234 2.518,0.71 3.602,1.403 1.084,0.698 1.994,1.648 2.694,2.76 l 1.142,1.816 0.238,-2.096 c 0.111,-0.976 0.498,-1.945 1.165,-2.708 0.655,-0.767 1.536,-1.371 2.538,-1.647 0.256,-0.082 0.488,-0.113 0.746,-0.164 l 0.424,-0.044 c 0.101,-0.012 0.255,-0.014 0.38,-0.015 0.529,0.003 1.062,0.077 1.572,0.242 C -1.545,-1.513 -0.664,-0.862 0,0 M 0.235,-0.031 C -0.026,-0.53 -0.387,-1.028 -0.814,-1.432 -1.247,-1.84 -1.755,-2.175 -2.307,-2.419 -2.857,-2.669 -3.45,-2.822 -4.056,-2.895 -4.214,-2.91 -4.345,-2.926 -4.528,-2.928 l -0.427,-0.004 c -0.306,0.017 -0.641,0.047 -0.936,0.114 -1.216,0.233 -2.371,0.852 -3.249,1.763 -0.89,0.901 -1.477,2.1 -1.699,3.369 l 1.381,-0.28 c -0.747,-1.314 -1.782,-2.493 -3.042,-3.379 -1.263,-0.882 -2.718,-1.449 -4.196,-1.753 -0.74,-0.16 -1.488,-0.235 -2.235,-0.277 l -0.56,-0.011 c -0.285,-0.002 -0.382,0.017 -0.583,0.024 l -1.057,0.061 c -0.73,0.104 -1.543,0.197 -2.251,0.431 l -1.08,0.337 -1.035,0.464 c -1.333,0.699 -2.586,1.577 -3.571,2.699 -0.989,1.108 -1.826,2.339 -2.423,3.672 -0.584,1.333 -1.06,2.706 -1.334,4.118 -0.286,1.408 -0.479,2.832 -0.506,4.262 -0.065,1.458 0.021,2.826 0.197,4.281 0.21,1.419 0.511,2.832 1.021,4.189 0.469,1.37 1.171,2.666 2.027,3.856 0.827,1.22 1.933,2.232 3.108,3.135 1.195,0.894 2.566,1.513 3.967,2.012 1.421,0.418 2.885,0.755 4.363,0.804 1.492,0.119 2.911,0.018 4.341,-0.048 1.428,-0.084 2.848,-0.197 4.286,-0.373 l -0.141,0.01 3.459,0.039 1.061,0.012 0.002,-1.076 C -5.634,26.857 -5.623,24.191 -5.666,21.525 -5.686,18.859 -5.74,16.193 -5.798,13.527 -5.867,10.86 -5.927,8.194 -6.043,5.528 L -6.122,3.529 C -6.139,3.178 -6.148,2.903 -6.093,2.686 -6.037,2.443 -5.93,2.212 -5.762,2.019 c 0.333,-0.392 0.857,-0.636 1.412,-0.63 0.533,-0.001 1.077,0.273 1.414,0.75 L -2.744,2.41 -2.505,2.226 C -1.595,1.528 -0.688,0.824 0.209,0.107 L 0.278,0.051 0.235,-0.031 Z"
             style="fill:#bb688e;fill-opacity:1;fill-rule:nonzero;stroke:none"
             id="path1856"
             inkscape:connector-curvature="0" /></g><g
           id="g1858"
           transform="translate(598.2299,551.0698)"><path
             d="m 0,0 c 0,0 0.131,-1.199 0.299,-3.298 0.094,-1.049 0.151,-2.324 0.248,-3.785 0.101,-1.462 0.169,-3.111 0.245,-4.91 0.029,-0.899 0.059,-1.836 0.09,-2.806 0.011,-0.484 0.023,-0.978 0.034,-1.478 0.012,-0.53 -0.011,-1.098 -0.08,-1.663 -0.07,-0.568 -0.187,-1.145 -0.366,-1.716 -0.091,-0.29 -0.2,-0.559 -0.331,-0.853 -0.119,-0.274 -0.256,-0.521 -0.403,-0.794 -0.582,-1.06 -1.384,-2.029 -2.354,-2.82 -1.941,-1.584 -4.547,-2.437 -7.103,-2.283 -1.28,0.04 -2.571,0.38 -3.743,0.94 -1.178,0.565 -2.186,1.429 -2.985,2.409 -1.637,1.963 -2.416,4.373 -2.905,6.706 -0.214,1.17 -0.353,2.39 -0.406,3.534 -0.033,1.189 -0.052,2.355 0.097,3.512 0.256,2.299 0.977,4.565 2.318,6.363 1.325,1.81 3.228,2.997 5.062,3.607 0.46,0.154 0.93,0.234 1.377,0.347 0.462,0.076 0.925,0.121 1.367,0.176 0.428,0.031 0.815,0.02 1.207,0.022 0.454,0.012 0.811,-0.036 1.195,-0.062 C -5.65,1.009 -4.394,0.795 -3.355,0.62 L -0.01,0.088 0,0 Z m -0.21,-0.109 c -0.133,-0.012 -0.387,-0.034 -0.761,-0.067 -0.569,-0.03 -1.4,-0.036 -2.456,-0.04 -1.044,0.009 -2.312,0.02 -3.766,0.033 -0.347,-0.01 -0.745,-0.002 -1.066,-0.048 -0.382,-0.045 -0.796,-0.064 -1.183,-0.116 -0.365,-0.073 -0.739,-0.147 -1.122,-0.223 -0.379,-0.125 -0.777,-0.223 -1.162,-0.371 -1.548,-0.577 -3.048,-1.601 -4.235,-3.077 -0.294,-0.371 -0.597,-0.748 -0.841,-1.177 -0.289,-0.401 -0.505,-0.857 -0.752,-1.305 -0.425,-0.929 -0.818,-1.923 -1.048,-2.99 -0.541,-2.107 -0.586,-4.47 -0.154,-6.744 0.23,-1.138 0.605,-2.25 1.105,-3.299 0.52,-1.041 1.209,-1.986 2.009,-2.784 1.609,-1.633 3.816,-2.333 5.961,-2.321 2.168,-0.019 4.234,0.771 5.726,2.097 1.491,1.337 2.455,3.093 2.726,4.887 0.071,0.456 0.107,0.906 0.113,1.377 0.011,0.5 0.023,0.994 0.034,1.478 0.031,0.97 0.061,1.907 0.09,2.806 0.076,1.799 0.144,3.448 0.245,4.91 0.097,1.461 0.155,2.736 0.248,3.785 0.139,1.737 0.254,2.854 0.289,3.189"
             style="fill:#bb688e;fill-opacity:1;fill-rule:nonzero;stroke:none"
             id="path1860"
             inkscape:connector-curvature="0" /></g></g></g></g></svg>