<?xml version="1.0" encoding="UTF-8" standalone="no"?>
<!-- Created with Inkscape (http://www.inkscape.org/) -->
<svg id="svg2" xmlns:rdf="http://www.w3.org/1999/02/22-rdf-syntax-ns#" xmlns="http://www.w3.org/2000/svg" xml:space="preserve" height="66mm" viewBox="0 0 194.88189 233.85827" width="55mm" version="1.1" xmlns:cc="http://creativecommons.org/ns#" xmlns:dc="http://purl.org/dc/elements/1.1/"><metadata id="metadata8"><rdf:RDF><cc:Work rdf:about=""><dc:format>image/svg+xml</dc:format><dc:type rdf:resource="http://purl.org/dc/dcmitype/StillImage"/><dc:title/></cc:Work></rdf:RDF></metadata><defs id="defs6"><clipPath id="clipPath178" clipPathUnits="userSpaceOnUse"><path id="path180" d="m356.68 68.488h124.76v-8.1992h-124.76v8.1992z"/></clipPath><clipPath id="clipPath262" clipPathUnits="userSpaceOnUse"><path id="path264" d="m377.36 178.97h15.252v-14.702h-15.252v14.702z"/></clipPath><clipPath id="clipPath278" clipPathUnits="userSpaceOnUse"><path id="path280" d="m386.4 177.46h29.353v-26.973h-29.353v26.973z"/></clipPath><clipPath id="clipPath298" clipPathUnits="userSpaceOnUse"><path id="path300" d="m329.28 256.71h77.011v-74.514h-77.011v74.514z"/></clipPath><clipPath id="clipPath326" clipPathUnits="userSpaceOnUse"><path id="path328" d="m357.76 215.18h17.175v-9.873h-17.175v9.873z"/></clipPath><clipPath id="clipPath354" clipPathUnits="userSpaceOnUse"><path id="path356" d="m389.96 228h13.496v-11.557h-13.496v11.557z"/></clipPath><clipPath id="clipPath378" clipPathUnits="userSpaceOnUse"><path id="path380" d="m336.47 206.05h6.781v-8.1h-6.781v8.1z"/></clipPath></defs><g id="g10" transform="matrix(1.25 0 0 -1.25 0 233.86)"><g id="g174" transform="matrix(0.764 0 0 0.764 -222.38 -31.126)"><g id="g182"><g id="g184" opacity="0.2" clip-path="url(#clipPath178)"><g id="g186" transform="translate(481.44 64.389)"><path id="path188" d="m0 0c0-2.264-27.928-4.1-62.382-4.1-34.452 0-62.381 1.836-62.381 4.1s27.929 4.1 62.381 4.1c34.451 0 62.379-1.836 62.379-4.1" fill="#92969e"/></g></g></g></g><g id="g190" transform="matrix(0.764 0 0 0.764 99.174 116.12)"><path id="path192" d="m0 0s12.408 3.066 16.458-2.105c4.051-5.172-0.56-4.612-0.212-8.356 0.345-3.742 7.658-6.812 11.884-2.588 4.227 4.227-1.884 34.153-31.62 25.649l3.49-12.6z" fill="#ffd3b3"/></g><g id="g194" transform="matrix(0.764 0 0 0.764 119.7 107.77)"><path id="path196" d="m0 0c-0.672 1.064-1.561 2.041-2.85 1.67 0.02 0.047 0.045 0.092 0.061 0.141 0.076 0.248-0.129 0.459-0.363 0.476-0.903 0.067-1.414-0.857-2.159-1.305-0.857-0.517-2.23-1.429-2.919-0.06-0.516 1.131 0.171 2.017 0.71 2.959 0.538 0.939 1.463 1.654 1.909 2.631 0.047 0.103-0.055 0.238-0.168 0.168-1.959-1.215-4.528-5.075-3.237-6.627 0.93-1.117 2.11-1.203 3.528-0.645 0.746 0.295 1.633 0.84 2.201 1.529 0.041-0.019 0.08-0.044 0.135-0.041 0.552 0.034 1.002 0.133 1.548-0.046 0.598-0.198 1.028-0.743 1.35-1.25 0.289-0.461 0.547-0.063 0.254 0.4" fill="#ff975f"/></g><g id="g198" transform="matrix(0.764 0 0 0.764 46.933 101.03)"><path id="path200" d="m0 0s-10.025-7.928-15.854-4.896c-5.828 3.031-1.398 4.429-3.264 7.693-1.865 3.265-9.792 3.031-11.89-2.565-2.098-5.593 15.854-30.308 39.401-10.257l-8.393 10.025z" fill="#ffd3b3"/></g><g id="g202" transform="matrix(0.764 0 0 0.764 32.634 102.39)"><path id="path204" d="m0 0c-0.097 0.209-0.627 0.385-0.625 0.146 0.028-2.234-0.301-4.023-2.125-5.416-3.282-2.503-5.55 0.221-6.012 0.725-0.035 0.037-0.088-0.006-0.072-0.057 0.285-0.931 1.279-3.615 5.653-2.457 2.451 0.651 4.374 4.475 3.181 7.059" fill="#ff975f"/></g><g id="g206" transform="matrix(0.764 0 0 0.764 30.989 97.434)"><path id="path208" d="m0 0c-0.014 0.059-0.102 0.088-0.142 0.037-0.252-0.324-0.33-0.703-0.502-1.078-0.246-0.535-0.637-0.994-1.102-1.35-0.747-0.572-2.046-0.396-2.911-0.601-0.512-0.123-0.534-0.947 0-1.055 1.346-0.269 2.294 0.408 3.267 1.193 0.732 0.59 1.618 1.874 1.39 2.854" fill="#ff975f"/></g><g id="g210" transform="matrix(0.764 0 0 0.764 73.65 25.619)"><path id="path212" d="m0 0 0.629 6.076 6.944-0.719-0.629-6.076-6.944 0.719z" fill="#ffd3b3"/></g><g id="g214" transform="matrix(0.764 0 0 0.764 78.883 25.322)"><path id="path216" d="m0 0s1.678-4.875-0.762-8.869c0 0-19.23-1.238-26.388 1.691 0 0 11.334 7.629 19.677 9.975l7.473-2.797z" fill="#bd062c"/></g><g id="g218" transform="matrix(0.764 0 0 0.764 70.178 26.078)"><path id="path220" d="m0 0c-0.701 0.795-2.203 1.285-2.927 0.328-0.062-0.084-0.052-0.224 0-0.31 0.359-0.586 0.92-0.965 1.339-1.514 0.677-0.889 0.818-2.01 1.024-3.068 0.247-1.28 2.303-0.977 2.252 0.304-0.062 1.563-0.654 3.088-1.688 4.26"/></g><g id="g222" transform="matrix(0.764 0 0 0.764 67.763 22.076)"><path id="path224" d="m0 0c-0.269 0.969-0.908 1.896-1.648 2.564-0.323 0.293-1.904 1.413-2.17 0.489-0.181-0.623 0.169-1.285 0.416-1.842 0.285-0.641 0.613-1.256 0.871-1.908 0.261-0.666 0.869-1.123 1.614-0.916 0.688 0.187 1.108 0.924 0.917 1.613"/></g><g id="g226" transform="matrix(0.764 0 0 0.764 135.72 80.978)"><path id="path228" d="m0 0-5.742-2.088-2.356 6.477 5.741 2.088 2.357-6.477z" fill="#ffd3b3"/></g><g id="g230" transform="matrix(0.764 0 0 0.764 131.75 85.802)"><path id="path232" d="m0 0s2.563 4.477 7.176 5.271c0 0 13.599-13.652 16.109-20.968 0 0-13.205 3.502-20.467 8.234l-2.818 7.463z" fill="#bd062c"/></g><g id="g234" transform="matrix(0.764 0 0 0.764 137.99 81.639)"><path id="path236" d="m0 0c-0.826-0.803-1.129-1.885-1.275-3.002-0.131-1.01-0.172-2.545 0.666-3.25 0.349-0.293 1.025-0.1 1.142 0.354 0.205 0.785-0.152 1.632-0.129 2.453 0.028 0.951 0.36 1.797 0.69 2.674 0.236 0.623-0.582 1.271-1.094 0.771"/></g><g id="g238" transform="matrix(0.764 0 0 0.764 140.85 79.211)"><path id="path240" d="m0 0c-1.117-0.812-1.617-2.76-1.551-4.064 0.057-1.114 1.717-0.928 1.867 0.066 0.092 0.602 0.116 1.182 0.289 1.769 0.165 0.553 0.442 1.055 0.528 1.631 0.097 0.645-0.676 0.928-1.133 0.598"/></g><g id="g242" transform="matrix(0.764 0 0 0.764 125.67 69.119)"><path id="path244" d="m0 0c-0.916 6.98-1.684 14-2.352 21.023-8.937 0.346-21.856 2.698-29.143 12.545l-41.351-22.416s-4.711-21.941-0.371-51.56c8.326-0.436 16.29 0.758 24.158 2.326l5.049 40.787s18.337-9.668 44.01-2.705" fill="#00afec"/></g><g id="g246" transform="matrix(0.764 0 0 0.764 130.96 86.615)"><path id="path248" d="m0 0s-4.734-0.682-11.331-0.426c0.778-8.174 1.67-16.342 2.737-24.465 3.821 1.036 7.772 2.37 11.846 4.104l-3.252 20.787z" fill="#0072bd"/></g><g id="g250" transform="matrix(0.764 0 0 0.764 68.042 39.671)"><path id="path252" d="m0 0c0.7-4.775 1.604-9.725 2.759-14.803 0 0 17.503 3.071 23.28 6.321 0.08 0.043 0.158 0.087 0.232 0.132l1.364 11.008c-9-1.793-18.11-3.158-27.635-2.658" fill="#0072bd"/></g><g id="g254" transform="matrix(0.764 0 0 0.764 54.414 108.51)"><path id="path256" d="m0 0-13.057-8.627s1.632-13.289 10.958-16.787l10.958 8.394 8.393-24.947s21.916-0.931 47.795 22.848l-14.921 24.014 13.988 1.398s0.467 10.959-5.362 18.652c0 0-26.112-3.73-58.752-24.945" fill="#0072bd"/></g><g id="g258" transform="matrix(0.764 0 0 0.764 -222.38 -31.126)"><g id="g266"><g id="g268" opacity=".60001" clip-path="url(#clipPath262)"><g id="g270" transform="translate(392.61 178.04)"><path id="path272" d="m0 0c-4.299 1.146-9.39 1.377-15.252-0.191 0 0 1.989-8.055 7.545-13.588 4.386 3.17 7.311 8.381 7.707 13.779" fill="#00afec"/></g></g></g></g><g id="g274" transform="matrix(0.764 0 0 0.764 -222.38 -31.126)"><g id="g282"><g id="g284" opacity=".60001" clip-path="url(#clipPath278)"><g id="g286" transform="translate(396.43 161.72)"><path id="path288" d="m0 0c-2.028 0-3.673 1.645-3.673 3.674s1.645 3.674 3.673 3.674c2.029 0 3.674-1.645 3.674-3.674s-1.645-3.674-3.674-3.674m11.91 2.986 1.232 0.493 6.18-0.7-4.949 4.887-2.709-2.217c-2.393 2.682-7.424 8.156-13.565 10.287-0.556-5.662-3.593-11.101-8.129-14.537 1.414-1.152 3.019-2.129 4.843-2.793 4.035-1.472 5.567-1.685 7.738-1.824l-0.688-2.426 5.965-5.392-2.568 6.586c1.779 0 3.337 2.025 3.337 2.025l5.743-1.748-4.12 4.162 1.69 3.197z" fill="#00afec"/></g></g></g></g><g id="g290" transform="matrix(0.764 0 0 0.764 83.692 152.89)"><path id="path292" d="m0 0s6.95-18.019 9.266-23.939c2.317-5.92-1.802-16.475-12.098-23.424-10.296-6.951-35.266-14.931-41.701-9.525s-12.098 10.039-12.098 10.039-6.435-3.088-12.098 3.603c-5.447 6.438-1.607 13.827 4.646 16.444 0.25 0.103 1.013 0.386 0.759 0.289-0.759-0.289-10.772 18.982 1.583 27.735 12.356 8.751 47.325 28.638 61.741-1.222" fill="#ffd3b3"/></g><g id="g294" transform="matrix(0.764 0 0 0.764 -222.38 -31.126)"><g id="g302"><g id="g304" opacity="0.2" clip-path="url(#clipPath298)"><g id="g306" transform="translate(356.62 189.06)"><path id="path308" d="m0 0c-4.216 5.375-8.63 11.143-11.376 17.422-5.166 11.81-0.483 24.127 10.284 29.211 8.394 3.963 16.786-3.031 33.806-0.699 8.348 1.143 8.496 8.762 10.959 4.896 1.92-3.017 4.284-10.547 5.994-13.728-2.705 6.988-5.676 14.69-5.676 14.69-14.416 29.86-49.385 9.974-61.741 1.222-12.346-8.746-2.357-27.994-1.584-27.735-0.146-0.052-0.58-0.215-0.758-0.289-6.253-2.617-10.093-10.006-4.646-16.443 5.663-6.692 12.098-3.604 12.098-3.604s5.663-4.632 12.098-10.039c1.673-1.404 4.603-1.898 8.194-1.748-2.942 1.629-5.481 4.076-7.652 6.844" fill="#ffd3b3"/></g></g></g></g><g id="g310" transform="matrix(0.764 0 0 0.764 86.364 134.56)"><path id="path312" d="m0 0s-12.916-21.381-38.029-13.059c0 0-0.287 0.862 1.292 3.446 0 0-3.587-1.436-3.874-5.598s1.146-5.023 1.146-5.023-0.286 5.597 1.149 5.023 26.836-10.764 38.316 15.211" fill="#ff975f"/></g><g id="g314" transform="matrix(0.764 0 0 0.764 55.033 132.61)"><path id="path316" d="m0 0c1.408 0.865 3.146 1.326 4.605 0.982 0.165 0.895 0.018 1.961-0.482 2.981-0.978 1.992-2.926 3.039-4.349 2.34-1.422-0.698-1.782-2.879-0.803-4.871 0.275-0.563 0.633-1.037 1.029-1.432" fill="#383838"/></g><g id="g318" transform="matrix(0.764 0 0 0.764 57.689 136.06)"><path id="path320" d="m0 0c0.469-0.961 0.301-2.008-0.376-2.338-0.677-0.332-1.606 0.182-2.075 1.143s-0.301 2.007 0.377 2.338c0.676 0.332 1.605-0.182 2.074-1.143" fill="#fff"/></g><g id="g322" transform="matrix(0.764 0 0 0.764 -222.38 -31.126)"><g id="g330"><g id="g332" opacity=".10001" clip-path="url(#clipPath326)"><g id="g334" transform="translate(374.91 211.52)"><path id="path336" d="m0 0c0.393-2.633-3.12-5.338-7.847-6.043-4.726-0.707-8.876 0.857-9.268 3.49-0.393 2.633 3.12 5.338 7.846 6.043 4.726 0.707 8.876-0.857 9.269-3.49" fill="#ff975f"/></g></g></g></g><g id="g338" transform="matrix(0.764 0 0 0.764 50.708 129.52)"><path id="path340" d="m0 0s6.154 6.369 15.652 3.572c0 0-6.915 6.338-15.652-3.572" fill="#ff975f"/></g><g id="g342" transform="matrix(0.764 0 0 0.764 79.675 141.84)"><path id="path344" d="m0 0c-1.452-0.374-2.857-1.25-3.568-2.48-0.678 0.496-1.268 1.321-1.603 2.357-0.653 2.024-0.084 4.069 1.273 4.567 1.355 0.497 2.982-0.74 3.636-2.766 0.185-0.57 0.262-1.138 0.262-1.678" fill="#383838"/></g><g id="g346" transform="matrix(0.764 0 0 0.764 77.123 143.16)"><path id="path348" d="m0 0c0.317-0.975 1.097-1.572 1.739-1.333 0.644 0.238 0.907 1.221 0.591 2.197-0.317 0.975-1.097 1.572-1.739 1.334-0.645-0.238-0.908-1.223-0.591-2.198" fill="#fff"/></g><g id="g350" transform="matrix(0.764 0 0 0.764 -222.38 -31.126)"><g id="g358"><g id="g360" opacity=".10001" clip-path="url(#clipPath354)"><g id="g362" transform="translate(390.48 217.72)"><path id="path364" d="m0 0c1.438-2.061 5.861-1.605 9.328 1.148 3.468 2.754 4.452 5.545 3.014 7.606-1.438 2.06-6.171 2.009-8.668-0.037-3.425-2.805-5.112-6.656-3.674-8.717" fill="#ff975f"/></g></g></g></g><g id="g366" transform="matrix(0.764 0 0 0.764 83.884 142.83)"><path id="path368" d="m0 0s-7.308-0.049-11.247-8.824c0 0 2.124 11.127 11.247 8.824" fill="#ff975f"/></g><g id="g370" transform="matrix(0.764 0 0 0.764 29.655 146.1)"><path id="path372" d="m0 0s-3.264 6.062 1.399 13.522 7.46 9.559 7.46 9.559l-2.098-8.626s6.296 11.89 21.916 14.455c15.62 2.564 27.511-1.4 33.572 0.932 6.062 2.332 7.927 4.896 7.927 4.896s0.234-6.994-2.565-9.326c-2.798-2.331 7.461 1.399 7.461 1.399s-2.332-18.418-21.449-21.449c-19.118-3.03-27.977 5.829-34.971-7.227-0.493-0.92-0.933-0.467-0.933-0.467s5.363-9.792-1.632-20.749c0 0-6.295 6.295-11.657 3.497 0 0-5.595 0.466-9.093 7.927-3.497 7.46 4.663 11.657 4.663 11.657" fill="#ffba06"/></g><g id="g374" transform="matrix(0.764 0 0 0.764 -222.38 -31.126)"><g id="g382"><g id="g384" opacity=".5" clip-path="url(#clipPath378)"><g id="g386" transform="translate(337.82 205.93)"><path id="path388" d="m0 0c-2.609 1.17-0.781-6.383 0.125-7.148 1.703-1.436 5.024-0.92 5.287 0.89 0.312 2.147-2.683 5.035-5.412 6.258" fill="#ffd3b3"/></g></g></g></g></g></svg>
