<?xml version="1.0" encoding="UTF-8" standalone="no"?>
<!-- Created with Inkscape (http://www.inkscape.org/) -->
<svg id="svg2" xmlns:rdf="http://www.w3.org/1999/02/22-rdf-syntax-ns#" xmlns="http://www.w3.org/2000/svg" xml:space="preserve" height="66mm" viewBox="0 0 194.88189 233.8582" width="55mm" version="1.1" xmlns:cc="http://creativecommons.org/ns#" xmlns:dc="http://purl.org/dc/elements/1.1/"><metadata id="metadata8"><rdf:RDF><cc:Work rdf:about=""><dc:format>image/svg+xml</dc:format><dc:type rdf:resource="http://purl.org/dc/dcmitype/StillImage"/><dc:title/></cc:Work></rdf:RDF></metadata><defs id="defs6"><clipPath id="clipPath1394" clipPathUnits="userSpaceOnUse"><path id="path1396" d="m483.51 491.76h217.12v-76.981h-217.12v76.981z"/></clipPath><clipPath id="clipPath1518" clipPathUnits="userSpaceOnUse"><path id="path1520" d="m524.83 617.05h134.48v-134.48h-134.48v134.48z"/></clipPath><clipPath id="clipPath1534" clipPathUnits="userSpaceOnUse"><path id="path1536" d="m536.25 620.6h108.29v-120.99h-108.29v120.99z"/></clipPath><clipPath id="clipPath1622" clipPathUnits="userSpaceOnUse"><path id="path1624" d="m556.12 728.57h74.462v-61h-74.462v61z"/></clipPath><clipPath id="clipPath1654" clipPathUnits="userSpaceOnUse"><path id="path1656" d="m534.22 671.18h39.062v-27.185h-39.062v27.185z"/></clipPath><clipPath id="clipPath1670" clipPathUnits="userSpaceOnUse"><path id="path1672" d="m614.1 671.18h39.062v-27.185h-39.062v27.185z"/></clipPath><clipPath id="clipPath1690" clipPathUnits="userSpaceOnUse"><path id="path1692" d="m540.32 652.24c0-8.911 7.225-17.638 16.136-17.638 8.912 0 16.137 5.722 16.137 14.635 0 8.912-7.225 14.637-16.137 14.637-8.911 0-16.136-2.722-16.136-11.634"/></clipPath><clipPath id="clipPath1714" clipPathUnits="userSpaceOnUse"><path id="path1716" d="m0 800h800v-800h-800v800z"/></clipPath><clipPath id="clipPath1726" clipPathUnits="userSpaceOnUse"><path id="path1728" d="m614.1 649.23c0-8.913 7.225-14.635 16.136-14.635 8.912 0 16.137 8.727 16.137 17.638 0 8.912-7.225 11.634-16.137 11.634-8.911 0-16.136-5.725-16.136-14.637"/></clipPath><clipPath id="clipPath1750" clipPathUnits="userSpaceOnUse"><path id="path1752" d="m0 800h800v-800h-800v800z"/></clipPath><clipPath id="clipPath1758" clipPathUnits="userSpaceOnUse"><path id="path1760" d="m561.58 655.31h10v-10h-10v10z"/></clipPath><clipPath id="clipPath1774" clipPathUnits="userSpaceOnUse"><path id="path1776" d="m629.92 655.31h10v-10h-10v10z"/></clipPath></defs><g id="g10" transform="matrix(1.25 0 0 -1.25 0 233.86)"><g id="g1390" transform="matrix(.39776 0 0 .34982 -154.02 -116.2)"><g id="g1398"><g id="g1400" clip-path="url(#clipPath1394)"><g id="g1402" transform="translate(700.63 453.27)"><path id="path1404" d="m0 0c0-21.258-48.605-38.49-108.56-38.49-59.957 0-108.56 17.232-108.56 38.49s48.605 38.491 108.56 38.491 108.56-17.233 108.56-38.491" fill="#e8f3fc"/></g></g></g></g><g id="g1406" transform="matrix(.39776 0 0 .34982 60.103 139.45)"><path id="path1408" d="m0 0c0-9.401-7.621-17.023-17.023-17.023-9.401 0-17.023 7.622-17.023 17.023s7.622 17.023 17.023 17.023c9.402 0 17.023-7.622 17.023-17.023" fill="#fccbb9"/></g><g id="g1410" transform="matrix(.39776 0 0 .34982 60.208 140.81)"><path id="path1412" d="m0 0c3.973-5.733 4.237-12.509-3.114-17.603-7.35-5.093-16.53-4.575-20.503 1.158s-1.235 14.51 6.116 19.603c7.35 5.094 13.528 2.575 17.501-3.158" fill="#fccbb9"/></g><g id="g1414" transform="matrix(.39776 0 0 .34982 56.109 146.98)"><path id="path1416" d="m0 0c0-7.84-2.866-14.196-6.401-14.196-3.536 0-6.402 6.356-6.402 14.196s2.866 14.196 6.402 14.196c3.535 0 6.401-6.356 6.401-14.196" fill="#fccbb9"/></g><g id="g1418" transform="matrix(.39776 0 0 .34982 50.481 145.11)"><path id="path1420" d="m0 0c4.466-6.444 5.73-13.301 2.825-15.314-2.906-2.014-8.882 1.577-13.348 8.022-4.466 6.444-5.73 13.3-2.825 15.314 2.906 2.014 8.882-1.578 13.348-8.022" fill="#fccbb9"/></g><g id="g1422" transform="matrix(.39776 0 0 .34982 48.868 142.53)"><path id="path1424" d="m0 0c7.7-1.477 13.402-5.489 12.736-8.961s-7.448-5.089-15.148-3.612c-7.7 1.476-13.402 5.488-12.736 8.96s7.448 5.09 15.148 3.613" fill="#fccbb9"/></g><g id="g1426" transform="matrix(.39776 0 0 .34982 57.042 145.81)"><path id="path1428" d="m0 0c-4.466-6.444-5.731-13.301-2.825-15.314 2.906-2.014 8.882 1.577 13.348 8.022 4.466 6.444 5.73 13.3 2.824 15.314-2.905 2.014-8.881-1.578-13.347-8.022" fill="#fccbb9"/></g><g id="g1430" transform="matrix(.39776 0 0 .34982 60.768 140.45)"><path id="path1432" d="m0 0c-7.763-1.098-13.655-4.826-13.16-8.327 0.496-3.5 7.19-5.448 14.953-4.349 7.763 1.098 13.655 4.826 13.16 8.326-0.495 3.501-7.19 5.448-14.953 4.35" fill="#fccbb9"/></g><g id="g1434" transform="matrix(.39776 0 0 .34982 101.37 139.45)"><path id="path1436" d="m0 0c0-9.401 7.622-17.023 17.023-17.023 9.402 0 17.023 7.622 17.023 17.023s-7.621 17.023-17.023 17.023c-9.401 0-17.023-7.622-17.023-17.023" fill="#fccbb9"/></g><g id="g1438" transform="matrix(.39776 0 0 .34982 101.27 140.81)"><path id="path1440" d="m0 0c-3.973-5.733-4.237-12.509 3.114-17.603 7.35-5.093 16.53-4.575 20.503 1.158s1.235 14.51-6.116 19.603c-7.35 5.094-13.528 2.575-17.501-3.158" fill="#fccbb9"/></g><g id="g1442" transform="matrix(.39776 0 0 .34982 105.37 146.98)"><path id="path1444" d="m0 0c0-7.84 2.866-14.196 6.401-14.196 3.536 0 6.402 6.356 6.402 14.196s-2.866 14.196-6.402 14.196c-3.535 0-6.401-6.356-6.401-14.196" fill="#fccbb9"/></g><g id="g1446" transform="matrix(.39776 0 0 .34982 110.99 145.11)"><path id="path1448" d="m0 0c-4.466-6.444-5.73-13.301-2.825-15.314 2.906-2.014 8.882 1.577 13.348 8.022 4.466 6.444 5.73 13.3 2.824 15.314-2.905 2.014-8.881-1.578-13.347-8.022" fill="#fccbb9"/></g><g id="g1450" transform="matrix(.39776 0 0 .34982 112.61 142.53)"><path id="path1452" d="m0 0c-7.7-1.477-13.402-5.489-12.736-8.961s7.448-5.089 15.148-3.612c7.7 1.476 13.402 5.488 12.736 8.96s-7.448 5.09-15.148 3.613" fill="#fccbb9"/></g><g id="g1454" transform="matrix(.39776 0 0 .34982 104.43 145.81)"><path id="path1456" d="m0 0c4.466-6.444 5.73-13.301 2.825-15.314-2.906-2.014-8.882 1.577-13.348 8.022-4.466 6.444-5.73 13.3-2.825 15.314 2.906 2.014 8.882-1.578 13.348-8.022" fill="#fccbb9"/></g><g id="g1458" transform="matrix(.39776 0 0 .34982 100.71 140.45)"><path id="path1460" d="m0 0c7.763-1.098 13.655-4.826 13.16-8.327-0.496-3.5-7.19-5.448-14.953-4.349-7.763 1.098-13.655 4.826-13.16 8.326 0.495 3.501 7.19 5.448 14.953 4.35" fill="#fccbb9"/></g><g id="g1462" transform="matrix(.39776 0 0 .34982 54.434 82.051)"><path id="path1464" d="m0 0c8.227-7.883 19.38-2.724 26.005 6.672s7.829 21.018 3.853 30.805c-5.146 12.667-8.635 23.556-10.977 33.499l-48.183-27.725c6.235-15.787 16.041-30.544 29.302-43.251" fill="#f9e8a2"/></g><g id="g1466" transform="matrix(.39776 0 0 .34982 60.728 134.75)"><path id="path1468" d="m0 0c-11.709-2.382-22.316-2.428-33.514 0.277-13.614-21.051-20.07-44.345-19.676-67.281l51.91 24.037c-0.166 13.14 0.79 26.573 1.28 42.967" fill="#bfaeed"/></g><g id="g1470" transform="matrix(.39776 0 0 .34982 42.779 97.181)"><path id="path1472" d="m0 0 48.183 27.725c-1.407 5.975-2.392 11.605-3.068 17.067l-51.046-24.53c1.348-6.884 3.325-13.663 5.931-20.262" fill="#bfaeed"/></g><g id="g1474" transform="matrix(.39776 0 0 .34982 94.994 95.161)"><path id="path1476" d="m0 0c-3.976-9.787-2.771-21.409 3.853-30.805 6.625-9.396 17.778-14.555 26.005-6.672 12.635 12.106 22.131 26.074 28.393 41.02l-47.861 27.539c-2.327-9.289-5.657-19.433-10.39-31.082" fill="#f9e8a2"/></g><g id="g1478" transform="matrix(.39776 0 0 .34982 113.91 134.85)"><path id="path1480" d="m0 0c-11.198-2.705-21.805-2.659-33.514-0.277 0.498-16.672 1.478-30.281 1.27-43.634l51.875-25.091c0.755 23.49-5.676 47.424-19.631 69.002" fill="#bfaeed"/></g><g id="g1482" transform="matrix(.39776 0 0 .34982 99.127 106.03)"><path id="path1484" d="m0 0 47.861-27.539c2.521 6.018 4.504 12.197 5.969 18.475l-50.419 26.668c-0.764-5.611-1.861-11.415-3.411-17.604" fill="#bfaeed"/></g><g id="g1486" transform="matrix(.39776 0 0 .34982 39.571 111.31)"><path id="path1488" d="m0 0c0.116-6.764 0.833-13.496 2.133-20.131l51.046 24.531c-0.827 6.689-1.187 13.128-1.269 19.637l-51.91-24.037z" fill="#f9e8a2"/></g><g id="g1490" transform="matrix(.39776 0 0 .34982 101.08 119.49)"><path id="path1492" d="m0 0c-0.107-6.889-0.533-13.713-1.504-20.851l50.42-26.668c1.719 7.369 2.716 14.875 2.959 22.428l-51.875 25.091z" fill="#f9e8a2"/></g><g id="g1494" transform="matrix(.39776 0 0 .34982 40.717 55.828)"><path id="path1496" d="m0 0c-26.686-15.208-43.251-36.4-43.251-59.846 0-0.071 0-0.142 0.001-0.213 0.036-8.597 9.728-13.585 16.9-8.845 8.785 5.806 20.682 10.934 34.886 15.12-5.899 12.863-9.193 27.171-9.193 42.249 0 3.901 0.228 7.749 0.657 11.535" fill="#d96e9f"/></g><g id="g1498" transform="matrix(.39776 0 0 .34982 120.91 55.828)"><path id="path1500" d="m0 0c0.429-3.787 0.657-7.634 0.657-11.535 0-15.078-3.294-29.386-9.193-42.249 14.204-4.186 26.101-9.315 34.886-15.12 7.172-4.74 16.864 0.248 16.9 8.845 0.001 0.071 0.001 0.142 0.001 0.212 0 23.447-16.565 44.639-43.251 59.847" fill="#d96e9f"/></g><g id="g1502" transform="matrix(.39776 0 0 .34982 120.91 55.828)"><path id="path1504" d="m0 0c-9.877 5.629-21.147 10.431-33.471 14.23-11.701-31.953-38.198-54.255-69.019-54.255-30.507 0-56.782 21.851-68.66 53.284-11.15-3.638-21.4-8.093-30.47-13.259-0.429-3.787-0.657-7.634-0.657-11.535 0-15.078 3.294-29.386 9.193-42.249 24.994 7.365 57.159 11.803 92.272 11.803s67.278-4.438 92.272-11.803c5.899 12.863 9.192 27.171 9.192 42.249 0.006 3.901-0.221 7.748-0.65 11.535" fill="#bb688e"/></g><g id="g1506" transform="matrix(.39776 0 0 .34982 80.146 41.827)"><path id="path1508" d="m0 0c30.82 0 57.318 22.303 69.018 54.256-20.096 6.194-43.007 9.71-67.336 9.71-25.557 0-49.535-3.892-70.342-10.682 11.878-31.433 38.152-53.284 68.66-53.284" fill="#9e5076"/></g><g id="g1510" transform="matrix(.39776 0 0 .34982 108.04 69.869)"><path id="path1512" d="m0 0c0-42.943-30.64-50.739-68.437-50.739-37.796 0-68.437 7.796-68.437 50.739s30.641 85.76 68.437 85.76c37.793 0 68.433-42.817 68.433-85.76" fill="#f9e8a2"/></g><g id="g1514" transform="matrix(.39776 0 0 .34982 -154.02 -116.2)"><g id="g1522"><g id="g1524" opacity="0.3" clip-path="url(#clipPath1518)"><g id="g1526" transform="translate(524.83 558.68)"><path id="path1528" d="m0 0c0-37.137 30.105-76.117 67.242-76.117 37.136 0 67.242 38.98 67.242 76.117s-30.106 58.366-67.242 58.366c-37.133 0-67.238-21.229-67.238-58.366" fill="#97cad3"/></g></g></g></g><g id="g1530" transform="matrix(.39776 0 0 .34982 -154.02 -116.2)"><g id="g1538"><g id="g1540" clip-path="url(#clipPath1534)"><g id="g1542" transform="translate(644.53 560.11)"><path id="path1544" d="m0 0c0-33.41-24.241-60.495-54.143-60.495-29.903 0-54.144 27.085-54.144 60.495 0 33.411 24.241 60.495 54.144 60.495 29.905 0 54.146-27.084 54.146-60.495" fill="#f9e8a2"/></g></g></g></g><g id="g1546" transform="matrix(.39776 0 0 .34982 102.65 80.669)"><path id="path1548" d="m0 0c0-30.313-24.574-54.887-54.887-54.887s-54.886 24.574-54.886 54.887 24.573 54.887 54.886 54.887c30.31 0 54.884-24.574 54.884-54.887" fill="#fff"/></g><g id="g1550" transform="matrix(.39776 0 0 .34982 15.152 40.836)"><path id="path1552" d="m0 0c-5.655 21.592-7.406 38.92 7.461 42.814 14.867 3.893 33.61-0.981 43.474-38.65 5.655-21.592-3.203-33.442-18.07-37.335s-27.21 11.579-32.865 33.171" fill="#ffa7a0"/></g><g id="g1554" transform="matrix(.39776 0 0 .34982 30.81 44.122)"><path id="path1556" d="m0 0c5.655-21.592 7.406-38.921-7.461-42.814s-34.713 8.696-40.367 30.289c-5.655 21.592 0.096 41.802 14.963 45.696 14.867 3.893 27.21-11.579 32.865-33.171" fill="#f5efec"/></g><g id="g1558" transform="matrix(.39776 0 0 .34982 25.614 30.14)"><path id="path1560" d="m0 0c-11.753 0-26.686 10.601-31.332 28.341-2.612 9.975-2.705 19.749-0.261 27.523 1.643 5.229 5.179 11.875 12.691 13.842 1.23 0.323 2.463 0.486 3.664 0.486 10.156 0 19.918-12.216 24.87-31.123 3.254-12.424 4.446-20.693 3.865-26.81-0.631-6.645-3.343-10.245-8.793-11.673-1.487-0.389-3.069-0.586-4.704-0.586" fill="#d5cac7"/></g><g id="g1562" transform="matrix(.39776 0 0 .34982 146.48 40.836)"><path id="path1564" d="m0 0c5.655 21.592 7.406 38.92-7.461 42.814-14.867 3.893-33.61-0.981-43.474-38.65-5.655-21.592 3.203-33.442 18.07-37.335s27.21 11.579 32.865 33.171" fill="#ffa7a0"/></g><g id="g1566" transform="matrix(.39776 0 0 .34982 130.82 44.122)"><path id="path1568" d="m0 0c-5.655-21.592-7.406-38.921 7.461-42.814s34.713 8.696 40.367 30.289c5.655 21.592-0.096 41.802-14.963 45.696-14.867 3.893-27.21-11.579-32.865-33.171" fill="#f5efec"/></g><g id="g1570" transform="matrix(.39776 0 0 .34982 136.02 30.14)"><path id="path1572" d="m0 0c11.753 0 26.686 10.601 31.332 28.341 2.612 9.975 2.705 19.749 0.261 27.523-1.643 5.229-5.179 11.875-12.691 13.842-1.23 0.323-2.463 0.486-3.664 0.486-10.156 0-19.918-12.216-24.87-31.123-3.254-12.424-4.446-20.693-3.865-26.81 0.631-6.645 3.343-10.245 8.792-11.673 1.488-0.389 3.07-0.586 4.705-0.586" fill="#d5cac7"/></g><g id="g1574" transform="matrix(.39776 0 0 .34982 99.482 94.67)"><path id="path1576" d="m0 0c0-21.178-21.012-38.345-46.931-38.345s-46.93 17.167-46.93 38.345 21.011 38.345 46.93 38.345 46.931-17.167 46.931-38.345" fill="#efefef"/></g><g id="g1578" transform="matrix(.39776 0 0 .34982 54.167 99.959)"><path id="path1580" d="m0 0c2.944-4.8 2.984-11.236 0.1-16.073-2.884-4.836-8.566-7.86-14.188-7.552 5.299-2.674 10.866-5.142 16.786-5.576 5.921-0.434 12.318 1.51 15.887 6.252 3.57 4.743 3.204 12.458-1.653 15.872" fill="#da7d14"/></g><g id="g1582" transform="matrix(.39776 0 0 .34982 108.24 99.959)"><path id="path1584" d="m0 0c-2.944-4.8-2.984-11.236-0.1-16.073 2.884-4.836 8.566-7.86 14.188-7.552-5.3-2.674-10.866-5.142-16.786-5.576-5.921-0.434-12.318 1.51-15.888 6.252-3.569 4.743-3.203 12.458 1.654 15.872" fill="#da7d14"/></g><g id="g1586" transform="matrix(.39776 0 0 .34982 120.2 111.89)"><path id="path1588" d="m0 0c0-10.594-8.588-19.182-19.182-19.182-10.593 0-19.181 8.588-19.181 19.182s8.588 19.182 19.181 19.182c10.594 0 19.182-8.588 19.182-19.182" fill="#fccbb9"/></g><g id="g1590" transform="matrix(.39776 0 0 .34982 116.63 111.89)"><path id="path1592" d="m0 0c0-6.614-5.361-11.975-11.975-11.975-6.613 0-11.975 5.361-11.975 11.975 0 6.613 5.362 11.975 11.975 11.975 6.614 0 11.975-5.362 11.975-11.975" fill="#fb9f79"/></g><g id="g1594" transform="matrix(.39776 0 0 .34982 43.784 111.89)"><path id="path1596" d="m0 0c0-10.594 8.588-19.182 19.182-19.182 10.593 0 19.181 8.588 19.181 19.182s-8.588 19.182-19.181 19.182c-10.594 0-19.182-8.588-19.182-19.182" fill="#fccbb9"/></g><g id="g1598" transform="matrix(.39776 0 0 .34982 47.357 111.89)"><path id="path1600" d="m0 0c0-6.614 5.361-11.975 11.975-11.975 6.613 0 11.975 5.361 11.975 11.975 0 6.613-5.362 11.975-11.975 11.975-6.614 0-11.975-5.362-11.975-11.975" fill="#fb9f79"/></g><g id="g1602" transform="matrix(.39776 0 0 .34982 112.22 117.39)"><path id="path1604" d="m0 0c0-41.978-34.03-76.008-76.008-76.008-41.979 0-76.009 34.03-76.009 76.008s34.03 76.008 76.009 76.008c41.981 0 76.011-34.03 76.011-76.008" fill="#da7d14"/></g><g id="g1606" transform="matrix(.39776 0 0 .34982 110.8 111.95)"><path id="path1608" d="m0 0c0-43.221-27.276-69.329-72.431-69.329s-72.432 26.108-72.432 69.329 27.277 78.258 72.432 78.258c45.152 0 72.428-35.037 72.428-78.258" fill="#fccbb9"/></g><g id="g1610" transform="matrix(.39776 0 0 .34982 88.759 106.47)"><path id="path1612" d="m0 0c0-24.766-20.975-44.843-46.849-44.843-25.875 0-46.85 20.077-46.85 44.843s20.975 44.843 46.85 44.843c25.874 0 46.849-20.077 46.849-44.843" fill="#fccbb9"/></g><g id="g1614" transform="matrix(.39776 0 0 .34982 112.49 106.47)"><path id="path1616" d="m0 0c0-24.766-20.975-44.843-46.849-44.843-25.875 0-46.85 20.077-46.85 44.843s20.975 44.843 46.85 44.843c25.874 0 46.849-20.077 46.849-44.843" fill="#fccbb9"/></g><g id="g1618" transform="matrix(.39776 0 0 .34982 -154.02 -116.2)"><g id="g1626"><g id="g1628" opacity="0.8" clip-path="url(#clipPath1622)"><g id="g1630" transform="translate(556.12 702.66)"><path id="path1632" d="m0 0c0-19.378 16.669-35.087 37.231-35.087 20.561 0 37.23 15.709 37.23 35.087s-16.669 25.913-37.23 25.913c-20.562 0-37.231-6.535-37.231-25.913" fill="#ffd7ca"/></g></g></g></g><g id="g1634" transform="matrix(.39776 0 0 .34982 81.991 103.88)"><path id="path1636" d="m0 0c-3.526 0-6.496 2.359-7.432 5.584-0.199-0.686-0.311-1.409-0.311-2.16 0-4.276 3.466-7.743 7.743-7.743s7.743 3.467 7.743 7.743c0 0.751-0.112 1.474-0.311 2.16-0.936-3.225-3.906-5.584-7.432-5.584" fill="#fb9f79"/></g><g id="g1638" transform="matrix(.39776 0 0 .34982 83.923 106.3)"><path id="path1640" d="m0 0c0-2.622-2.126-4.748-4.748-4.748-2.623 0-4.749 2.126-4.749 4.748s2.126 4.748 4.749 4.748c2.622 0 4.748-2.126 4.748-4.748" fill="#ffe4dc"/></g><g id="g1642" transform="matrix(.39776 0 0 .34982 62.01 126.16)"><path id="path1644" d="m0 0c4.063 4.179 13.142 7.368 20.146 7.076 0.95 1.12 0.501 2.583-0.836 3.127-1.336 0.544-3.348 0.579-5.357 0.333-3.961-0.486-8.13-2.061-10.87-4.108-2.74-2.046-3.828-4.511-3.083-6.428" fill="#da7d14"/></g><g id="g1646" transform="matrix(.39776 0 0 .34982 101.97 126.16)"><path id="path1648" d="m0 0c-4.063 4.179-13.142 7.368-20.146 7.076-0.95 1.12-0.501 2.583 0.836 3.127 1.336 0.544 3.348 0.579 5.357 0.333 3.962-0.486 8.13-2.061 10.87-4.108 2.74-2.046 3.828-4.511 3.083-6.428" fill="#da7d14"/></g><g id="g1650" transform="matrix(.39776 0 0 .34982 -154.02 -116.2)"><g id="g1658"><g id="g1660" opacity=".39999" clip-path="url(#clipPath1654)"><g id="g1662" transform="translate(573.28 654.66)"><path id="path1664" d="m0 0c0-10.787-8.744-10.655-19.531-10.655s-19.531-0.132-19.531 10.655 8.744 16.529 19.531 16.529 19.531-5.742 19.531-16.529" fill="#f9bead"/></g></g></g></g><g id="g1666" transform="matrix(.39776 0 0 .34982 -154.02 -116.2)"><g id="g1674"><g id="g1676" opacity=".39999" clip-path="url(#clipPath1670)"><g id="g1678" transform="translate(653.17 654.66)"><path id="path1680" d="m0 0c0-10.787-8.744-10.655-19.531-10.655s-19.531-0.132-19.531 10.655 8.744 16.529 19.531 16.529 19.531-5.742 19.531-16.529" fill="#f9bead"/></g></g></g></g><g id="g1682" transform="matrix(.39776 0 0 .34982 73.428 111.73)"><path id="path1684" d="m0 0c0-8.912-7.224-14.635-16.136-14.635s-17.138 8.727-17.138 17.639 8.226 11.633 17.138 11.633 16.136-5.725 16.136-14.637"/></g><g id="g1686" transform="matrix(.39776 0 0 .34982 -154.02 -116.2)"><g id="g1688" clip-path="url(#clipPath1690)"><g id="g1694" transform="translate(572.6 649.23)"><path id="path1696" d="m0 0c0-8.912-7.225-14.634-16.136-14.634-8.912 0-16.137 8.726-16.137 17.638s7.225 11.633 16.137 11.633c8.911 0 16.136-5.725 16.136-14.637" fill="#faf1f0"/></g><g id="g1698" transform="translate(545.53 652.35)"><path id="path1700" d="m0 0c0-7.668 6.216-13.885 13.885-13.885 7.668 0 13.885 6.217 13.885 13.885s-6.217 13.885-13.885 13.885c-7.669 0-13.885-6.217-13.885-13.885" fill="#235382"/></g><g id="g1702" transform="translate(550.41 652.35)"><path id="path1704" d="m0 0c0-4.974 4.032-9.006 9.006-9.006s9.007 4.032 9.007 9.006-4.033 9.006-9.007 9.006-9.006-4.032-9.006-9.006"/></g><g id="g1706" transform="translate(562.6 655.54)"><path id="path1708" d="m0 0c0-3.316-2.688-6.004-6.004-6.004s-6.004 2.688-6.004 6.004 2.688 6.004 6.004 6.004 6.004-2.688 6.004-6.004" fill="#fff"/></g></g></g><g id="g1710" transform="matrix(.39776 0 0 .34982 -154.02 -116.2)"><g id="g1712" clip-path="url(#clipPath1714)"><g id="g1718" transform="translate(614.88 651.55)"><path id="path1720" d="m0 0c0-8.912 7.225-14.635 16.137-14.635s17.137 8.727 17.137 17.639-8.225 11.633-17.137 11.633-16.137-5.725-16.137-14.637"/></g></g></g><g id="g1722" transform="matrix(.39776 0 0 .34982 -154.02 -116.2)"><g id="g1724" clip-path="url(#clipPath1726)"><g id="g1730" transform="translate(614.1 649.23)"><path id="path1732" d="m0 0c0-8.912 7.225-14.634 16.137-14.634s16.136 8.726 16.136 17.638-7.224 11.633-16.136 11.633-16.137-5.725-16.137-14.637" fill="#faf1f0"/></g><g id="g1734" transform="translate(641.17 652.35)"><path id="path1736" d="m0 0c0-7.668-6.216-13.885-13.885-13.885-7.668 0-13.885 6.217-13.885 13.885s6.217 13.885 13.885 13.885c7.669 0 13.885-6.217 13.885-13.885" fill="#235382"/></g><g id="g1738" transform="translate(636.29 652.35)"><path id="path1740" d="m0 0c0-4.974-4.032-9.006-9.006-9.006-4.975 0-9.007 4.032-9.007 9.006s4.032 9.006 9.007 9.006c4.974 0 9.006-4.032 9.006-9.006"/></g><g id="g1742" transform="translate(624.1 655.54)"><path id="path1744" d="m0 0c0-3.316 2.688-6.004 6.004-6.004s6.005 2.688 6.005 6.004-2.689 6.004-6.005 6.004-6.004-2.688-6.004-6.004" fill="#fff"/></g></g></g><g id="g1746" transform="matrix(.39776 0 0 .34982 -154.02 -116.2)"><g id="g1748" clip-path="url(#clipPath1750)"><g id="g1754"><g id="g1762"><g id="g1764" clip-path="url(#clipPath1758)"><g id="g1766" transform="translate(570.11 653.84)"><path id="path1768" d="m0 0c1.953-1.953 1.953-5.118 0-7.071s-5.118-1.953-7.071 0-1.953 5.118 0 7.071 5.118 1.953 7.071 0" fill="#235382"/></g></g></g></g><g id="g1770"><g id="g1778"><g id="g1780" clip-path="url(#clipPath1774)"><g id="g1782" transform="translate(638.45 653.84)"><path id="path1784" d="m0 0c1.953-1.953 1.953-5.118 0-7.071s-5.118-1.953-7.071 0-1.953 5.118 0 7.071 5.118 1.953 7.071 0" fill="#235382"/></g></g></g></g><g id="g1786" transform="translate(584.26 618.77)"><path id="path1788" d="m0 0c-2.822-10.398-19.406-14.947-37.041-10.161-17.636 4.786-29.645 17.094-26.823 27.492s19.406 14.947 37.041 10.161c17.636-4.785 29.645-17.094 26.823-27.492" fill="#fccbb9"/></g><g id="g1790" transform="translate(602.44 618.77)"><path id="path1792" d="m0 0c2.822-10.398 19.406-14.947 37.041-10.161 17.636 4.786 29.645 17.094 26.823 27.492s-19.406 14.947-37.041 10.161c-17.636-4.785-29.645-17.094-26.823-27.492" fill="#fccbb9"/></g><g id="g1794" transform="translate(558.31 628.4)"><path id="path1796" d="m0 0c-1.5-7.822-9.967-12.772-18.91-11.057-8.944 1.716-14.978 9.447-13.478 17.269s9.967 12.772 18.91 11.057c8.944-1.715 14.978-9.447 13.478-17.269" fill="#ffa79b"/></g><g id="g1798" transform="translate(628.39 628.4)"><path id="path1800" d="m0 0c1.5-7.822 9.967-12.772 18.91-11.057 8.944 1.716 14.978 9.447 13.478 17.269s-9.967 12.772-18.91 11.057c-8.944-1.715-14.978-9.447-13.478-17.269" fill="#ffa79b"/></g><g id="g1802" transform="translate(562.38 736.52)"><path id="path1804" d="m0 0c0.799-9.258 7.412-17.759 16.189-20.811 4.392-1.527 9.117-1.759 13.658-2.759s9.199-3.013 11.656-6.961c2.456-3.948 1.578-10.131-2.677-12.005 7.513 0.963 12.135 5.342 14.982 12.362 2.847 7.019 1.615 15.531-3.106 21.456-3.821 4.796-9.593 7.768-15.577 9.106-8.026 1.794-16.647 0.798-24.051-2.779" fill="#da7d14"/></g><g id="g1806" transform="translate(617.05 735.23)"><path id="path1808" d="m0 0c1.881 0.193 3.728 0.537 5.518 1.12 3.12 1.018 6.247 2.964 7.275 6.079 1.181 3.577 0.708 7.41-1.149 10.687 0.271-3.325-2.583-6.207-5.721-7.342-3.137-1.135-6.565-1.012-9.884-1.343-8.605-0.859-16.844-4.979-22.694-11.348 8.102 3.682 18.235 1.988 26.862 1.705 4.295-0.141 8.603 0.047 12.802-0.992 4.872-1.205 9.338-3.708 14.358-4.385 4.454-0.6 9.094 0.273 13.024 2.451 1.915-5.456-1.606-10.828-7.093-12.655-5.762-1.918-11.943 1.181-16.88 4.718-4.936 3.538-10.387 10.589-16.418 11.305" fill="#da7d14"/></g><g id="g1810" transform="translate(612.74 730.24)"><path id="path1812" d="m0 0c9.157 2.032 19.289-1.136 25.658-8.022 1.856-2.006 3.4-4.287 5.296-6.256s4.255-3.66 6.963-4.032c-15.114-1.229-28.824 6.175-37.917 18.31" fill="#da7d14"/></g><g id="g1814" transform="translate(564.44 735.47)"><path id="path1816" d="m0 0c3.217 7.008 10.319 12.075 17.993 12.838 3.964 0.394 7.998-0.28 11.932 0.35 3.933 0.63 8.035 3.124 8.657 7.059 1.931-1.847 2.601-2.55 3.893-4.888s1.837-5.242 0.791-7.7c-1.283-3.012-4.548-4.634-7.664-5.639-9.008-2.907-18.676-2.754-28.14-2.573-2.774 0.053-4.688 0.5-7.462 0.553" fill="#da7d14"/></g><g id="g1818" transform="translate(569.58 726.81)"><path id="path1820" d="m0 0c-3.563 3.463-9.362 3.654-13.971 1.799s-8.312-5.377-11.915-8.798-7.357-6.904-12.008-8.651c5.455-3.2 10.504-3.754 16.726-2.623 6.221 1.13 12 4.552 15.981 9.465 2.478 3.058 1.42 7.668 5.187 8.808" fill="#da7d14"/></g><g id="g1822" transform="translate(613.7 616.54)"><path id="path1824" d="m0 0c2.109-9.968-5.75-20.642-20.354-20.64-14.605-0.002-22.463 10.672-20.355 20.64 1.195 6.608 9.107-7.066 20.355-7.04 11.247-0.025 19.159 13.648 20.354 7.04" fill="#fb9f79"/></g><g id="g1826" transform="translate(620.33 616.26)"><path id="path1828" d="m0 0c-2.21 7.257-12.681 1.049-26.986 1.069-14.305-0.02-24.776 6.188-26.986-1.069 0 0 3.106-12.186 11.738-15.246 2.153 6.362 8.159 10.947 15.248 10.947s13.095-4.585 15.249-10.947c8.632 3.06 11.737 15.246 11.737 15.246" fill="#cf6259"/></g><g id="g1830" transform="translate(593.35 611.96)"><path id="path1832" d="m0 0c-7.089 0-13.095-4.585-15.248-10.947 4.258-1.51 9.443-2.449 15.248-2.449s10.99 0.939 15.249 2.449c-2.154 6.361-8.16 10.947-15.249 10.947" fill="#f86e6e"/></g><g id="g1834" transform="translate(596.31 593.71)"><path id="path1836" d="m0 0c0-1.637-1.327-2.964-2.964-2.964s-2.964 1.327-2.964 2.964 1.327 2.964 2.964 2.964 2.964-1.327 2.964-2.964" fill="#ffe4dc"/></g><g id="g1838" transform="translate(581.5 739.24)"><path id="path1840" d="m0 0c-2.461-2.891-1.679-7.545 0.786-10.432 2.465-2.888 6.159-4.385 9.767-5.568s7.369-2.199 10.427-4.448c3.059-2.249 5.295-6.119 4.374-9.802 4.128 7.394 3.359 16.627-2.045 23.147-5.404 6.521-15.277 9.787-23.309 7.103" fill="#f4953c"/></g><g id="g1842" transform="translate(562.68 731.1)"><path id="path1844" d="m0 0c1.413-4.721-0.572-10.252-4.665-12.997-3.37-2.26-7.627-2.602-11.675-2.876 1.493 8.441 8.038 13.735 16.34 15.873" fill="#f4953c"/></g><g id="g1846" transform="translate(621.05 731.47)"><path id="path1848" d="m0 0c2.943-4.924 6.889-9.538 12.199-11.711 5.309-2.174 12.163-1.282 15.697 3.237-2.695-1.02-6.755-0.234-9.525 0.561-2.77 0.796-5.333 2.17-7.871 3.535-3.28 1.763-7.221 2.615-10.5 4.378" fill="#f4953c"/></g><g id="g1850" transform="translate(598.13 551.07)"><path id="path1852" d="m0 0c-1.95 0-5.724 0.503-7.926 0.503-7.484 0-11.384-5.786-11.384-13.082 0-6.542 3.145-12.957 9.938-12.957 3.963 0 7.044 2.202 8.491 5.158 0.566 1.131 0.881 2.452 0.881 4.025v16.353zm10.314-26.291c-1.131-1.824-2.956-2.516-4.591-2.516-2.893 0-5.284 2.139-5.661 4.906-2.012-3.396-5.471-4.906-9.497-4.906-8.995 0-13.459 7.548-13.459 16.102 0 9.686 5.723 16.479 15.346 16.479 1.887 0 5.283-0.252 7.548-0.567h3.459v-26.353c0-1.384 1.132-2.201 2.201-2.201 0.692 0 1.384 0.314 1.824 1.006l2.83-1.95z" fill="#bb688e"/></g><g id="g1854" transform="translate(608.29 524.75)"><path id="path1856" d="m0 0c-0.957 0.565-1.906 1.141-2.851 1.723l0.431 0.088c-0.366-0.66-1.075-1.162-1.881-1.247-0.777-0.102-1.615 0.185-2.195 0.767-0.294 0.289-0.514 0.661-0.64 1.058-0.138 0.425-0.135 0.826-0.149 1.14l-0.079 1.999c-0.116 2.666-0.176 5.332-0.244 7.999-0.058 2.666-0.113 5.332-0.133 7.998-0.043 2.666-0.031 5.332-0.026 7.998l1.064-1.063-3.459 0.038-0.083 0.001-0.059 0.009c-1.359 0.205-2.752 0.354-4.14 0.473-1.385 0.102-2.792 0.236-4.119 0.159-1.35-0.007-2.674-0.233-3.973-0.55-1.277-0.385-2.518-0.898-3.654-1.61-1.108-0.736-2.187-1.577-3.026-2.647-0.859-1.047-1.595-2.217-2.12-3.49-0.582-1.251-0.901-2.613-1.156-3.973-0.186-1.343-0.31-2.802-0.23-4.165 0.053-1.392 0.241-2.78 0.599-4.119 0.311-1.354 0.881-2.628 1.523-3.83 0.653-1.204 1.517-2.266 2.474-3.194 0.956-0.941 2.119-1.619 3.316-2.14 1.198-0.576 2.511-0.76 3.776-0.945l1.057-0.052c0.152-0.004 0.407-0.026 0.475-0.017l0.498 0.014c0.662 0.034 1.324 0.08 1.967 0.21 1.293 0.234 2.518 0.71 3.602 1.403 1.084 0.698 1.994 1.648 2.694 2.76l1.142 1.816 0.238-2.096c0.111-0.976 0.498-1.945 1.165-2.708 0.655-0.767 1.536-1.371 2.538-1.647 0.256-0.082 0.488-0.113 0.746-0.164l0.424-0.044c0.101-0.012 0.255-0.014 0.38-0.015 0.529 0.003 1.062 0.077 1.572 0.242 0.991 0.308 1.872 0.959 2.536 1.821m0.235-0.031c-0.261-0.499-0.622-0.997-1.049-1.401-0.433-0.408-0.941-0.743-1.493-0.987-0.55-0.25-1.143-0.403-1.749-0.476-0.158-0.015-0.289-0.031-0.472-0.033l-0.427-0.004c-0.306 0.017-0.641 0.047-0.936 0.114-1.216 0.233-2.371 0.852-3.249 1.763-0.89 0.901-1.477 2.1-1.699 3.369l1.381-0.28c-0.747-1.314-1.782-2.493-3.042-3.379-1.263-0.882-2.718-1.449-4.196-1.753-0.74-0.16-1.488-0.235-2.235-0.277l-0.56-0.011c-0.285-0.002-0.382 0.017-0.583 0.024l-1.057 0.061c-0.73 0.104-1.543 0.197-2.251 0.431l-1.08 0.337-1.035 0.464c-1.333 0.699-2.586 1.577-3.571 2.699-0.989 1.108-1.826 2.339-2.423 3.672-0.584 1.333-1.06 2.706-1.334 4.118-0.286 1.408-0.479 2.832-0.506 4.262-0.065 1.458 0.021 2.826 0.197 4.281 0.21 1.419 0.511 2.832 1.021 4.189 0.469 1.37 1.171 2.666 2.027 3.856 0.827 1.22 1.933 2.232 3.108 3.135 1.195 0.894 2.566 1.513 3.967 2.012 1.421 0.418 2.885 0.755 4.363 0.804 1.492 0.119 2.911 0.018 4.341-0.048 1.428-0.084 2.848-0.197 4.286-0.373l-0.141 0.01 3.459 0.039 1.061 0.012 0.002-1.076c0.006-2.666 0.017-5.332-0.026-7.998-0.02-2.666-0.074-5.332-0.132-7.998-0.069-2.667-0.129-5.333-0.245-7.999l-0.079-1.999c-0.017-0.351-0.026-0.626 0.029-0.843 0.056-0.243 0.163-0.474 0.331-0.667 0.333-0.392 0.857-0.636 1.412-0.63 0.533-0.001 1.077 0.273 1.414 0.75l0.192 0.271 0.239-0.184c0.91-0.698 1.817-1.402 2.714-2.119l0.069-0.056-0.043-0.082z" fill="#bb688e"/></g><g id="g1858" transform="translate(598.23 551.07)"><path id="path1860" d="m0 0s0.131-1.199 0.299-3.298c0.094-1.049 0.151-2.324 0.248-3.785 0.101-1.462 0.169-3.111 0.245-4.91 0.029-0.899 0.059-1.836 0.09-2.806 0.011-0.484 0.023-0.978 0.034-1.478 0.012-0.53-0.011-1.098-0.08-1.663-0.07-0.568-0.187-1.145-0.366-1.716-0.091-0.29-0.2-0.559-0.331-0.853-0.119-0.274-0.256-0.521-0.403-0.794-0.582-1.06-1.384-2.029-2.354-2.82-1.941-1.584-4.547-2.437-7.103-2.283-1.28 0.04-2.571 0.38-3.743 0.94-1.178 0.565-2.186 1.429-2.985 2.409-1.637 1.963-2.416 4.373-2.905 6.706-0.214 1.17-0.353 2.39-0.406 3.534-0.033 1.189-0.052 2.355 0.097 3.512 0.256 2.299 0.977 4.565 2.318 6.363 1.325 1.81 3.228 2.997 5.062 3.607 0.46 0.154 0.93 0.234 1.377 0.347 0.462 0.076 0.925 0.121 1.367 0.176 0.428 0.031 0.815 0.02 1.207 0.022 0.454 0.012 0.811-0.036 1.195-0.062 1.487-0.139 2.743-0.353 3.782-0.528l3.345-0.532 0.01-0.088zm-0.21-0.109c-0.133-0.012-0.387-0.034-0.761-0.067-0.569-0.03-1.4-0.036-2.456-0.04-1.044 0.009-2.312 0.02-3.766 0.033-0.347-0.01-0.745-0.002-1.066-0.048-0.382-0.045-0.796-0.064-1.183-0.116-0.365-0.073-0.739-0.147-1.122-0.223-0.379-0.125-0.777-0.223-1.162-0.371-1.548-0.577-3.048-1.601-4.235-3.077-0.294-0.371-0.597-0.748-0.841-1.177-0.289-0.401-0.505-0.857-0.752-1.305-0.425-0.929-0.818-1.923-1.048-2.99-0.541-2.107-0.586-4.47-0.154-6.744 0.23-1.138 0.605-2.25 1.105-3.299 0.52-1.041 1.209-1.986 2.009-2.784 1.609-1.633 3.816-2.333 5.961-2.321 2.168-0.019 4.234 0.771 5.726 2.097 1.491 1.337 2.455 3.093 2.726 4.887 0.071 0.456 0.107 0.906 0.113 1.377 0.011 0.5 0.023 0.994 0.034 1.478 0.031 0.97 0.061 1.907 0.09 2.806 0.076 1.799 0.144 3.448 0.245 4.91 0.097 1.461 0.155 2.736 0.248 3.785 0.139 1.737 0.254 2.854 0.289 3.189" fill="#bb688e"/></g></g></g></g></svg>
