<?xml version="1.0" encoding="UTF-8" standalone="no"?>
<!-- Created with Inkscape (http://www.inkscape.org/) -->
<svg id="svg2" xmlns:rdf="http://www.w3.org/1999/02/22-rdf-syntax-ns#" xmlns="http://www.w3.org/2000/svg" xml:space="preserve" height="66mm" viewBox="0 0 194.88189 233.85827" width="55mm" version="1.1" xmlns:cc="http://creativecommons.org/ns#" xmlns:dc="http://purl.org/dc/elements/1.1/"><metadata id="metadata8"><rdf:RDF><cc:Work rdf:about=""><dc:format>image/svg+xml</dc:format><dc:type rdf:resource="http://purl.org/dc/dcmitype/StillImage"/><dc:title/></cc:Work></rdf:RDF></metadata><defs id="defs6"><clipPath id="clipPath176" clipPathUnits="userSpaceOnUse"><path id="path178" d="m334.94 207.96h137.04v-47.469h-137.04v47.469z"/></clipPath></defs><g id="g10" transform="matrix(1.25 0 0 -1.25 0 233.86)"><g id="g172" transform="matrix(.43512 0 0 .47212 -99.053 -69.007)"><g id="g180"><g id="g182" opacity="0.2" clip-path="url(#clipPath176)"><g id="g184" transform="translate(471.99 184.22)"><path id="path186" d="m0 0c0-13.107-30.679-23.733-68.521-23.733-37.843 0-68.521 10.626-68.521 23.733 0 13.108 30.678 23.735 68.521 23.735 37.84 0 68.519-10.627 68.519-23.735" fill="#087f82"/></g></g></g></g><g id="g212" transform="matrix(.38886 0 0 .38886 62.866 77.657)"><path id="path214" d="m0 0s-8.685-5.031-15.019-15.031c-6.333-10-15.611-52.125-3.302-56.458 12.308-4.333 22.362 5.334 22.362 5.334l3.667 22.833 3 15.678-10.708 27.644z" fill="#294360"/></g><g id="g216" transform="matrix(.38886 0 0 .38886 68.432 36.155)"><path id="path218" d="m0 0-14.315 1.802-3.204-30.633s7.208-2.903 13.415-1.902l4.104 30.733z" fill="#ffcd9f"/></g><g id="g220" transform="matrix(.38886 0 0 .38886 85.541 35.311)"><path id="path222" d="m0 0 3.006-28.162s7.957-4.506 13.062 0.751l-2.781 29.361s-9.984 1.885-13.287-1.95" fill="#ffcd9f"/></g><g id="g224" transform="matrix(.38886 0 0 .38886 61.659 61.381)"><path id="path226" d="m0 0-8.209-56.661s4.205-7.608 19.422-9.61c15.216-2.003 20.823 6.406 20.823 6.406l5.253 39.844 6.002-39.409s6.164-9.847 24.785-7.15c19.023 2.755 15.816 12.52 15.816 12.52l-7.809 50.456-28.832 6.407h-18.219l-29.032-2.803z" fill="#ac6c82"/></g><g id="g228" transform="matrix(.38886 0 0 .38886 56.629 85.151)"><path id="path230" d="m0 0s-9.688-42.708-10.289-65.533c0 0-6.208-20.822-3.404-30.634 2.803-9.811 6.483-3.003 6.483-3.003s1.426-2 3.127-1.8c1.702 0.199 2.303 1.901 2.303 1.901s1.302-1.904 3.504-1.101c2.202 0.801 2.302 3.002 2.302 3.002s2.315-0.987 3.661-0.193c1.345 0.795 0.957 4.298 0 6.4-0.958 2.103-2.059 5.506-2.059 6.608s2.503 14.215 0.1 18.72-3.203 5.506-3.103 7.308 6.77 44.933 10.843 52.35-3.635 5.514-3.635 5.514l-5.106 1.201-4.727-0.74z" fill="#ffcd9f"/></g><g id="g232" transform="matrix(.38886 0 0 .38886 96.227 56.242)"><path id="path234" d="m0 0s9.01 11.613 11.012 29.633-8.809 41.688-8.502 41.867c0.306 0.179-11.721 3.583-11.721 3.583l-1.225-6.296s6.631-19.533 8.233-34.75c1.601-15.216-7.408-26.829-7.408-26.829h-2.832s-4.627-2.602-7.004-10.211c-2.377-7.608 0.224-8.21 2.427-7.009 0 0-1.4-7.807 2.204-6.607 0 0 0.384-4.947 3.613-5.004 0 0 0.976-2.404 3.285-2.203 2.311 0.2 5.313 4.005 4.914 12.214" fill="#ffcd9f"/></g><g id="g236" transform="matrix(.38886 0 0 .38886 88.481 86.84)"><path id="path238" d="m0 0 8.309-70.078s-39.643-20.422-80.489 4.806c0 0 4.406 41.646 4.806 54.861 0 0-11.213 0.399-16.818 8.808l12.813 39.245 31.835 12.064h19.972l27.881-10.963s18.82-33.036 21.222-36.64c0 0-3.004-15.317-25.226-11.413l-4.305 9.31z" fill="#6991ac"/></g><g id="g240" transform="matrix(.38886 0 0 .38886 73.104 109.61)"><path id="path242" d="m0 0v-8.859s9.461-6.008 19.972 0v8.859h-16.218-3.754z" fill="#e2a879"/></g><g id="g244" transform="matrix(.38886 0 0 .38886 99.993 132.89)"><path id="path246" d="m0 0s-1.275 15.912 6.133 16.712c7.408 0.802 5.545-31.724-10.942-34.381l4.809 17.669z" fill="#e2a879"/></g><g id="g248" transform="matrix(.38886 0 0 .38886 53.171 138.23)"><path id="path250" d="m0 0s-4-1.201-3.399-11.413c0.6-10.211 8.083-16.396 8.083-16.396v8.387s-0.676 10.813-0.876 11.613c-0.2 0.801-3.808 7.809-3.808 7.809" fill="#e2a879"/></g><g id="g252" transform="matrix(.38886 0 0 .38886 53.134 139.39)"><path id="path254" d="m0 0s-0.149-79.287 62.769-79.287c53.459 0 59.465 73.881 59.465 73.881s-8.109 38.743-8.109 40.545-15.317 9.911-17.12 10.511c-1.8 0.601-45.949-0.3-48.051 0-2.103 0.301-24.928-4.204-28.532-4.204s-9.61-1.802-10.211-3.003c-0.596-1.202-10.206-38.443-10.206-38.443" fill="#ffcd9f"/></g><g id="g256" transform="matrix(.38886 0 0 .38886 99.993 132.89)"><path id="path258" d="m0 0s-3.078-0.896-5.881 0l-6.207 22.119 1.203 3.603s-3.402 18.421-11.011 24.027c0 0-16.42-7.809-38.443-7.208-22.025 0.601-42.448 6.407-42.448 6.407s-5.605-2.403-10.811-18.22v-8.81s-5.393-9.409-6.2-13.214c0 0-4.986 10.836-0.707 35.439l-4.705 3.804 4.705 0.6-17.12 14.027 13.754 2.191s-12.953 7.609-16.557 12.614-8.809 10.011-8.809 10.011 42.848 3.404 46.251 4.605c0 0-8.26 8.008-12.74 15.217 0 0 43.774-8.81 50.982-11.012 0 0-9.01 13.414-12.614 15.617 0 0 35.84-13.816 58.264-32.235 0 0-4.207 14.215-5.808 18.42 0 0 21.173-28.833 24.902-39.444 0 0 12.49-33.826 0-58.558" fill="#735360"/></g><g id="g260" transform="matrix(.38886 0 0 .38886 67.566 133.91)"><path id="path262" d="m0 0c0-3.207-2.062-5.807-4.605-5.807s-4.605 2.6-4.605 5.807 2.062 5.806 4.605 5.806 4.605-2.599 4.605-5.806" fill="#3e3947"/></g><g id="g264" transform="matrix(.38886 0 0 .38886 87.137 133.91)"><path id="path266" d="m0 0c0-3.207-2.063-5.807-4.605-5.807-2.543 0-4.604 2.6-4.604 5.807s2.061 5.806 4.604 5.806c2.542 0 4.605-2.599 4.605-5.806" fill="#3e3947"/></g><g id="g268" transform="matrix(.38886 0 0 .38886 67.021 141.23)"><path id="path270" d="m0 0s-2.485 2.403-5.681 1.802c-3.194-0.6-5.68-4.204-5.68-4.204s0.473 6.907 6.391 7.508c0 0 2.13 0.4 4.97-1.002v-4.104z" fill="#735360"/></g><g id="g272" transform="matrix(.38886 0 0 .38886 83.069 143.6)"><path id="path274" d="m0 0v-5.105s7.408 5.405 13.916-2.303c0 0-1.102 11.112-13.916 7.408" fill="#735360"/></g><g id="g276" transform="matrix(.38886 0 0 .38886 72.057 128.61)"><path id="path278" d="m0 0s-5.617-7.107 2.693-12.813c0 0-8.532-0.563-9.516 5.605-1.102 6.908 6.823 7.208 6.823 7.208" fill="#e2a879"/></g><g id="g280" transform="matrix(.38886 0 0 .38886 68.666 120.86)"><path id="path282" d="m0 0s0.066-1.796 0.838-4.211c6.239-1.679 24.449-5.484 40.47 1.849 1.488 4.242 1.588 7.768 1.588 7.768-16.77-12.013-42.896-5.406-42.896-5.406" fill="#fdf5ed"/></g><g id="g284" transform="matrix(.38886 0 0 .38886 68.992 119.23)"><path id="path286" d="m0 0c0.692-2.165 1.966-4.824 4.263-7.145 2.073 2.14 5.063 3.74 8.299 4.937-5.528 0.495-10.031 1.526-12.562 2.208" fill="#9e005d"/></g><g id="g288" transform="matrix(.38886 0 0 .38886 77.006 114.32)"><path id="path290" d="m0 0c12.433 0.359 17.663 8.191 19.86 14.457-9.519-4.358-19.812-4.783-27.908-4.058-3.235-1.196-6.225-2.796-8.298-4.937 3.133-3.165 8.179-5.697 16.346-5.462" fill="#da727e"/></g><g id="g292" transform="matrix(.38886 0 0 .38886 75.283 112.69)"><path id="path294" d="m0 0s7.31-2.202 11.915 0.401c0 0-4.906-6.008-11.915-0.401" fill="#e2a879"/></g><g id="g296" transform="matrix(.38886 0 0 .38886 68.16 24.633)"><path id="path298" d="m0 0s-9.911 5.707-18.72 2.503c0 0-2.003-0.5-2.302-4.905-0.301-4.406-0.602-8.811-0.602-8.811s13.916-6.807 16.519-6.106c2.603 0.7 5.806 2.302 5.806 2.603s0.401 11.012 0.401 11.012 0.118 2.953-1.102 3.704" fill="#edf9fd"/></g><g id="g300" transform="matrix(.38886 0 0 .38886 60.199 8.2732)"><path id="path302" d="m0 0c15.167-1.127 21.548 7.733 23.351 10.812v4.328c0-0.6-11.788-8.109-23.001-7.608s-11.538 4.105-11.538 4.105v-6.532s0.339-4.3 11.188-5.105" fill="#edf9fd"/></g><g id="g304" transform="matrix(.38886 0 0 .38886 58.651 19.543)"><path id="path306" d="m0 0c-2.477-3.529-5.931-10.286-7.208-17.345 0 0 0.059-0.548 0.779-1.243 0 0 4.074 15.903 10.669 22.338-1.622-0.896-3.144-2.19-4.24-3.75" fill="#67727a"/></g><g id="g308" transform="matrix(.38886 0 0 .38886 68.432 20.711)"><path id="path310" d="m0 0 0.096-1.872s-2.199-2.782-5.277-2.182c-1.594 0.311-3.33 1.709-5.06 3.09 0 0-7.297-7.477-8.488-23.492h-0.002c10.538 0.409 20.909 7.049 20.909 7.611v15.719s-0.902 0.977-2.178 1.126" fill="#67727a"/></g><g id="g312" transform="matrix(.38886 0 0 .38886 60.335 11.202)"><path id="path314" d="m0 0c-6.85 0.306-9.627 1.768-10.759 2.861 0 0 0.948-2.76 3.551-3.762 2.6-1.001 9.28 0.891 9.299 0.897-0.696-0.028-1.395-0.028-2.091 0.004" fill="#ddd"/></g><g id="g316" transform="matrix(.38886 0 0 .38886 64.45 20.336)"><path id="path318" d="m0 0c-1.61 1.284-3.216 2.555-4.7 2.916-1.717 0.419-3.925-0.074-5.971-1.205-6.596-6.435-10.669-22.338-10.669-22.338 1.131-1.094 3.908-2.556 10.758-2.861 0.697-0.033 1.395-0.033 2.092-0.004h0.002c1.192 16.014 8.488 23.492 8.488 23.492" fill="#ddd"/></g><g id="g320" transform="matrix(.38886 0 0 .38886 93.891 20.973)"><path id="path322" d="m0 0s-0.201 6.006-0.5 7.509c-0.301 1.501-2.002 3.804-4.906 3.704-2.903-0.101-11.584 0.078-13.248-0.763-1.666-0.84-2.071-1.441-2.821-4.344-0.75-2.902-0.55-9.309-0.55-9.309s2.404-4.805 3.005-4.705c0.6 0.099 5.706 1.002 6.307 1.502 0.602 0.5 6.004 1.7 6.807 2.202 0.801 0.5 4.004 1.301 4.103 1.6 0.102 0.301 1.803 2.604 1.803 2.604" fill="#edf9fd"/></g><g id="g324" transform="matrix(.38886 0 0 .38886 94.417 8.2732)"><path id="path326" d="m0 0c8.184 0.45 10.211 4.129 10.211 4.129v5.633c-0.348-1.378-1.82-3.344-7.258-3.886-8.613-0.858-23.672 1.116-28.213 8.847-0.013 0.025-0.029 0.047-0.043 0.071v-3.607c4.805-9.611 17.119-11.638 25.303-11.187" fill="#edf9fd"/></g><g id="g328" transform="matrix(.38886 0 0 .38886 95.565 10.558)"><path id="path330" d="m0 0c5.437 0.542 6.91 2.508 7.258 3.886v1.5c-0.799 2.629-1.91 5.593-3.223 8.489-1.301 0.648-3.978 1.624-7.539 0.997-5.103-0.901-11.635-3.47-13.4-13.315 5.736-1.648 12.256-2.02 16.904-1.557" fill="#edf9fd"/></g><g id="g332" transform="matrix(.38886 0 0 .38886 88.821 19.76)"><path id="path334" d="m0 0c-1.285-0.886-2.41-1.602-3.404-1.759-2.852-0.45-5.606 3.303-5.606 3.303l0.028 2.253c-1.825-0.225-1.93-2.778-1.93-2.778v-15.764c0.014-0.025 0.029-0.046 0.043-0.071 2.092-3.558 6.416-5.886 11.308-7.29 0.872 4.856 2.903 7.936 5.35 9.924 0 0.002-0.002 0.004-0.002 0.005-1.092 5.047-4.603 10.454-5.787 12.177" fill="#67727a"/></g><g id="g336" transform="matrix(.38886 0 0 .38886 97.134 15.954)"><path id="path338" d="m0 0c-3.375 7.437-8.082 14.413-12.244 14.035-3.766-0.342-6.735-2.594-9.135-4.247 1.184-1.723 4.695-7.13 5.787-12.177 0-0.001 0.002-0.003 0.002-0.005 2.514 2.044 5.467 2.935 8.051 3.391 3.56 0.627 6.238-0.349 7.539-0.997" fill="#ddd"/></g><g id="g340" transform="matrix(.38886 0 0 .38886 81.418 105.95)"><path id="path342" d="m0 0s-24.343-57.509-51.093-84.764c0 0-1.232-12.989-1.496-15.645 0 0 51.497 39.039 71.685 92.901 0 0-17.686 6.953-19.096 7.508" fill="#455c7b"/></g><g id="g344" transform="matrix(.38886 0 0 .38886 62.282 82.792)"><path id="path346" d="m0 0s1.401 27.229 1.501 27.63c0.101 0.401-4.25-27.285-4.25-27.285l2.749-0.345z" fill="#4a7891"/></g><g id="g348" transform="matrix(.38886 0 0 .38886 51.693 54.335)"><path id="path350" d="m0 0s-1.102-7.009 2.703-8.01c3.804-1 3.705 1.202 4.105 4.505 0.4 3.305 1.801 6.109 2.803 7.409 0 0-1.903-5.105-1.802-7.808 0.1-2.703-0.908-6.8-5.206-5.908-4.297 0.893-3.604 7.108-2.603 9.812" fill="#e2a879"/></g><g id="g352" transform="matrix(.38886 0 0 .38886 55.849 12.798)"><path id="path354" d="m0 0s0.511 3.057 1.841 6.726c0.069 0.192 0.363 0.668 0.487 0.833 1.463 1.953 3.859 3.165 7.708 2.852 9.911-0.801 12.083-14.615 12.083-14.615s-10.336-3.806-11.059-3.806c-0.724 0-10.281 3.741-10.281 3.741l-0.779 4.269z" fill="#edf9fd"/></g><g id="g616" transform="matrix(.38886 0 0 .38886 65.775 134.91)"><path id="path618" d="m0 0c0-0.897-0.644-1.625-1.437-1.625-0.794 0-1.438 0.728-1.438 1.625s0.644 1.625 1.438 1.625c0.793 0 1.437-0.728 1.437-1.625" fill="#fff"/></g><g id="g620" transform="matrix(.38886 0 0 .38886 85.288 134.91)"><path id="path622" d="m0 0c0-0.897-0.644-1.625-1.437-1.625-0.794 0-1.438 0.728-1.438 1.625s0.644 1.625 1.438 1.625c0.793 0 1.437-0.728 1.437-1.625" fill="#fff"/></g></g></svg>
