<?xml version="1.0" encoding="UTF-8" standalone="no"?>
<!-- Created with Inkscape (http://www.inkscape.org/) -->

<svg
   xmlns:dc="http://purl.org/dc/elements/1.1/"
   xmlns:cc="http://creativecommons.org/ns#"
   xmlns:rdf="http://www.w3.org/1999/02/22-rdf-syntax-ns#"
   xmlns:svg="http://www.w3.org/2000/svg"
   xmlns="http://www.w3.org/2000/svg"
   xmlns:sodipodi="http://sodipodi.sourceforge.net/DTD/sodipodi-0.dtd"
   xmlns:inkscape="http://www.inkscape.org/namespaces/inkscape"
   id="svg2"
   version="1.1"
   inkscape:version="0.91 r13725"
   xml:space="preserve"
   width="55mm"
   height="66mm"
   viewBox="0 0 194.88189 233.85827"
   sodipodi:docname="kid1_3.svg"><metadata
     id="metadata8"><rdf:RDF><cc:Work
         rdf:about=""><dc:format>image/svg+xml</dc:format><dc:type
           rdf:resource="http://purl.org/dc/dcmitype/StillImage" /><dc:title></dc:title></cc:Work></rdf:RDF></metadata><defs
     id="defs6"><clipPath
       clipPathUnits="userSpaceOnUse"
       id="clipPath28"><path
         d="M 0,800 800,800 800,0 0,0 0,800 Z"
         id="path30"
         inkscape:connector-curvature="0" /></clipPath><clipPath
       clipPathUnits="userSpaceOnUse"
       id="clipPath160"><path
         d="m 98.4126,212.309 169.9244,0 0,-56.174 -169.9244,0 0,56.174 z"
         id="path162"
         inkscape:connector-curvature="0" /></clipPath><clipPath
       clipPathUnits="userSpaceOnUse"
       id="clipPath176"><path
         d="m 334.944,207.956 137.041,0 0,-47.469 -137.041,0 0,47.469 z"
         id="path178"
         inkscape:connector-curvature="0" /></clipPath><clipPath
       clipPathUnits="userSpaceOnUse"
       id="clipPath192"><path
         d="m 563.119,204.992 160.156,0 0,-47.469 -160.156,0 0,47.469 z"
         id="path194"
         inkscape:connector-curvature="0" /></clipPath><clipPath
       clipPathUnits="userSpaceOnUse"
       id="clipPath208"><path
         d="M 0,800 800,800 800,0 0,0 0,800 Z"
         id="path210"
         inkscape:connector-curvature="0" /></clipPath></defs><sodipodi:namedview
     pagecolor="#ffffff"
     bordercolor="#666666"
     borderopacity="1"
     objecttolerance="10"
     gridtolerance="10"
     guidetolerance="10"
     inkscape:pageopacity="0"
     inkscape:pageshadow="2"
     inkscape:window-width="1920"
     inkscape:window-height="963"
     id="namedview4"
     showgrid="false"
     units="mm"
     height="66mm"
     inkscape:zoom="1.888"
     inkscape:cx="3.2473284"
     inkscape:cy="57.87731"
     inkscape:window-x="0"
     inkscape:window-y="1"
     inkscape:window-maximized="1"
     inkscape:current-layer="g10" /><g
     id="g10"
     inkscape:groupmode="layer"
     inkscape:label="31282-NYMFTE"
     transform="matrix(1.25,0,0,-1.25,0,233.85827)"><path
       d="m -267.79663,-3.3898267 249.152515,0 0,249.1525067 -249.152515,0 0,-249.1525067 z"
       style="fill:#d7fffd;fill-opacity:1;fill-rule:nonzero;stroke:none"
       id="path12"
       inkscape:connector-curvature="0" /><path
       d="m -267.79663,-3.3898267 249.152515,0 0,97.2529457 -249.152515,0 0,-97.2529457 z"
       style="fill:#94e0dc;fill-opacity:1;fill-rule:nonzero;stroke:none"
       id="path14"
       inkscape:connector-curvature="0" /><path
       d="m -267.79663,-3.3898267 249.152515,0 0,39.0618187 -249.152515,0 0,-39.0618187 z"
       style="fill:#0499a5;fill-opacity:1;fill-rule:nonzero;stroke:none"
       id="path16"
       inkscape:connector-curvature="0" /><path
       d="m -267.79663,35.671992 249.152515,0 0,2.802965 -249.152515,0 0,-2.802965 z"
       style="fill:#00c9ce;fill-opacity:1;fill-rule:nonzero;stroke:none"
       id="path18"
       inkscape:connector-curvature="0" /><text
       transform="scale(1,-1)"
       style="font-variant:normal;font-weight:normal;font-stretch:normal;font-size:29.1046257px;font-family:'SF Cartoonist Hand';-inkscape-font-specification:SFCartoonistHand;writing-mode:lr-tb;fill:#ffea92;fill-opacity:1;fill-rule:nonzero;stroke:none"
       id="text20"
       x="-228.85501"
       y="-6.9753237"><tspan
         x="-228.85501 -215.52505 -203.76682 -193.78391 -185.11075 -174.40024 -163.68973 -153.06656 -147.12918 -134.35226 -125.67912 -114.38651 -103.70512 -92.237892 -81.614723 -72.941505 -63.10416"
         y="-6.9753237"
         sodipodi:role="line"
         id="tspan22">Cartoon Students </tspan></text>
<g
       id="g32"
       transform="matrix(0.31144064,0,0,0.31144064,-174.0285,248.3026)"><path
         d="m 0,0 c 0,-0.703 0.109,-1.301 0.328,-1.795 0.218,-0.494 0.517,-0.865 0.897,-1.115 0.38,-0.25 0.795,-0.377 1.244,-0.377 0.456,0 0.872,0.119 1.25,0.357 0.376,0.237 0.677,0.602 0.902,1.092 0.225,0.49 0.337,1.106 0.337,1.838 0,0.691 -0.112,1.285 -0.337,1.783 C 4.396,2.279 4.092,2.658 3.709,2.922 3.326,3.184 2.906,3.314 2.451,3.314 1.976,3.314 1.552,3.18 1.178,2.912 0.804,2.643 0.515,2.258 0.309,1.754 0.103,1.25 0,0.666 0,0 m 5.101,-3.809 0,0.258 C 4.752,-3.949 4.409,-4.275 4.07,-4.523 3.731,-4.775 3.364,-4.965 2.968,-5.094 2.572,-5.227 2.141,-5.289 1.672,-5.289 c -0.621,0 -1.196,0.131 -1.725,0.393 -0.528,0.263 -0.986,0.638 -1.371,1.126 -0.388,0.487 -0.68,1.059 -0.879,1.719 -0.199,0.658 -0.3,1.371 -0.3,2.137 0,1.621 0.396,2.885 1.188,3.791 C -0.624,4.781 0.418,5.234 1.71,5.234 2.457,5.234 3.087,5.105 3.6,4.85 4.113,4.594 4.613,4.197 5.101,3.668 l 0,3.826 c 0,0.533 0.105,0.934 0.318,1.207 C 5.63,8.973 5.933,9.109 6.326,9.109 6.718,9.109 7.02,8.984 7.232,8.734 7.445,8.482 7.551,8.115 7.551,7.627 l 0,-11.436 c 0,-0.494 -0.114,-0.863 -0.342,-1.111 -0.228,-0.246 -0.522,-0.369 -0.883,-0.369 -0.355,0 -0.648,0.127 -0.879,0.383 -0.231,0.258 -0.346,0.623 -0.346,1.097"
         style="fill:#408289;fill-opacity:1;fill-rule:nonzero;stroke:none"
         id="path34"
         inkscape:connector-curvature="0" /></g><g
       id="g36"
       transform="matrix(0.31144064,0,0,0.31144064,-170.45849,248.55686)"><path
         d="M 0,0 4.702,0 C 4.639,0.887 4.398,1.551 3.984,1.99 3.569,2.432 3.024,2.65 2.346,2.65 1.7,2.65 1.169,2.428 0.755,1.982 0.34,1.535 0.089,0.875 0,0 m 5.071,-1.473 -5.071,0 c 0.006,-0.588 0.125,-1.107 0.356,-1.556 0.231,-0.45 0.539,-0.789 0.921,-1.016 0.384,-0.228 0.806,-0.342 1.268,-0.342 0.31,0 0.594,0.035 0.851,0.108 0.256,0.074 0.504,0.187 0.746,0.343 0.24,0.155 0.462,0.321 0.664,0.498 0.202,0.178 0.465,0.42 0.788,0.723 0.133,0.113 0.323,0.172 0.571,0.172 0.266,0 0.481,-0.074 0.645,-0.221 0.164,-0.146 0.248,-0.349 0.248,-0.617 0,-0.234 -0.093,-0.506 -0.276,-0.82 C 6.597,-4.516 6.32,-4.816 5.951,-5.104 5.579,-5.393 5.115,-5.631 4.554,-5.82 3.994,-6.012 3.35,-6.105 2.621,-6.105 c -1.664,0 -2.96,0.474 -3.884,1.423 -0.925,0.95 -1.386,2.239 -1.386,3.866 0,0.767 0.113,1.478 0.341,2.132 0.228,0.657 0.561,1.217 0.997,1.686 0.437,0.469 0.975,0.828 1.615,1.078 0.639,0.25 1.349,0.375 2.128,0.375 1.012,0 1.881,-0.213 2.606,-0.641 C 5.764,3.387 6.307,2.834 6.667,2.158 7.027,1.48 7.209,0.789 7.209,0.088 7.209,-0.566 7.022,-0.988 6.649,-1.182 6.276,-1.375 5.75,-1.473 5.071,-1.473"
         style="fill:#408289;fill-opacity:1;fill-rule:nonzero;stroke:none"
         id="path38"
         inkscape:connector-curvature="0" /></g><g
       id="g40"
       transform="matrix(0.31144064,0,0,0.31144064,-165.19944,247.71136)"><path
         d="m 0,0 c 0,-0.715 -0.173,-1.328 -0.522,-1.838 -0.348,-0.51 -0.863,-0.896 -1.544,-1.16 -0.68,-0.262 -1.508,-0.393 -2.483,-0.393 -0.931,0 -1.729,0.143 -2.394,0.428 -0.664,0.283 -1.156,0.641 -1.472,1.067 -0.316,0.429 -0.475,0.857 -0.475,1.289 0,0.285 0.101,0.527 0.305,0.73 0.202,0.201 0.459,0.303 0.769,0.303 0.272,0 0.48,-0.067 0.626,-0.199 0.146,-0.133 0.286,-0.321 0.418,-0.559 0.266,-0.465 0.585,-0.807 0.955,-1.037 0.37,-0.227 0.875,-0.342 1.515,-0.342 0.519,0 0.945,0.117 1.278,0.348 0.332,0.232 0.498,0.496 0.498,0.793 0,0.457 -0.172,0.787 -0.518,0.996 -0.345,0.209 -0.914,0.41 -1.705,0.599 -0.893,0.221 -1.619,0.455 -2.18,0.7 -0.56,0.242 -1.008,0.564 -1.343,0.963 -0.336,0.398 -0.504,0.89 -0.504,1.472 0,0.518 0.155,1.01 0.465,1.473 0.311,0.461 0.769,0.83 1.374,1.105 0.604,0.276 1.333,0.414 2.188,0.414 0.671,0 1.275,-0.07 1.809,-0.211 0.536,-0.136 0.983,-0.326 1.34,-0.56 0.358,-0.233 0.63,-0.492 0.816,-0.777 0.187,-0.286 0.28,-0.563 0.28,-0.836 0,-0.297 -0.1,-0.541 -0.298,-0.733 C -1.001,3.848 -1.285,3.75 -1.653,3.75 c -0.266,0 -0.492,0.076 -0.679,0.23 -0.186,0.151 -0.4,0.379 -0.641,0.682 C -3.169,4.916 -3.399,5.119 -3.666,5.271 -3.932,5.424 -4.292,5.498 -4.749,5.498 -5.218,5.498 -5.606,5.4 -5.917,5.199 -6.227,5 -6.382,4.752 -6.382,4.455 c 0,-0.273 0.113,-0.496 0.341,-0.67 0.229,-0.176 0.535,-0.32 0.922,-0.433 0.387,-0.114 0.917,-0.252 1.596,-0.416 0.803,-0.198 1.46,-0.432 1.97,-0.704 0.51,-0.271 0.896,-0.593 1.16,-0.964 C -0.131,0.896 0,0.475 0,0"
         style="fill:#408289;fill-opacity:1;fill-rule:nonzero;stroke:none"
         id="path42"
         inkscape:connector-curvature="0" /></g><g
       id="g44"
       transform="matrix(0.31144064,0,0,0.31144064,-163.97495,249.48025)"><path
         d="m 0,0 0,-7.494 c 0,-0.52 -0.124,-0.912 -0.371,-1.178 -0.247,-0.266 -0.56,-0.398 -0.94,-0.398 -0.38,0 -0.689,0.134 -0.926,0.408 -0.238,0.271 -0.356,0.662 -0.356,1.168 l 0,7.418 c 0,0.512 0.118,0.898 0.356,1.158 0.237,0.26 0.546,0.391 0.926,0.391 0.38,0 0.693,-0.131 0.94,-0.391 C -0.124,0.822 0,0.461 0,0 m -1.283,2.678 c -0.361,0 -0.669,0.111 -0.925,0.332 -0.257,0.22 -0.385,0.535 -0.385,0.941 0,0.367 0.131,0.668 0.394,0.906 0.262,0.239 0.569,0.358 0.916,0.358 0.336,0 0.634,-0.108 0.893,-0.324 C -0.13,4.676 0,4.363 0,3.951 0,3.551 -0.127,3.24 -0.381,3.016 -0.634,2.791 -0.935,2.678 -1.283,2.678"
         style="fill:#408289;fill-opacity:1;fill-rule:nonzero;stroke:none"
         id="path46"
         inkscape:connector-curvature="0" /></g><g
       id="g48"
       transform="matrix(0.31144064,0,0,0.31144064,-162.77724,248.32328)"><path
         d="m 0,0 c 0,-1.051 0.229,-1.846 0.688,-2.383 0.459,-0.539 1.053,-0.808 1.781,-0.808 0.43,0 0.837,0.117 1.22,0.347 0.384,0.231 0.695,0.58 0.936,1.045 0.24,0.465 0.361,1.029 0.361,1.695 0,1.057 -0.232,1.881 -0.698,2.469 C 3.822,2.953 3.21,3.248 2.45,3.248 1.708,3.248 1.115,2.967 0.669,2.402 0.223,1.84 0,1.039 0,0 m 7.513,3.287 0,-7.531 C 7.513,-5.105 7.42,-5.848 7.236,-6.469 7.054,-7.088 6.759,-7.602 6.354,-8.006 5.948,-8.41 5.418,-8.713 4.763,-8.908 4.108,-9.105 3.292,-9.203 2.317,-9.203 c -0.893,0 -1.691,0.125 -2.394,0.375 -0.702,0.252 -1.243,0.574 -1.624,0.969 -0.379,0.396 -0.57,0.802 -0.57,1.22 0,0.317 0.108,0.577 0.324,0.774 0.215,0.201 0.475,0.301 0.778,0.301 0.38,0 0.712,-0.168 0.998,-0.504 0.138,-0.17 0.282,-0.344 0.431,-0.518 0.149,-0.176 0.315,-0.324 0.494,-0.447 0.181,-0.123 0.398,-0.215 0.651,-0.276 0.253,-0.058 0.545,-0.089 0.874,-0.089 0.671,0 1.192,0.093 1.563,0.281 0.37,0.185 0.63,0.447 0.779,0.783 0.149,0.334 0.235,0.693 0.261,1.078 0.025,0.383 0.044,0.998 0.056,1.848 C 4.539,-3.967 4.08,-4.391 3.556,-4.682 3.034,-4.973 2.412,-5.119 1.69,-5.119 c -0.867,0 -1.625,0.223 -2.275,0.666 -0.648,0.443 -1.147,1.062 -1.495,1.861 -0.349,0.799 -0.522,1.719 -0.522,2.764 0,0.777 0.105,1.482 0.317,2.107 0.213,0.629 0.515,1.157 0.908,1.588 0.392,0.43 0.845,0.754 1.357,0.973 0.513,0.219 1.077,0.328 1.691,0.328 0.734,0 1.371,-0.143 1.91,-0.422 0.537,-0.283 1.038,-0.725 1.5,-1.326 l 0,0.351 c 0,0.45 0.11,0.797 0.332,1.045 0.222,0.246 0.507,0.371 0.856,0.371 0.5,0 0.832,-0.164 0.996,-0.49 C 7.43,4.371 7.513,3.9 7.513,3.287"
         style="fill:#408289;fill-opacity:1;fill-rule:nonzero;stroke:none"
         id="path50"
         inkscape:connector-curvature="0" /></g><g
       id="g52"
       transform="matrix(0.31144064,0,0,0.31144064,-159.154,249.49181)"><path
         d="M 0,0 0,-0.312 C 0.455,0.289 0.954,0.73 1.496,1.012 2.037,1.293 2.659,1.436 3.362,1.436 4.046,1.436 4.657,1.285 5.195,0.988 5.733,0.689 6.136,0.27 6.401,-0.273 6.573,-0.592 6.683,-0.934 6.733,-1.301 6.784,-1.668 6.811,-2.137 6.811,-2.707 l 0,-4.824 c 0,-0.52 -0.12,-0.912 -0.357,-1.178 -0.238,-0.266 -0.546,-0.398 -0.926,-0.398 -0.387,0 -0.7,0.134 -0.941,0.408 -0.241,0.271 -0.36,0.662 -0.36,1.168 l 0,4.322 c 0,0.854 -0.12,1.508 -0.357,1.961 -0.238,0.451 -0.71,0.68 -1.42,0.68 -0.462,0 -0.883,-0.139 -1.263,-0.414 C 0.807,-1.258 0.528,-1.637 0.351,-2.117 0.225,-2.504 0.161,-3.225 0.161,-4.283 l 0,-3.248 c 0,-0.526 -0.122,-0.92 -0.365,-1.184 -0.244,-0.262 -0.559,-0.392 -0.945,-0.392 -0.374,0 -0.681,0.134 -0.922,0.408 -0.24,0.271 -0.361,0.662 -0.361,1.168 l 0,7.494 c 0,0.494 0.108,0.863 0.323,1.107 0.215,0.242 0.51,0.366 0.883,0.366 0.228,0 0.434,-0.055 0.619,-0.163 0.182,-0.109 0.33,-0.269 0.441,-0.484 C -0.055,0.574 0,0.311 0,0"
         style="fill:#408289;fill-opacity:1;fill-rule:nonzero;stroke:none"
         id="path54"
         inkscape:connector-curvature="0" /></g><g
       id="g56"
       transform="matrix(0.31144064,0,0,0.31144064,-155.82062,248.55686)"><path
         d="M 0,0 4.701,0 C 4.638,0.887 4.399,1.551 3.984,1.99 3.569,2.432 3.023,2.65 2.346,2.65 1.7,2.65 1.169,2.428 0.754,1.982 0.339,1.535 0.089,0.875 0,0 m 5.071,-1.473 -5.071,0 c 0.007,-0.588 0.125,-1.107 0.356,-1.556 0.231,-0.45 0.538,-0.789 0.922,-1.016 0.382,-0.228 0.805,-0.342 1.267,-0.342 0.31,0 0.594,0.035 0.851,0.108 0.255,0.074 0.504,0.187 0.746,0.343 0.239,0.155 0.461,0.321 0.665,0.498 0.201,0.178 0.464,0.42 0.787,0.723 0.133,0.113 0.323,0.172 0.57,0.172 0.266,0 0.482,-0.074 0.646,-0.221 0.165,-0.146 0.247,-0.349 0.247,-0.617 0,-0.234 -0.092,-0.506 -0.276,-0.82 C 6.597,-4.516 6.32,-4.816 5.95,-5.104 5.579,-5.393 5.115,-5.631 4.554,-5.82 3.994,-6.012 3.349,-6.105 2.621,-6.105 c -1.665,0 -2.96,0.474 -3.885,1.423 -0.924,0.95 -1.386,2.239 -1.386,3.866 0,0.767 0.114,1.478 0.341,2.132 0.228,0.657 0.561,1.217 0.998,1.686 0.437,0.469 0.976,0.828 1.615,1.078 0.639,0.25 1.349,0.375 2.128,0.375 1.012,0 1.88,-0.213 2.606,-0.641 C 5.763,3.387 6.306,2.834 6.667,2.158 7.028,1.48 7.209,0.789 7.209,0.088 7.209,-0.566 7.022,-0.988 6.648,-1.182 6.275,-1.375 5.75,-1.473 5.071,-1.473"
         style="fill:#408289;fill-opacity:1;fill-rule:nonzero;stroke:none"
         id="path58"
         inkscape:connector-curvature="0" /></g><g
       id="g60"
       transform="matrix(0.31144064,0,0,0.31144064,-152.53757,248.3026)"><path
         d="M 0,0 C 0,-0.703 0.108,-1.301 0.327,-1.795 0.545,-2.289 0.845,-2.66 1.226,-2.91 1.605,-3.16 2.02,-3.287 2.469,-3.287 c 0.456,0 0.873,0.119 1.249,0.357 0.377,0.237 0.678,0.602 0.902,1.092 C 4.845,-1.348 4.958,-0.732 4.958,0 4.958,0.691 4.845,1.285 4.62,1.783 4.396,2.279 4.092,2.658 3.708,2.922 3.325,3.184 2.906,3.314 2.45,3.314 1.976,3.314 1.551,3.18 1.177,2.912 0.804,2.643 0.514,2.258 0.308,1.754 0.102,1.25 0,0.666 0,0 m 5.1,-3.809 0,0.258 C 4.751,-3.949 4.408,-4.275 4.069,-4.523 3.73,-4.775 3.364,-4.965 2.968,-5.094 2.573,-5.227 2.14,-5.289 1.672,-5.289 c -0.622,0 -1.196,0.131 -1.724,0.393 -0.529,0.263 -0.987,0.638 -1.373,1.126 -0.387,0.487 -0.679,1.059 -0.878,1.719 -0.2,0.658 -0.3,1.371 -0.3,2.137 0,1.621 0.396,2.885 1.187,3.791 0.792,0.904 1.834,1.357 3.125,1.357 C 2.457,5.234 3.087,5.105 3.6,4.85 4.112,4.594 4.613,4.197 5.1,3.668 l 0,3.826 C 5.1,8.027 5.206,8.428 5.418,8.701 5.63,8.973 5.933,9.109 6.326,9.109 6.718,9.109 7.02,8.984 7.232,8.734 7.444,8.482 7.551,8.115 7.551,7.627 l 0,-11.436 C 7.551,-4.303 7.437,-4.672 7.209,-4.92 6.981,-5.166 6.687,-5.289 6.326,-5.289 5.971,-5.289 5.678,-5.162 5.447,-4.906 5.215,-4.648 5.1,-4.283 5.1,-3.809"
         style="fill:#408289;fill-opacity:1;fill-rule:nonzero;stroke:none"
         id="path62"
         inkscape:connector-curvature="0" /></g><g
       id="g64"
       transform="matrix(0.31144064,0,0,0.31144064,-147.61017,248.27887)"><path
         d="m 0,0 c 0,-1.031 0.236,-1.824 0.708,-2.377 0.471,-0.555 1.09,-0.834 1.856,-0.834 0.652,0 1.215,0.283 1.686,0.852 0.472,0.566 0.708,1.379 0.708,2.435 C 4.958,0.76 4.86,1.35 4.664,1.844 4.467,2.338 4.189,2.719 3.828,2.988 3.467,3.256 3.045,3.391 2.564,3.391 2.071,3.391 1.63,3.256 1.244,2.988 0.858,2.719 0.554,2.33 0.332,1.82 0.111,1.311 0,0.703 0,0 m -0.124,7.703 0,-3.959 c 0.488,0.506 0.985,0.895 1.492,1.162 0.506,0.27 1.133,0.405 1.881,0.405 0.861,0 1.615,-0.206 2.265,-0.612 0.648,-0.41 1.152,-1.002 1.51,-1.777 0.357,-0.776 0.537,-1.695 0.537,-2.76 0,-0.785 -0.1,-1.504 -0.299,-2.16 C 7.062,-2.654 6.772,-3.223 6.393,-3.703 6.012,-4.184 5.552,-4.557 5.011,-4.82 4.469,-5.082 3.872,-5.213 3.22,-5.213 c -0.399,0 -0.775,0.047 -1.125,0.143 -0.352,0.093 -0.652,0.218 -0.898,0.375 -0.246,0.154 -0.457,0.314 -0.632,0.478 -0.174,0.164 -0.404,0.412 -0.689,0.742 l 0,-0.257 c 0,-0.487 -0.117,-0.856 -0.351,-1.108 -0.233,-0.25 -0.531,-0.373 -0.893,-0.373 -0.367,0 -0.66,0.123 -0.878,0.373 -0.219,0.252 -0.328,0.621 -0.328,1.108 l 0,11.322 c 0,0.525 0.106,0.924 0.318,1.191 0.212,0.27 0.509,0.405 0.888,0.405 0.4,0 0.706,-0.129 0.922,-0.385 0.215,-0.258 0.322,-0.621 0.322,-1.098"
         style="fill:#408289;fill-opacity:1;fill-rule:nonzero;stroke:none"
         id="path66"
         inkscape:connector-curvature="0" /></g><g
       id="g68"
       transform="matrix(0.31144064,0,0,0.31144064,-144.20852,246.55439)"><path
         d="m 0,0 0.237,0.58 -3.191,8.035 c -0.196,0.461 -0.295,0.799 -0.295,1.008 0,0.221 0.058,0.426 0.171,0.615 0.115,0.192 0.271,0.344 0.47,0.457 0.2,0.116 0.407,0.172 0.623,0.172 0.373,0 0.654,-0.119 0.845,-0.357 0.191,-0.237 0.358,-0.576 0.503,-1.02 l 2.195,-6.383 2.08,5.936 c 0.164,0.48 0.313,0.857 0.446,1.131 0.133,0.271 0.273,0.455 0.422,0.549 0.149,0.095 0.36,0.144 0.632,0.144 0.197,0 0.385,-0.053 0.566,-0.158 0.18,-0.104 0.319,-0.244 0.417,-0.422 C 6.219,10.109 6.269,9.924 6.269,9.727 6.243,9.607 6.203,9.436 6.145,9.213 6.087,8.992 6.019,8.766 5.937,8.539 L 2.555,-0.312 C 2.263,-1.092 1.979,-1.701 1.7,-2.145 1.421,-2.588 1.053,-2.93 0.593,-3.166 0.134,-3.404 -0.485,-3.523 -1.264,-3.523 c -0.759,0 -1.329,0.082 -1.708,0.246 -0.382,0.166 -0.57,0.466 -0.57,0.904 0,0.297 0.089,0.527 0.271,0.687 0.179,0.163 0.447,0.245 0.801,0.245 0.139,0 0.276,-0.02 0.409,-0.059 0.165,-0.037 0.307,-0.057 0.427,-0.057 0.297,0 0.532,0.043 0.703,0.133 0.171,0.088 0.324,0.242 0.461,0.461 C -0.334,-0.746 -0.177,-0.424 0,0"
         style="fill:#408289;fill-opacity:1;fill-rule:nonzero;stroke:none"
         id="path70"
         inkscape:connector-curvature="0" /></g><g
       id="g72"
       transform="matrix(0.31144064,0,0,0.31144064,-132.50988,249.86893)"><path
         d="m 0,0 0.617,0 0,0.777 c 0,0.815 0.1,1.457 0.307,1.938 C 1.129,3.193 1.48,3.541 1.971,3.76 2.461,3.977 3.135,4.086 3.988,4.086 5.508,4.086 6.26,3.719 6.26,2.973 6.26,2.734 6.182,2.527 6.02,2.357 5.865,2.188 5.678,2.102 5.463,2.102 5.363,2.102 5.184,2.119 4.936,2.16 4.697,2.193 4.482,2.217 4.312,2.217 3.844,2.217 3.545,2.076 3.406,1.801 3.279,1.525 3.211,1.133 3.211,0.617 L 3.211,0 3.844,0 c 0.992,0 1.482,-0.297 1.482,-0.896 0,-0.418 -0.127,-0.69 -0.392,-0.805 -0.262,-0.113 -0.625,-0.17 -1.09,-0.17 l -0.633,0 0,-6.871 c 0,-0.512 -0.119,-0.901 -0.369,-1.168 -0.24,-0.274 -0.553,-0.406 -0.942,-0.406 -0.367,0 -0.671,0.132 -0.918,0.406 -0.244,0.267 -0.365,0.656 -0.365,1.168 l 0,6.871 -0.713,0 c -0.388,0 -0.683,0.084 -0.894,0.262 -0.209,0.17 -0.315,0.398 -0.315,0.677 C -1.305,-0.309 -0.869,0 0,0"
         style="fill:#408289;fill-opacity:1;fill-rule:nonzero;stroke:none"
         id="path74"
         inkscape:connector-curvature="0" /></g><g
       id="g76"
       transform="matrix(0.31144064,0,0,0.31144064,-129.86628,247.82146)"><path
         d="m 0,0 0,-2.168 c 0,-0.523 -0.133,-0.92 -0.373,-1.18 -0.248,-0.265 -0.559,-0.394 -0.938,-0.394 -0.382,0 -0.687,0.131 -0.927,0.4 -0.237,0.264 -0.36,0.656 -0.36,1.174 l 0,7.223 c 0,1.166 0.42,1.748 1.26,1.748 0.434,0 0.744,-0.135 0.934,-0.408 0.189,-0.274 0.295,-0.674 0.318,-1.208 0.307,0.534 0.623,0.934 0.947,1.208 0.332,0.273 0.764,0.408 1.311,0.408 0.549,0 1.072,-0.135 1.584,-0.408 C 4.271,6.121 4.527,5.758 4.527,5.311 4.527,4.996 4.418,4.73 4.201,4.529 3.982,4.32 3.748,4.217 3.496,4.217 3.396,4.217 3.164,4.279 2.803,4.396 2.438,4.51 2.115,4.57 1.84,4.57 1.461,4.57 1.148,4.467 0.908,4.271 0.666,4.066 0.479,3.775 0.344,3.385 0.215,2.99 0.125,2.52 0.072,1.98 0.023,1.439 0,0.777 0,0"
         style="fill:#408289;fill-opacity:1;fill-rule:nonzero;stroke:none"
         id="path78"
         inkscape:connector-curvature="0" /></g><g
       id="g80"
       transform="matrix(0.31144064,0,0,0.31144064,-127.73363,248.5587)"><path
         d="M 0,0 4.701,0 C 4.639,0.885 4.402,1.549 3.986,1.986 3.568,2.428 3.027,2.646 2.346,2.646 1.701,2.646 1.17,2.426 0.754,1.977 0.34,1.531 0.086,0.873 0,0 M 5.074,-1.475 0,-1.475 C 0.008,-2.063 0.123,-2.586 0.354,-3.033 0.59,-3.48 0.895,-3.82 1.279,-4.051 c 0.385,-0.226 0.803,-0.34 1.268,-0.34 0.31,0 0.594,0.034 0.849,0.112 0.254,0.07 0.506,0.185 0.747,0.341 0.242,0.153 0.459,0.319 0.664,0.5 0.201,0.174 0.466,0.417 0.789,0.719 0.134,0.114 0.324,0.174 0.568,0.174 0.27,0 0.482,-0.074 0.65,-0.223 0.166,-0.146 0.243,-0.349 0.243,-0.617 0,-0.234 -0.088,-0.508 -0.268,-0.818 C 6.602,-4.521 6.326,-4.82 5.953,-5.109 5.58,-5.395 5.115,-5.637 4.557,-5.824 3.996,-6.014 3.35,-6.109 2.625,-6.109 c -1.672,0 -2.965,0.472 -3.887,1.422 -0.924,0.951 -1.392,2.242 -1.392,3.867 0,0.767 0.117,1.478 0.347,2.134 0.225,0.659 0.559,1.217 1,1.688 0.436,0.471 0.969,0.828 1.612,1.078 0.638,0.25 1.347,0.375 2.129,0.375 1.009,0 1.88,-0.215 2.605,-0.646 C 5.764,3.387 6.312,2.832 6.668,2.154 7.029,1.475 7.211,0.787 7.211,0.08 7.211,-0.568 7.021,-0.99 6.648,-1.186 6.275,-1.379 5.752,-1.475 5.074,-1.475"
         style="fill:#408289;fill-opacity:1;fill-rule:nonzero;stroke:none"
         id="path82"
         inkscape:connector-curvature="0" /></g><g
       id="g84"
       transform="matrix(0.31144064,0,0,0.31144064,-124.37408,248.5587)"><path
         d="M 0,0 4.701,0 C 4.639,0.885 4.398,1.549 3.986,1.986 3.566,2.428 3.025,2.646 2.344,2.646 1.699,2.646 1.168,2.426 0.752,1.977 0.338,1.531 0.084,0.873 0,0 m 5.074,-1.475 -5.074,0 c 0.006,-0.588 0.125,-1.111 0.355,-1.558 0.231,-0.447 0.54,-0.787 0.92,-1.018 0.383,-0.226 0.807,-0.34 1.272,-0.34 0.308,0 0.594,0.034 0.846,0.112 0.257,0.07 0.505,0.185 0.75,0.341 0.242,0.153 0.459,0.319 0.664,0.5 0.199,0.174 0.463,0.417 0.787,0.719 0.135,0.114 0.326,0.174 0.568,0.174 0.27,0 0.484,-0.074 0.65,-0.223 0.167,-0.146 0.241,-0.349 0.241,-0.617 0,-0.234 -0.086,-0.508 -0.274,-0.818 C 6.604,-4.521 6.324,-4.82 5.949,-5.109 5.58,-5.395 5.109,-5.637 4.555,-5.824 3.996,-6.014 3.346,-6.109 2.619,-6.109 c -1.666,0 -2.959,0.472 -3.887,1.422 -0.923,0.951 -1.388,2.242 -1.388,3.867 0,0.767 0.117,1.478 0.347,2.134 0.227,0.659 0.559,1.217 0.997,1.688 C -0.877,3.473 -0.34,3.83 0.303,4.08 0.939,4.33 1.652,4.455 2.432,4.455 3.439,4.455 4.309,4.24 5.045,3.809 5.764,3.387 6.311,2.832 6.666,2.154 7.025,1.475 7.211,0.787 7.211,0.08 7.211,-0.568 7.02,-0.99 6.648,-1.186 6.273,-1.379 5.75,-1.475 5.074,-1.475"
         style="fill:#408289;fill-opacity:1;fill-rule:nonzero;stroke:none"
         id="path86"
         inkscape:connector-curvature="0" /></g><g
       id="g88"
       transform="matrix(0.31144064,0,0,0.31144064,-119.44152,248.31235)"><path
         d="m 0,0 c 0,0.686 -0.107,1.273 -0.314,1.764 -0.209,0.492 -0.5,0.867 -0.868,1.127 -0.367,0.263 -0.781,0.396 -1.232,0.396 -0.713,0 -1.318,-0.283 -1.809,-0.844 -0.492,-0.566 -0.738,-1.394 -0.738,-2.492 0,-1.027 0.244,-1.834 0.734,-2.406 0.489,-0.574 1.086,-0.859 1.813,-0.859 0.43,0 0.83,0.126 1.197,0.373 0.371,0.252 0.666,0.627 0.885,1.127 C -0.111,-1.312 0,-0.707 0,0 m -5.084,3.768 0,-0.311 c 0.486,0.602 0.994,1.043 1.523,1.324 0.52,0.285 1.12,0.428 1.784,0.428 C -0.982,5.209 -0.242,5 0.43,4.592 1.1,4.178 1.627,3.576 2.018,2.785 2.408,1.99 2.604,1.055 2.604,-0.029 2.604,-0.824 2.492,-1.561 2.268,-2.23 2.045,-2.898 1.73,-3.457 1.34,-3.91 0.945,-4.359 0.484,-4.711 -0.051,-4.955 c -0.541,-0.242 -1.111,-0.363 -1.726,-0.363 -0.739,0 -1.366,0.148 -1.866,0.447 -0.503,0.291 -0.982,0.732 -1.441,1.305 l 0,-3.893 c 0,-1.135 -0.416,-1.709 -1.244,-1.709 -0.49,0 -0.809,0.147 -0.973,0.439 -0.15,0.299 -0.232,0.723 -0.232,1.292 l 0,11.193 c 0,0.494 0.105,0.859 0.32,1.107 0.215,0.239 0.512,0.364 0.885,0.364 0.369,0 0.666,-0.125 0.894,-0.373 0.237,-0.254 0.35,-0.612 0.35,-1.086"
         style="fill:#408289;fill-opacity:1;fill-rule:nonzero;stroke:none"
         id="path90"
         inkscape:connector-curvature="0" /></g><g
       id="g92"
       transform="matrix(0.31144064,0,0,0.31144064,-117.41715,249.48206)"><path
         d="m 0,0 0,-7.502 c 0,-0.516 -0.125,-0.908 -0.371,-1.172 -0.25,-0.269 -0.561,-0.4 -0.941,-0.4 -0.381,0 -0.684,0.133 -0.928,0.406 -0.233,0.275 -0.356,0.664 -0.356,1.166 l 0,7.428 c 0,0.51 0.123,0.894 0.356,1.154 0.244,0.264 0.547,0.391 0.928,0.391 0.38,0 0.691,-0.127 0.941,-0.391 C -0.125,0.82 0,0.457 0,0 m -1.285,2.678 c -0.361,0 -0.668,0.115 -0.922,0.336 -0.26,0.222 -0.389,0.531 -0.389,0.935 0,0.369 0.131,0.67 0.397,0.91 0.262,0.235 0.566,0.356 0.914,0.356 0.34,0 0.637,-0.106 0.894,-0.319 C -0.131,4.678 0,4.361 0,3.949 0,3.551 -0.127,3.238 -0.379,3.014 -0.633,2.793 -0.934,2.678 -1.285,2.678"
         style="fill:#408289;fill-opacity:1;fill-rule:nonzero;stroke:none"
         id="path94"
         inkscape:connector-curvature="0" /></g><g
       id="g96"
       transform="matrix(0.31144064,0,0,0.31144064,-114.81432,247.0246)"><path
         d="m 0,0 -2.283,3.766 -1.408,-1.328 0,-2.067 c 0,-0.498 -0.133,-0.881 -0.397,-1.148 -0.256,-0.274 -0.566,-0.407 -0.906,-0.407 -0.399,0 -0.715,0.131 -0.94,0.401 -0.226,0.263 -0.343,0.656 -0.343,1.174 l 0,11.062 c 0,0.574 0.113,1.012 0.33,1.315 0.222,0.304 0.545,0.451 0.953,0.451 0.4,0 0.713,-0.137 0.949,-0.41 0.234,-0.272 0.354,-0.674 0.354,-1.204 l 0,-6.293 2.916,3.063 c 0.361,0.377 0.632,0.641 0.826,0.779 0.189,0.139 0.42,0.207 0.689,0.207 0.326,0 0.594,-0.103 0.817,-0.308 C 1.768,8.848 1.877,8.588 1.877,8.279 1.877,7.9 1.523,7.391 0.822,6.758 L -0.555,5.496 2.104,1.312 C 2.297,1 2.443,0.77 2.527,0.607 2.611,0.447 2.658,0.287 2.658,0.145 2.658,-0.268 2.543,-0.59 2.316,-0.83 2.092,-1.066 1.793,-1.184 1.432,-1.184 c -0.317,0 -0.565,0.08 -0.735,0.256 C 0.527,-0.756 0.291,-0.445 0,0"
         style="fill:#408289;fill-opacity:1;fill-rule:nonzero;stroke:none"
         id="path98"
         inkscape:connector-curvature="0" /></g><g
       id="g100"
       transform="matrix(0.31144064,0,0,0.31144064,-113.05882,246.65598)"><path
         d="m 0,0 c -0.393,0 -0.729,0.125 -1.014,0.381 -0.285,0.248 -0.429,0.605 -0.429,1.064 0,0.385 0.138,0.719 0.41,0.994 0.275,0.28 0.607,0.42 1.008,0.42 0.398,0 0.736,-0.14 1.023,-0.412 C 1.277,2.172 1.42,1.834 1.42,1.445 1.42,0.992 1.277,0.637 0.998,0.385 0.711,0.125 0.379,0 0,0"
         style="fill:#408289;fill-opacity:1;fill-rule:nonzero;stroke:none"
         id="path102"
         inkscape:connector-curvature="0" /></g><g
       id="g104"
       transform="matrix(0.31144064,0,0,0.31144064,-109.04174,247.6554)"><path
         d="m 0,0 c 0,-0.32 -0.098,-0.668 -0.291,-1.033 -0.191,-0.371 -0.488,-0.719 -0.887,-1.051 -0.394,-0.332 -0.89,-0.602 -1.494,-0.803 -0.601,-0.203 -1.281,-0.306 -2.031,-0.306 -1.606,0 -2.858,0.468 -3.758,1.4 -0.894,0.936 -1.346,2.189 -1.346,3.76 0,1.068 0.205,2.006 0.619,2.824 0.409,0.814 1.004,1.447 1.782,1.895 0.779,0.447 1.717,0.669 2.795,0.669 0.673,0 1.287,-0.097 1.851,-0.294 0.561,-0.196 1.033,-0.452 1.426,-0.76 0.387,-0.315 0.686,-0.643 0.889,-0.992 0.207,-0.352 0.308,-0.68 0.308,-0.987 C -0.137,4.014 -0.25,3.75 -0.48,3.535 -0.715,3.32 -0.996,3.211 -1.318,3.211 c -0.219,0 -0.399,0.057 -0.541,0.166 -0.145,0.111 -0.305,0.289 -0.479,0.541 -0.318,0.478 -0.646,0.842 -0.996,1.08 -0.344,0.242 -0.781,0.361 -1.314,0.361 -0.762,0 -1.383,-0.297 -1.854,-0.896 -0.467,-0.596 -0.703,-1.42 -0.703,-2.455 0,-0.488 0.062,-0.94 0.184,-1.348 0.117,-0.406 0.291,-0.756 0.519,-1.043 0.231,-0.287 0.504,-0.506 0.826,-0.654 0.324,-0.154 0.682,-0.227 1.065,-0.227 0.521,0 0.966,0.121 1.336,0.362 0.377,0.24 0.703,0.607 0.986,1.101 0.158,0.291 0.328,0.518 0.51,0.684 0.181,0.164 0.408,0.25 0.675,0.25 0.317,0 0.581,-0.123 0.786,-0.363 C -0.107,0.529 0,0.271 0,0"
         style="fill:#408289;fill-opacity:1;fill-rule:nonzero;stroke:none"
         id="path106"
         inkscape:connector-curvature="0" /></g><g
       id="g108"
       transform="matrix(0.31144064,0,0,0.31144064,-106.36771,248.29712)"><path
         d="M 0,0 C 0,1.059 -0.234,1.881 -0.697,2.469 -1.16,3.064 -1.787,3.357 -2.572,3.357 -3.08,3.357 -3.527,3.225 -3.914,2.963 -4.301,2.701 -4.596,2.314 -4.805,1.799 -5.014,1.285 -5.119,0.686 -5.119,0 c 0,-0.678 0.101,-1.268 0.308,-1.773 0.209,-0.51 0.502,-0.897 0.887,-1.166 0.385,-0.266 0.834,-0.405 1.352,-0.405 0.785,0 1.412,0.297 1.875,0.893 C -0.234,-1.861 0,-1.041 0,0 m 2.604,0 c 0,-0.77 -0.122,-1.484 -0.356,-2.139 -0.246,-0.652 -0.592,-1.213 -1.049,-1.677 -0.455,-0.469 -1.002,-0.829 -1.633,-1.08 -0.638,-0.249 -1.349,-0.375 -2.138,-0.375 -0.785,0 -1.492,0.126 -2.121,0.382 -0.623,0.248 -1.17,0.614 -1.625,1.082 -0.461,0.477 -0.809,1.034 -1.053,1.676 -0.229,0.645 -0.35,1.356 -0.35,2.131 0,0.787 0.123,1.506 0.358,2.158 0.242,0.655 0.59,1.213 1.039,1.674 0.451,0.461 0.994,0.816 1.631,1.07 0.644,0.248 1.349,0.373 2.121,0.373 0.785,0 1.498,-0.125 2.138,-0.38 C 0.205,4.643 0.75,4.279 1.211,3.814 1.668,3.34 2.014,2.785 2.25,2.143 2.484,1.492 2.604,0.783 2.604,0"
         style="fill:#408289;fill-opacity:1;fill-rule:nonzero;stroke:none"
         id="path110"
         inkscape:connector-curvature="0" /></g><g
       id="g112"
       transform="matrix(0.31144064,0,0,0.31144064,-102.47591,248.23813)"><path
         d="m 0,0 0,-3.447 c 0,-0.547 -0.121,-0.951 -0.369,-1.227 -0.25,-0.273 -0.572,-0.408 -0.979,-0.408 -0.392,0 -0.713,0.135 -0.951,0.408 -0.246,0.276 -0.371,0.68 -0.371,1.227 l 0,4.131 c 0,0.654 -0.021,1.162 -0.064,1.525 -0.045,0.354 -0.168,0.654 -0.362,0.883 -0.197,0.234 -0.509,0.351 -0.931,0.351 -0.85,0 -1.407,-0.291 -1.676,-0.88 C -5.971,1.986 -6.109,1.148 -6.109,0.055 l 0,-3.502 c 0,-0.537 -0.123,-0.946 -0.362,-1.223 -0.25,-0.273 -0.568,-0.412 -0.965,-0.412 -0.396,0 -0.716,0.139 -0.966,0.412 -0.252,0.277 -0.377,0.686 -0.377,1.223 l 0,7.42 c 0,0.488 0.111,0.859 0.336,1.111 0.228,0.256 0.525,0.381 0.888,0.381 0.358,0 0.653,-0.123 0.893,-0.356 0.236,-0.238 0.353,-0.566 0.353,-0.984 l 0,-0.244 c 0.454,0.535 0.936,0.931 1.446,1.18 0.515,0.259 1.082,0.386 1.713,0.386 0.65,0 1.211,-0.131 1.677,-0.39 0.469,-0.26 0.854,-0.655 1.161,-1.176 0.439,0.527 0.908,0.922 1.41,1.18 0.5,0.257 1.052,0.386 1.662,0.386 0.705,0 1.32,-0.142 1.834,-0.42 C 5.104,4.75 5.486,4.348 5.74,3.832 5.961,3.359 6.07,2.623 6.07,1.615 l 0,-5.062 C 6.07,-3.994 5.949,-4.398 5.703,-4.674 5.457,-4.947 5.129,-5.082 4.725,-5.082 4.33,-5.082 4.01,-4.943 3.76,-4.67 3.51,-4.393 3.383,-3.984 3.383,-3.447 l 0,4.361 C 3.383,1.473 3.359,1.918 3.314,2.252 3.268,2.59 3.137,2.873 2.932,3.1 2.719,3.326 2.4,3.443 1.979,3.443 1.637,3.443 1.312,3.336 1.004,3.135 0.697,2.938 0.457,2.658 0.283,2.322 0.098,1.885 0,1.109 0,0"
         style="fill:#408289;fill-opacity:1;fill-rule:nonzero;stroke:none"
         id="path114"
         inkscape:connector-curvature="0" /></g><g
       id="g116"
       transform="matrix(0.31144064,0,0,0.31144064,-140.06808,248.49299)"><path
         d="M 0,0 C -0.002,0.004 -0.002,0.01 -0.002,0.018 -0.002,0.01 -0.002,0.004 0,0"
         style="fill:#408289;fill-opacity:1;fill-rule:nonzero;stroke:none"
         id="path118"
         inkscape:connector-curvature="0" /></g><g
       id="g120"
       transform="matrix(0.31144064,0,0,0.31144064,-140.02734,248.23449)"><path
         d="M 0,0 0.004,0 C -0.047,0.236 -0.085,0.471 -0.115,0.703 -0.085,0.469 -0.047,0.234 0,0"
         style="fill:#408289;fill-opacity:1;fill-rule:nonzero;stroke:none"
         id="path122"
         inkscape:connector-curvature="0" /></g><g
       id="g124"
       transform="matrix(0.31144064,0,0,0.31144064,-139.75969,247.48507)"><path
         d="M 0,0 C -0.006,0.01 -0.012,0.021 -0.018,0.033 -0.012,0.021 -0.006,0.01 0,0"
         style="fill:#408289;fill-opacity:1;fill-rule:nonzero;stroke:none"
         id="path126"
         inkscape:connector-curvature="0" /></g><g
       id="g128"
       transform="matrix(0.31144064,0,0,0.31144064,-139.78523,247.53496)"><path
         d="M 0,0 C -0.023,0.045 -0.045,0.09 -0.066,0.135 -0.045,0.088 -0.023,0.045 0,0"
         style="fill:#408289;fill-opacity:1;fill-rule:nonzero;stroke:none"
         id="path130"
         inkscape:connector-curvature="0" /></g><g
       id="g132"
       transform="matrix(0.31144064,0,0,0.31144064,-139.95191,247.94616)"><path
         d="M 0,0 C 0.127,-0.4 0.279,-0.789 0.457,-1.158 0.276,-0.781 0.127,-0.393 0.003,0 L 0,0 Z"
         style="fill:#408289;fill-opacity:1;fill-rule:nonzero;stroke:none"
         id="path134"
         inkscape:connector-curvature="0" /></g><g
       id="g136"
       transform="matrix(0.31144064,0,0,0.31144064,-136.9418,251.58733)"><path
         d="m 0,0 c 0.501,0 0.871,-0.039 1.295,-0.111 l 0.12,0.763 c 0,0 -1.171,0.36 -2.711,0.235 l -0.121,0.414 c 0.479,0.101 0.838,0.527 0.838,1.035 0,0.582 -0.474,1.053 -1.057,1.053 -0.583,0 -1.055,-0.471 -1.055,-1.053 0,-0.508 0.358,-0.934 0.836,-1.035 L -1.722,0.838 C -3.356,0.613 -4.657,-0.023 -4.657,-0.023 l 0.23,-0.706 c 0.989,0.329 1.847,0.53 2.625,0.614 C -1.04,-0.035 -0.468,0 0,0"
         style="fill:#408289;fill-opacity:1;fill-rule:nonzero;stroke:none"
         id="path138"
         inkscape:connector-curvature="0" /></g><g
       id="g140"
       transform="matrix(0.31144064,0,0,0.31144064,-139.76576,250.38598)"><path
         d="M 0,0 0.006,0.008 C 0.044,0.057 0.081,0.104 0.119,0.15 l -0.313,0.225 -0.488,0.357 c -0.027,-0.039 -0.795,-0.744 -1.402,-2.048 -0.025,0.041 -0.055,0.082 -0.09,0.119 -0.181,0.199 -0.435,0.301 -0.758,0.295 l -0.014,0 c -0.2,0 -0.337,0.066 -0.427,0.146 0.09,0.113 0.143,0.256 0.143,0.414 0,0.367 -0.299,0.668 -0.669,0.668 -0.369,0 -0.669,-0.301 -0.669,-0.668 0,-0.371 0.3,-0.67 0.669,-0.67 0.057,0 0.113,0.01 0.167,0.022 0.164,-0.184 0.425,-0.342 0.807,-0.334 0.196,0.002 0.341,-0.049 0.438,-0.156 0.11,-0.122 0.148,-0.295 0.159,-0.428 0,-0.002 0,-0.004 -0.002,-0.004 -0.436,-1.19 -0.312,-2.67 -0.312,-2.67 l 1.058,-0.043 c 0.022,0.539 0.098,1.482 0.371,2.23 C -0.687,-0.945 -0.027,-0.039 0,0"
         style="fill:#408289;fill-opacity:1;fill-rule:nonzero;stroke:none"
         id="path142"
         inkscape:connector-curvature="0" /></g><g
       id="g144"
       transform="matrix(0.31144064,0,0,0.31144064,-134.0768,251.3124)"><path
         d="m 0,0 c -0.369,0 -0.67,-0.299 -0.67,-0.67 0,-0.057 0.01,-0.111 0.024,-0.164 C -0.83,-1 -0.988,-1.262 -0.982,-1.645 -0.98,-1.842 -1.031,-1.984 -1.137,-2.082 -1.223,-2.156 -1.328,-2.197 -1.434,-2.223 -2.22,-1.119 -3.188,-0.447 -3.188,-0.447 L -3.947,-1.26 c 0.573,-0.521 1.159,-1.176 1.728,-1.99 0.393,-0.564 0.799,-1.291 1.135,-2.016 l 1.025,0.487 c 0,0 -0.468,1.156 -1.127,2.191 0.116,0.041 0.231,0.104 0.332,0.193 0.2,0.18 0.299,0.436 0.293,0.758 -0.001,0.207 0.067,0.348 0.149,0.442 0.113,-0.088 0.256,-0.143 0.412,-0.143 0.371,0 0.67,0.299 0.67,0.668 C 0.67,-0.299 0.371,0 0,0"
         style="fill:#408289;fill-opacity:1;fill-rule:nonzero;stroke:none"
         id="path146"
         inkscape:connector-curvature="0" /></g><g
       id="g148"
       transform="matrix(0.31144064,0,0,0.31144064,-134.90439,248.44618)"><path
         d="m 0,0 c -1.409,-0.686 -3.729,-1.594 -6.781,-2.02 -1.198,-0.166 -2.36,-0.226 -3.428,-0.226 -1.391,0 -2.62,0.103 -3.562,0.223 -1.077,0.134 -1.918,0.3 -2.433,0.418 0.124,-0.393 0.273,-0.782 0.454,-1.159 0.003,-0.009 0.008,-0.021 0.012,-0.027 0.021,-0.045 0.043,-0.09 0.066,-0.135 0.022,-0.043 0.043,-0.086 0.065,-0.127 0.005,-0.011 0.011,-0.023 0.017,-0.033 0.303,-0.57 0.666,-1.094 1.08,-1.549 1.44,-1.574 2.907,-1.824 2.921,-1.826 l 0.023,-0.002 0.021,-0.008 c 0.014,-0.006 1.315,-0.425 3.292,-0.425 1.945,0 3.855,0.392 5.674,1.167 1.348,0.69 2.622,1.737 3.254,2.67 0.488,0.723 0.84,1.493 1.049,2.293 C 1.835,-0.34 1.923,0.342 1.872,1.061 1.476,0.793 0.849,0.414 0,0"
         style="fill:#408289;fill-opacity:1;fill-rule:nonzero;stroke:none"
         id="path150"
         inkscape:connector-curvature="0" /></g><g
       id="g152"
       transform="matrix(0.31144064,0,0,0.31144064,-138.37038,250.51128)"><path
         d="m 0,0 c 1.557,0 2.816,-1.262 2.816,-2.818 0,-1.555 -1.259,-2.815 -2.816,-2.815 -1.555,0 -2.816,1.26 -2.816,2.815 C -2.816,-1.262 -1.555,0 0,0 m 8.241,-0.07 c 0.961,0 1.743,-0.782 1.743,-1.742 0,-0.963 -0.782,-1.745 -1.743,-1.745 -0.962,0 -1.742,0.782 -1.742,1.745 0,0.96 0.78,1.742 1.742,1.742 M -4.028,-0.736 C -4.069,-0.797 -4.681,-1.662 -5.164,-2.99 -5.525,-3.984 -5.51,-5.434 -5.51,-5.449 l 0,-0.004 c 0,-0.34 0.02,-0.676 0.057,-1.01 0,-0.008 0,-0.014 0.002,-0.017 0.004,-0.043 0.012,-0.084 0.015,-0.127 0.031,-0.233 0.069,-0.467 0.12,-0.704 0.699,-0.177 4.878,-1.152 9.547,-0.501 2.927,0.408 5.15,1.273 6.499,1.927 1.121,0.543 1.841,1.035 2.121,1.239 C 12.573,-3.619 11.808,-2.006 11.107,-1 9.103,1.865 6.94,2.6 5.83,2.783 5.406,2.852 5.067,2.893 4.587,2.893 4.14,2.893 3.585,2.855 2.844,2.777 2.101,2.701 1.271,2.506 0.312,2.182 -1.036,1.73 -2.256,1.023 -3.215,0.135 L -3.248,0.104 c -0.143,-0.131 -0.44,-0.407 -0.78,-0.84"
         style="fill:#408289;fill-opacity:1;fill-rule:nonzero;stroke:none"
         id="path154"
         inkscape:connector-curvature="0" /></g><g
       id="g156"
       transform="matrix(0.36429317,0,0,0.36429317,22.12693,-37.199073)"><g
         id="g158" /><g
         id="g164"><g
           clip-path="url(#clipPath160)"
           id="g166"
           style="opacity:0.19999701"><g
             transform="translate(268.3369,184.2207)"
             id="g168"><path
               d="m 0,0 c 0,-15.512 -38.039,-28.086 -84.962,-28.086 -46.924,0 -84.962,12.574 -84.962,28.086 0,15.513 38.038,28.088 84.962,28.088 C -38.039,28.088 0,15.513 0,0"
               style="fill:#087f82;fill-opacity:1;fill-rule:nonzero;stroke:none"
               id="path170"
               inkscape:connector-curvature="0" /></g></g></g></g><g
       id="g356"
       transform="matrix(0.36429317,0,0,0.36429317,90.707423,119.07535)"><path
         d="m 0,0 c 0,0 -2.66,17.026 -34.473,25.093 -31.815,8.065 -52.71,-3.525 -52.71,-3.525 0,0 -48.008,-127.523 14.175,-152.856 62.182,-25.333 52.264,29.128 53.688,32.71 1.424,3.585 10.16,60.491 10.274,61.835 C -8.933,-35.398 0,0 0,0"
         style="fill:#bf5867;fill-opacity:1;fill-rule:nonzero;stroke:none"
         id="path358"
         inkscape:connector-curvature="0" /></g><g
       id="g360"
       transform="matrix(0.36429317,0,0,0.36429317,88.677473,25.665987)"><path
         d="m 0,0 -0.561,8.289 c 0,0 -0.447,3.473 12.659,4.367 C 25.204,13.553 24.42,9.298 24.42,9.298 L 25.316,1.119 18.483,-10.98 c 0,0 -9.746,-3.81 -10.193,-3.697 -0.45,0.113 -7.394,2.466 -7.394,2.466 L 0,0 Z"
         style="fill:#edf9fd;fill-opacity:1;fill-rule:nonzero;stroke:none"
         id="path362"
         inkscape:connector-curvature="0" /></g><g
       id="g364"
       transform="matrix(0.36429317,0,0,0.36429317,70.475099,40.354433)"><path
         d="m 0,0 -7.22,-35.279 -18.148,0.84 6.218,37.137 C -19.15,2.698 -4.037,3.69 0,0"
         style="fill:#ffcd9f;fill-opacity:1;fill-rule:nonzero;stroke:none"
         id="path366"
         inkscape:connector-curvature="0" /></g><g
       id="g368"
       transform="matrix(0.36429317,0,0,0.36429317,88.305355,43.109729)"><path
         d="m 0,0 3.149,-37.97 7.562,0 c 1.848,0 9.577,1.067 9.577,1.067 L 17.936,0 9.198,1.516 0,0 Z"
         style="fill:#ffcd9f;fill-opacity:1;fill-rule:nonzero;stroke:none"
         id="path370"
         inkscape:connector-curvature="0" /></g><g
       id="g372"
       transform="matrix(0.36429317,0,0,0.36429317,58.49681,96.979942)"><path
         d="m 0,0 c 0,0 -9.625,-29.916 -11.138,-60.832 0,0 10.922,-3.362 12.266,-19.491 1.344,-16.132 -10.25,-11.763 -11.089,-3.025 -0.841,8.737 -2.353,5.545 -2.353,5.545 0,0 -3.361,-9.41 1.176,-23.356 0,0 1.177,-4.704 -4.201,-5.208 -5.377,-0.505 -7.057,4.367 -7.057,4.367 0,0 -6.217,0.168 -9.074,6.722 0,0 -6.933,3.372 -5.881,19.827 0.896,14.001 8.57,17.98 8.57,17.98 0,0 5.713,44.694 13.073,61.76 5.878,13.629 8.435,4.61 9.106,4.779 0.673,0.168 5.883,-3.361 5.883,-3.361 L 0,0 Z"
         style="fill:#ffcd9f;fill-opacity:1;fill-rule:nonzero;stroke:none"
         id="path374"
         inkscape:connector-curvature="0" /></g><g
       id="g376"
       transform="matrix(0.36429317,0,0,0.36429317,98.395653,100.7118)"><path
         d="m 0,0 c 0,0 4.471,-51.754 8.948,-69.229 0,0 8.51,-8.736 7.502,-22.179 -1.008,-13.442 -12.098,-14.449 -14.787,-3.025 -2.687,11.427 -17.768,31.254 -15.773,32.934 1.995,1.682 1.995,34.614 1.995,36.967 0,2.352 2.353,18.517 3.025,19.003 C -8.418,-5.042 0,0 0,0"
         style="fill:#ffcd9f;fill-opacity:1;fill-rule:nonzero;stroke:none"
         id="path378"
         inkscape:connector-curvature="0" /></g><g
       id="g380"
       transform="matrix(0.36429317,0,0,0.36429317,99.450463,73.207337)"><path
         d="m 0,0 c 0,0 5.602,-45.481 6.945,-78.191 0,0 -19.266,-10.976 -51.304,-1.346 l -2.465,38.389 -9.186,-42.345 c 0,0 -9.795,-8.528 -29.235,-6.336 -8.45,0.953 -23.862,3.573 -30.807,10.517 0,0 11.201,67.214 12.994,79.312 1.792,12.095 5.825,11.201 5.825,11.201 0,0 31.367,-0.865 34.278,0.015 2.913,0.879 32.486,-6.065 33.606,-6.065 1.121,0 13.524,-3.256 15.459,-2.688 1.935,0.569 15.049,-3.43 15.049,-3.43"
         style="fill:#ffbc67;fill-opacity:1;fill-rule:nonzero;stroke:none"
         id="path382"
         inkscape:connector-curvature="0" /></g><g
       id="g384"
       transform="matrix(0.36429317,0,0,0.36429317,83.862143,124.62568)"><path
         d="m 0,0 23.299,-14.115 c 0,0 15.907,-19.492 24.421,-49.065 0,0 -2.464,-5.601 -9.186,-6.946 0,0 4.033,-34.503 6.722,-71.246 0,0 -9.858,-6.941 -40.776,-7.391 -30.917,-0.449 -63.179,6.721 -69.227,9.857 0,0 10.752,60.919 11.873,64.512 0,0 -13.442,-4.467 -28.453,1.134 -15.01,5.6 -23.075,15.458 -23.075,15.458 0,0 20.835,54.215 40.55,63.85 l 21.729,0.285 7.841,0.103 L 0,0 Z"
         style="fill:#685c79;fill-opacity:1;fill-rule:nonzero;stroke:none"
         id="path386"
         inkscape:connector-curvature="0" /></g><g
       id="g388"
       transform="matrix(0.36429317,0,0,0.36429317,68.517015,126.93256)"><path
         d="M 0,0 C 0,0 10.309,-18.432 8.068,-44.645 5.829,-70.856 -5.663,-88.561 -13.36,-93.823 l 2.609,13.097 c 0,0 5.153,25.103 5.825,45.716 0.673,20.612 -6.499,34.861 -6.499,34.861 L 0,0 Z"
         style="fill:#da727e;fill-opacity:1;fill-rule:nonzero;stroke:none"
         id="path390"
         inkscape:connector-curvature="0" /></g><g
       id="g392"
       transform="matrix(0.36429317,0,0,0.36429317,88.115009,122.04911)"><path
         d="m 0,0 c 0,0 23.084,-48.714 28.221,-75.375 0,0 -3.825,37.864 -16.596,68.333 L 0,0 Z"
         style="fill:#da727e;fill-opacity:1;fill-rule:nonzero;stroke:none"
         id="path394"
         inkscape:connector-curvature="0" /></g><g
       id="g396"
       transform="matrix(0.36429317,0,0,0.36429317,82.51509,59.127954)"><path
         d="M 0,0 C 0,0 6.721,6.497 15.011,9.298 15.011,9.298 2.129,-0.223 0,-6.944 L 0,0 Z"
         style="fill:#e29a4b;fill-opacity:1;fill-rule:nonzero;stroke:none"
         id="path398"
         inkscape:connector-curvature="0" /></g><g
       id="g400"
       transform="matrix(0.36429317,0,0,0.36429317,62.355872,8.6484685)"><path
         d="M 0,0 C 14.031,-0.103 22.37,2.688 28.869,7.027 28.564,14.31 26.987,28.104 19.828,38.647 9.635,53.658 0.897,46.377 0.561,46.039 0.225,45.705 -7.168,43.912 -7.168,43.912 l -3.024,-1.568 c 0,0 -8.026,-13.098 -12.342,-32.489 C -19.917,7.084 -12.125,0.089 0,0"
         style="fill:#455c7b;fill-opacity:1;fill-rule:nonzero;stroke:none"
         id="path402"
         inkscape:connector-curvature="0" /></g><g
       id="g404"
       transform="matrix(0.36429317,0,0,0.36429317,62.967966,5.9963055)"><path
         d="m 0,0 c 20.164,-0.067 27.221,9.297 27.221,9.297 0,0 0.097,1.924 -0.032,5.011 C 20.69,9.968 12.351,7.178 -1.68,7.28 c -12.126,0.089 -19.917,7.084 -22.534,9.856 -0.356,-1.603 -0.691,-3.242 -0.99,-4.925 0,0 4.115,-12.141 25.204,-12.211"
         style="fill:#edf9fd;fill-opacity:1;fill-rule:nonzero;stroke:none"
         id="path406"
         inkscape:connector-curvature="0" /></g><g
       id="g408"
       transform="matrix(0.36429317,0,0,0.36429317,58.152987,15.871346)"><path
         d="m 0,0 4.592,21.061 c 0,0 9.858,4.591 14.227,3.919 4.37,-0.671 8.738,-3.471 8.738,-3.471 l -2.129,-22.74 c 0,0 -21.172,-1.682 -21.508,-1.682 C 3.584,-2.913 0,0 0,0"
         style="fill:#dddddd;fill-opacity:1;fill-rule:nonzero;stroke:none"
         id="path410"
         inkscape:connector-curvature="0" /></g><g
       id="g412"
       transform="matrix(0.36429317,0,0,0.36429317,71.456246,132.47594)"><path
         d="m 0,0 0,-15.109 c 0,0 28.061,-13.106 36.546,-7.393 l 0,11.425 L 6.386,0 0,0 Z"
         style="fill:#f2aa75;fill-opacity:1;fill-rule:nonzero;stroke:none"
         id="path414"
         inkscape:connector-curvature="0" /></g><g
       id="g416"
       transform="matrix(0.36429317,0,0,0.36429317,101.65436,159.06719)"><path
         d="m 0,0 c 0,0 1.12,-66.764 -36.743,-84.686 0,0 -12.769,-5.378 -27.78,0 -15.011,5.376 -32.934,19.491 -38.983,38.757 -6.049,19.268 -6.049,12.771 -6.049,12.771 0,0 -7.17,4.706 -3.586,27.109 3.586,22.403 15.909,25.764 17.028,26.884 1.12,1.121 11.202,5.154 13.218,7.17 2.017,2.016 18.371,5.825 20.164,6.946 1.792,1.119 19.266,-4.034 22.852,-4.482 3.585,-0.448 27.557,-15.011 31.141,-16.354 C -5.153,12.77 0,0 0,0"
         style="fill:#ffcd9f;fill-opacity:1;fill-rule:nonzero;stroke:none"
         id="path418"
         inkscape:connector-curvature="0" /></g><g
       id="g420"
       transform="matrix(0.36429317,0,0,0.36429317,95.023063,146.8657)"><path
         d="m 0,0 c 0,0 3.265,-2.482 2.761,-7.187 -0.504,-4.705 -7.298,-5.248 -7.298,-5.248 0,0 8.401,-0.839 9.745,4.706 C 6.553,-2.185 0,0 0,0"
         style="fill:#dd9a64;fill-opacity:1;fill-rule:nonzero;stroke:none"
         id="path422"
         inkscape:connector-curvature="0" /></g><g
       id="g424"
       transform="matrix(0.36429317,0,0,0.36429317,76.190129,168.77968)"><path
         d="m 0,0 c 0,0 6.945,-10.979 25.764,-14.339 18.82,-3.361 47.049,-12.77 50.409,-25.765 0,0 10.313,23.525 -6.27,38.536 0,0 -3.39,22.177 -40.554,33.157 -29.573,8.738 -39.207,-7.393 -39.207,-7.393 0,0 -47.721,-0.897 -41.447,-64.3 0,0 0.287,10.28 5.825,14.787 0,0 -10.817,-39.184 20.164,-67.436 0,0 -11.651,22.405 -8.514,32.598 0,0 -12.994,6.386 -7.394,23.189 5.601,16.802 19.715,5.823 18.147,-7.618 l 4.706,-0.448 c 0,0 2.912,10.548 7.393,16.476 C -6.498,-22.628 1.121,-13.667 0,0"
         style="fill:#a75265;fill-opacity:1;fill-rule:nonzero;stroke:none"
         id="path426"
         inkscape:connector-curvature="0" /></g><g
       id="g428"
       transform="matrix(0.36429317,0,0,0.36429317,84.637353,153.63981)"><path
         d="m 0,0 c 0,-3.403 -1.932,-6.162 -4.314,-6.162 -2.381,0 -4.312,2.759 -4.312,6.162 0,3.402 1.931,6.161 4.312,6.161 C -1.932,6.161 0,3.402 0,0"
         style="fill:#3e3947;fill-opacity:1;fill-rule:nonzero;stroke:none"
         id="path430"
         inkscape:connector-curvature="0" /></g><g
       id="g432"
       transform="matrix(0.36429317,0,0,0.36429317,97.100883,150.15359)"><path
         d="m 0,0 c 0,-2.996 -1.621,-5.423 -3.621,-5.423 -1.998,0 -3.618,2.427 -3.618,5.423 0,2.996 1.62,5.423 3.618,5.423 C -1.621,5.423 0,2.996 0,0"
         style="fill:#3e3947;fill-opacity:1;fill-rule:nonzero;stroke:none"
         id="path434"
         inkscape:connector-curvature="0" /></g><g
       id="g436"
       transform="matrix(0.36429317,0,0,0.36429317,84.963758,161.31186)"><path
         d="m 0,0 0,-4.929 c 0,0 -5.152,6.497 -11.985,1.904 0,0 4.144,7.394 11.985,3.025"
         style="fill:#a75265;fill-opacity:1;fill-rule:nonzero;stroke:none"
         id="path438"
         inkscape:connector-curvature="0" /></g><g
       id="g440"
       transform="matrix(0.36429317,0,0,0.36429317,95.178183,157.63902)"><path
         d="m 0,0 0,-3.902 c 0,0 4.965,1.283 6.798,-2.036 C 6.798,-5.938 7.204,0 0,0"
         style="fill:#a75265;fill-opacity:1;fill-rule:nonzero;stroke:none"
         id="path442"
         inkscape:connector-curvature="0" /></g><g
       id="g444"
       transform="matrix(0.36429317,0,0,0.36429317,84.769845,131.47075)"><path
         d="m 0,0 c 0,0 -7.646,0.42 -11.594,4.621 0,0 4.369,-8.065 11.594,-4.621"
         style="fill:#dd9a64;fill-opacity:1;fill-rule:nonzero;stroke:none"
         id="path446"
         inkscape:connector-curvature="0" /></g><g
       id="g448"
       transform="matrix(0.36429317,0,0,0.36429317,79.291574,143.03972)"><path
         d="m 0,0 c 0,0 -0.67,-3.243 -0.178,-7.422 4.332,-3.042 15.882,-10.028 29.666,-9.301 1.376,2.946 1.849,5.55 1.849,5.55 0,0 -19.659,2.52 -31.337,11.173"
         style="fill:#fdf5ed;fill-opacity:1;fill-rule:nonzero;stroke:none"
         id="path450"
         inkscape:connector-curvature="0" /></g><g
       id="g452"
       transform="matrix(0.36429317,0,0,0.36429317,90.033779,136.94761)"><path
         d="m 0,0 c -2.483,-0.131 -4.889,-0.005 -7.197,0.297 1.129,-1.722 2.195,-4.15 1.859,-6.9 C -2.817,-4.964 -1.111,-2.375 0,0"
         style="fill:#9e005d;fill-opacity:1;fill-rule:nonzero;stroke:none"
         id="path454"
         inkscape:connector-curvature="0" /></g><g
       id="g456"
       transform="matrix(0.36429317,0,0,0.36429317,87.412064,137.05576)"><path
         d="m 0,0 c -10.51,1.373 -18.917,6.51 -22.469,9.004 0.716,-6.091 3.898,-14.172 15.216,-17.109 3.84,-0.997 6.814,-0.29 9.112,1.206 C 2.194,-4.15 1.129,-1.722 0,0"
         style="fill:#da727e;fill-opacity:1;fill-rule:nonzero;stroke:none"
         id="path458"
         inkscape:connector-curvature="0" /></g><g
       id="g460"
       transform="matrix(0.36429317,0,0,0.36429317,69.578931,22.075003)"><path
         d="m 0,0 -1.007,13.891 c 0,0 -14.003,13.757 -28.005,2.798 0,0 -1.008,-2.797 -1.008,-5.263 L -30.02,0 c 0,0 13.105,15.012 30.02,0"
         style="fill:#edf9fd;fill-opacity:1;fill-rule:nonzero;stroke:none"
         id="path462"
         inkscape:connector-curvature="0" /></g><g
       id="g464"
       transform="matrix(0.36429317,0,0,0.36429317,98.838383,10.403743)"><path
         d="M 0,0 C 31.926,0.561 38.423,9.185 38.423,9.185 37.946,10.97 37.33,12.661 36.617,14.279 34.47,12.315 23.729,6.159 1.838,4.703 -20.07,3.249 -34.203,7.861 -34.203,7.861 c 0.294,-2.638 0.597,-4.278 0.597,-4.278 0,0 1.681,-4.144 33.606,-3.583"
         style="fill:#edf9fd;fill-opacity:1;fill-rule:nonzero;stroke:none"
         id="path466"
         inkscape:connector-curvature="0" /></g><g
       id="g468"
       transform="matrix(0.36429317,0,0,0.36429317,101.8854,18.71276)"><path
         d="m 0,0 c -6.301,7.17 -15.627,11.391 -19.832,13.025 -0.795,-1.418 -1.078,-2.452 -1.078,-2.452 -5.411,-1.563 -10.978,3.583 -12.434,6.16 -1.457,2.577 -2.912,2.354 -2.912,2.354 -8,-8.845 -7.202,-26.04 -6.311,-34.034 0,0 14.132,-4.613 36.041,-3.158 0.691,0.047 1.337,0.11 2.005,0.166 -0.219,0.292 -0.371,0.507 -0.371,0.507 C -4.566,-9.885 -2.562,-4.222 0,0"
         style="fill:#455c7b;fill-opacity:1;fill-rule:nonzero;stroke:none"
         id="path470"
         inkscape:connector-curvature="0" /></g><g
       id="g472"
       transform="matrix(0.36429317,0,0,0.36429317,101.8854,18.71276)"><path
         d="m 0,0 c 3.664,6.037 8.47,9.118 11.175,10.467 -10.88,7.137 -22.115,9.739 -22.115,9.739 -4.982,-1.592 -7.609,-4.891 -8.892,-7.181 C -15.627,11.391 -6.301,7.17 0,0"
         style="fill:#dddddd;fill-opacity:1;fill-rule:nonzero;stroke:none"
         id="path474"
         inkscape:connector-curvature="0" /></g><g
       id="g476"
       transform="matrix(0.36429317,0,0,0.36429317,107.48003,21.432499)"><path
         d="m 0,0 c -0.124,-1.603 -0.239,-2.845 -0.309,-3.058 -0.225,-0.675 -2.913,-4.925 -2.913,-4.925 0,0 -2.24,-13.107 -10.193,-1.906 -0.602,0.848 -1.259,1.648 -1.942,2.423 -2.562,-4.222 -4.567,-9.885 -4.892,-17.431 0,0 0.151,-0.216 0.37,-0.508 20.522,1.686 30.694,7.509 32.775,9.41 C 9.965,-9.348 5.205,-4.098 0,0"
         style="fill:#edf9fd;fill-opacity:1;fill-rule:nonzero;stroke:none"
         id="path478"
         inkscape:connector-curvature="0" /></g><g
       id="g480"
       transform="matrix(0.36429317,0,0,0.36429317,101.8854,18.71276)"><path
         d="m 0,0 c 0.684,-0.775 1.34,-1.575 1.942,-2.423 7.953,-11.201 10.194,1.905 10.194,1.905 0,0 2.688,4.25 2.912,4.926 0.07,0.213 0.185,1.455 0.309,3.058 -1.371,1.081 -2.774,2.077 -4.182,3.001 C 8.47,9.118 3.664,6.037 0,0"
         style="fill:#edf9fd;fill-opacity:1;fill-rule:nonzero;stroke:none"
         id="path482"
         inkscape:connector-curvature="0" /></g><g
       id="g484"
       transform="matrix(0.36429317,0,0,0.36429317,83.093742,154.7254)"><path
         d="m 0,0 c 0,-0.939 -0.645,-1.7 -1.439,-1.7 -0.794,0 -1.438,0.761 -1.438,1.7 0,0.937 0.644,1.698 1.438,1.698 C -0.645,1.698 0,0.937 0,0"
         style="fill:#ffffff;fill-opacity:1;fill-rule:nonzero;stroke:none"
         id="path486"
         inkscape:connector-curvature="0" /></g><g
       id="g488"
       transform="matrix(0.36429317,0,0,0.36429317,95.713943,151.20323)"><path
         d="m 0,0 c 0,-0.797 -0.497,-1.442 -1.11,-1.442 -0.615,0 -1.113,0.645 -1.113,1.442 0,0.796 0.498,1.442 1.113,1.442 C -0.497,1.442 0,0.796 0,0"
         style="fill:#ffffff;fill-opacity:1;fill-rule:nonzero;stroke:none"
         id="path490"
         inkscape:connector-curvature="0" /></g><g
       id="g492"
       transform="matrix(0.36429317,0,0,0.36429317,55.255878,10.688729)"><path
         d="m 0,0 c 0,0 -0.449,18.606 20.05,18.597 21.852,-0.014 24.533,-21.06 24.533,-21.06 0,0 -8.402,-3.361 -9.521,-3.697 C 33.942,-6.494 19.38,-8.514 17.475,-7.952 15.57,-7.392 6.048,-5.489 5.152,-4.927 4.256,-4.367 0,0 0,0"
         style="fill:#edf9fd;fill-opacity:1;fill-rule:nonzero;stroke:none"
         id="path494"
         inkscape:connector-curvature="0" /></g></g></svg>