<?xml version="1.0" encoding="UTF-8" standalone="no"?>
<!-- Created with Inkscape (http://www.inkscape.org/) -->
<svg id="svg2" xmlns:rdf="http://www.w3.org/1999/02/22-rdf-syntax-ns#" xmlns="http://www.w3.org/2000/svg" xml:space="preserve" height="66mm" viewBox="0 0 194.88189 233.85827" width="55mm" version="1.1" xmlns:cc="http://creativecommons.org/ns#" xmlns:dc="http://purl.org/dc/elements/1.1/"><metadata id="metadata8"><rdf:RDF><cc:Work rdf:about=""><dc:format>image/svg+xml</dc:format><dc:type rdf:resource="http://purl.org/dc/dcmitype/StillImage"/><dc:title/></cc:Work></rdf:RDF></metadata><defs id="defs6"><clipPath id="clipPath160" clipPathUnits="userSpaceOnUse"><path id="path162" d="m98.413 212.31h169.92v-56.174h-169.92v56.174z"/></clipPath></defs><g id="g10" transform="matrix(1.25 0 0 -1.25 0 233.86)"><g id="g156" transform="matrix(.36429 0 0 .36429 22.127 -37.199)"><g id="g164"><g id="g166" opacity="0.2" clip-path="url(#clipPath160)"><g id="g168" transform="translate(268.34 184.22)"><path id="path170" d="m0 0c0-15.512-38.039-28.086-84.962-28.086-46.924 0-84.962 12.574-84.962 28.086 0 15.513 38.038 28.088 84.962 28.088 46.919 0 84.958-12.575 84.958-28.088" fill="#087f82"/></g></g></g></g><g id="g356" transform="matrix(.36429 0 0 .36429 90.707 119.08)"><path id="path358" d="m0 0s-2.66 17.026-34.473 25.093c-31.815 8.065-52.71-3.525-52.71-3.525s-48.008-127.52 14.175-152.86c62.182-25.333 52.264 29.128 53.688 32.71 1.424 3.585 10.16 60.491 10.274 61.835 0.113 1.347 9.046 36.745 9.046 36.745" fill="#bf5867"/></g><g id="g360" transform="matrix(.36429 0 0 .36429 88.677 25.666)"><path id="path362" d="m0 0-0.561 8.289s-0.447 3.473 12.659 4.367c13.106 0.897 12.322-3.358 12.322-3.358l0.896-8.179-6.833-12.099s-9.746-3.81-10.193-3.697c-0.45 0.113-7.394 2.466-7.394 2.466l-0.896 12.211z" fill="#edf9fd"/></g><g id="g364" transform="matrix(.36429 0 0 .36429 70.475 40.354)"><path id="path366" d="m0 0-7.22-35.279-18.148 0.84 6.218 37.137s15.113 0.992 19.15-2.698" fill="#ffcd9f"/></g><g id="g368" transform="matrix(.36429 0 0 .36429 88.305 43.11)"><path id="path370" d="m0 0 3.149-37.97h7.562c1.848 0 9.577 1.067 9.577 1.067l-2.352 36.903-8.738 1.516-9.198-1.516z" fill="#ffcd9f"/></g><g id="g372" transform="matrix(.36429 0 0 .36429 58.497 96.98)"><path id="path374" d="m0 0s-9.625-29.916-11.138-60.832c0 0 10.922-3.362 12.266-19.491 1.344-16.132-10.25-11.763-11.089-3.025-0.841 8.737-2.353 5.545-2.353 5.545s-3.361-9.41 1.176-23.356c0 0 1.177-4.704-4.201-5.208-5.377-0.505-7.057 4.367-7.057 4.367s-6.217 0.168-9.074 6.722c0 0-6.933 3.372-5.881 19.827 0.896 14.001 8.57 17.98 8.57 17.98s5.713 44.694 13.073 61.76c5.878 13.629 8.435 4.61 9.106 4.779 0.673 0.168 5.883-3.361 5.883-3.361l0.719-5.707z" fill="#ffcd9f"/></g><g id="g376" transform="matrix(.36429 0 0 .36429 98.396 100.71)"><path id="path378" d="m0 0s4.471-51.754 8.948-69.229c0 0 8.51-8.736 7.502-22.179-1.008-13.442-12.098-14.449-14.787-3.025-2.687 11.427-17.768 31.254-15.773 32.934 1.995 1.682 1.995 34.614 1.995 36.967 0 2.352 2.353 18.517 3.025 19.003 0.672 0.487 9.09 5.529 9.09 5.529" fill="#ffcd9f"/></g><g id="g380" transform="matrix(.36429 0 0 .36429 99.45 73.207)"><path id="path382" d="m0 0s5.602-45.481 6.945-78.191c0 0-19.266-10.976-51.304-1.346l-2.465 38.389-9.186-42.345s-9.795-8.528-29.235-6.336c-8.45 0.953-23.862 3.573-30.807 10.517 0 0 11.201 67.214 12.994 79.312 1.792 12.095 5.825 11.201 5.825 11.201s31.367-0.865 34.278 0.015c2.913 0.879 32.486-6.065 33.606-6.065 1.121 0 13.524-3.256 15.459-2.688 1.935 0.569 15.049-3.43 15.049-3.43" fill="#ffbc67"/></g><g id="g384" transform="matrix(.36429 0 0 .36429 83.862 124.63)"><path id="path386" d="m0 0 23.299-14.115s15.907-19.492 24.421-49.065c0 0-2.464-5.601-9.186-6.946 0 0 4.033-34.503 6.722-71.246 0 0-9.858-6.941-40.776-7.391-30.917-0.449-63.179 6.721-69.227 9.857 0 0 10.752 60.919 11.873 64.512 0 0-13.442-4.467-28.453 1.134-15.01 5.6-23.075 15.458-23.075 15.458s20.835 54.215 40.55 63.85l21.729 0.285 7.841 0.103 34.281-6.437z" fill="#685c79"/></g><g id="g388" transform="matrix(.36429 0 0 .36429 68.517 126.93)"><path id="path390" d="m0 0s10.309-18.432 8.068-44.645c-2.239-26.211-13.731-43.916-21.428-49.178l2.609 13.097s5.153 25.103 5.825 45.716c0.673 20.612-6.499 34.861-6.499 34.861l11.425 0.149z" fill="#da727e"/></g><g id="g392" transform="matrix(.36429 0 0 .36429 88.115 122.05)"><path id="path394" d="m0 0s23.084-48.714 28.221-75.375c0 0-3.825 37.864-16.596 68.333l-11.625 7.042z" fill="#da727e"/></g><g id="g396" transform="matrix(.36429 0 0 .36429 82.515 59.128)"><path id="path398" d="m0 0s6.721 6.497 15.011 9.298c0 0-12.882-9.521-15.011-16.242v6.944z" fill="#e29a4b"/></g><g id="g400" transform="matrix(.36429 0 0 .36429 62.356 8.6485)"><path id="path402" d="m0 0c14.031-0.103 22.37 2.688 28.869 7.027-0.305 7.283-1.882 21.077-9.041 31.62-10.193 15.011-18.931 7.73-19.267 7.392-0.336-0.334-7.729-2.127-7.729-2.127l-3.024-1.568s-8.026-13.098-12.342-32.489c2.617-2.771 10.409-9.766 22.534-9.855" fill="#455c7b"/></g><g id="g404" transform="matrix(.36429 0 0 .36429 62.968 5.9963)"><path id="path406" d="m0 0c20.164-0.067 27.221 9.297 27.221 9.297s0.097 1.924-0.032 5.011c-6.499-4.34-14.838-7.13-28.869-7.028-12.126 0.089-19.917 7.084-22.534 9.856-0.356-1.603-0.691-3.242-0.99-4.925 0 0 4.115-12.141 25.204-12.211" fill="#edf9fd"/></g><g id="g408" transform="matrix(.36429 0 0 .36429 58.153 15.871)"><path id="path410" d="m0 0 4.592 21.061s9.858 4.591 14.227 3.919c4.37-0.671 8.738-3.471 8.738-3.471l-2.129-22.74s-21.172-1.682-21.508-1.682-3.92 2.913-3.92 2.913" fill="#ddd"/></g><g id="g412" transform="matrix(.36429 0 0 .36429 71.456 132.48)"><path id="path414" d="m0 0v-15.109s28.061-13.106 36.546-7.393v11.425l-30.16 11.077h-6.386z" fill="#f2aa75"/></g><g id="g416" transform="matrix(.36429 0 0 .36429 101.65 159.07)"><path id="path418" d="m0 0s1.12-66.764-36.743-84.686c0 0-12.769-5.378-27.78 0-15.011 5.376-32.934 19.491-38.983 38.757-6.049 19.268-6.049 12.771-6.049 12.771s-7.17 4.706-3.586 27.109c3.586 22.403 15.909 25.764 17.028 26.884 1.12 1.121 11.202 5.154 13.218 7.17 2.017 2.016 18.371 5.825 20.164 6.946 1.792 1.119 19.266-4.034 22.852-4.482 3.585-0.448 27.557-15.011 31.141-16.354 3.594-1.345 8.747-14.115 8.747-14.115" fill="#ffcd9f"/></g><g id="g420" transform="matrix(.36429 0 0 .36429 95.023 146.87)"><path id="path422" d="m0 0s3.265-2.482 2.761-7.187-7.298-5.248-7.298-5.248 8.401-0.839 9.745 4.706c1.345 5.544-5.208 7.729-5.208 7.729" fill="#dd9a64"/></g><g id="g424" transform="matrix(.36429 0 0 .36429 76.19 168.78)"><path id="path426" d="m0 0s6.945-10.979 25.764-14.339c18.82-3.361 47.049-12.77 50.409-25.765 0 0 10.313 23.525-6.27 38.536 0 0-3.39 22.177-40.554 33.157-29.573 8.738-39.207-7.393-39.207-7.393s-47.721-0.897-41.447-64.3c0 0 0.287 10.28 5.825 14.787 0 0-10.817-39.184 20.164-67.436 0 0-11.651 22.405-8.514 32.598 0 0-12.994 6.386-7.394 23.189 5.601 16.802 19.715 5.823 18.147-7.618l4.706-0.448s2.912 10.548 7.393 16.476c4.48 5.928 12.099 14.889 10.978 28.556" fill="#a75265"/></g><g id="g428" transform="matrix(.36429 0 0 .36429 84.637 153.64)"><path id="path430" d="m0 0c0-3.403-1.932-6.162-4.314-6.162-2.381 0-4.312 2.759-4.312 6.162 0 3.402 1.931 6.161 4.312 6.161 2.382 0 4.314-2.759 4.314-6.161" fill="#3e3947"/></g><g id="g432" transform="matrix(.36429 0 0 .36429 97.101 150.15)"><path id="path434" d="m0 0c0-2.996-1.621-5.423-3.621-5.423-1.998 0-3.618 2.427-3.618 5.423s1.62 5.423 3.618 5.423c2 0 3.621-2.427 3.621-5.423" fill="#3e3947"/></g><g id="g436" transform="matrix(.36429 0 0 .36429 84.964 161.31)"><path id="path438" d="m0 0v-4.929s-5.152 6.497-11.985 1.904c0 0 4.144 7.394 11.985 3.025" fill="#a75265"/></g><g id="g440" transform="matrix(.36429 0 0 .36429 95.178 157.64)"><path id="path442" d="m0 0v-3.902s4.965 1.283 6.798-2.036c0 0 0.406 5.938-6.798 5.938" fill="#a75265"/></g><g id="g444" transform="matrix(.36429 0 0 .36429 84.77 131.47)"><path id="path446" d="m0 0s-7.646 0.42-11.594 4.621c0 0 4.369-8.065 11.594-4.621" fill="#dd9a64"/></g><g id="g448" transform="matrix(.36429 0 0 .36429 79.292 143.04)"><path id="path450" d="m0 0s-0.67-3.243-0.178-7.422c4.332-3.042 15.882-10.028 29.666-9.301 1.376 2.946 1.849 5.55 1.849 5.55s-19.659 2.52-31.337 11.173" fill="#fdf5ed"/></g><g id="g452" transform="matrix(.36429 0 0 .36429 90.034 136.95)"><path id="path454" d="m0 0c-2.483-0.131-4.889-0.005-7.197 0.297 1.129-1.722 2.195-4.15 1.859-6.9 2.521 1.639 4.227 4.228 5.338 6.603" fill="#9e005d"/></g><g id="g456" transform="matrix(.36429 0 0 .36429 87.412 137.06)"><path id="path458" d="m0 0c-10.51 1.373-18.917 6.51-22.469 9.004 0.716-6.091 3.898-14.172 15.216-17.109 3.84-0.997 6.814-0.29 9.112 1.206 0.335 2.749-0.73 5.177-1.859 6.899" fill="#da727e"/></g><g id="g460" transform="matrix(.36429 0 0 .36429 69.579 22.075)"><path id="path462" d="m0 0-1.007 13.891s-14.003 13.757-28.005 2.798c0 0-1.008-2.797-1.008-5.263v-11.426s13.105 15.012 30.02 0" fill="#edf9fd"/></g><g id="g464" transform="matrix(.36429 0 0 .36429 98.838 10.404)"><path id="path466" d="m0 0c31.926 0.561 38.423 9.185 38.423 9.185-0.477 1.785-1.093 3.476-1.806 5.094-2.147-1.964-12.888-8.12-34.779-9.576-21.908-1.454-36.041 3.158-36.041 3.158 0.294-2.638 0.597-4.278 0.597-4.278s1.681-4.144 33.606-3.583" fill="#edf9fd"/></g><g id="g468" transform="matrix(.36429 0 0 .36429 101.89 18.713)"><path id="path470" d="m0 0c-6.301 7.17-15.627 11.391-19.832 13.025-0.795-1.418-1.078-2.452-1.078-2.452-5.411-1.563-10.978 3.583-12.434 6.16-1.457 2.577-2.912 2.354-2.912 2.354-8-8.845-7.202-26.04-6.311-34.034 0 0 14.132-4.613 36.041-3.158 0.691 0.047 1.337 0.11 2.005 0.166-0.219 0.292-0.371 0.507-0.371 0.507 0.326 7.547 2.33 13.21 4.892 17.432" fill="#455c7b"/></g><g id="g472" transform="matrix(.36429 0 0 .36429 101.89 18.713)"><path id="path474" d="m0 0c3.664 6.037 8.47 9.118 11.175 10.467-10.88 7.137-22.115 9.739-22.115 9.739-4.982-1.592-7.609-4.891-8.892-7.181 4.205-1.634 13.531-5.855 19.832-13.025" fill="#ddd"/></g><g id="g476" transform="matrix(.36429 0 0 .36429 107.48 21.432)"><path id="path478" d="m0 0c-0.124-1.603-0.239-2.845-0.309-3.058-0.225-0.675-2.913-4.925-2.913-4.925s-2.24-13.107-10.193-1.906c-0.602 0.848-1.259 1.648-1.942 2.423-2.562-4.222-4.567-9.885-4.892-17.431 0 0 0.151-0.216 0.37-0.508 20.522 1.686 30.694 7.509 32.775 9.41-2.931 6.647-7.691 11.897-12.896 15.995" fill="#edf9fd"/></g><g id="g480" transform="matrix(.36429 0 0 .36429 101.89 18.713)"><path id="path482" d="m0 0c0.684-0.775 1.34-1.575 1.942-2.423 7.953-11.201 10.194 1.905 10.194 1.905s2.688 4.25 2.912 4.926c0.07 0.213 0.185 1.455 0.309 3.058-1.371 1.081-2.774 2.077-4.182 3.001-2.705-1.349-7.511-4.43-11.175-10.467" fill="#edf9fd"/></g><g id="g484" transform="matrix(.36429 0 0 .36429 83.094 154.73)"><path id="path486" d="m0 0c0-0.939-0.645-1.7-1.439-1.7s-1.438 0.761-1.438 1.7c0 0.937 0.644 1.698 1.438 1.698s1.439-0.761 1.439-1.698" fill="#fff"/></g><g id="g488" transform="matrix(.36429 0 0 .36429 95.714 151.2)"><path id="path490" d="m0 0c0-0.797-0.497-1.442-1.11-1.442-0.615 0-1.113 0.645-1.113 1.442 0 0.796 0.498 1.442 1.113 1.442 0.613 0 1.11-0.646 1.11-1.442" fill="#fff"/></g><g id="g492" transform="matrix(.36429 0 0 .36429 55.256 10.689)"><path id="path494" d="m0 0s-0.449 18.606 20.05 18.597c21.852-0.014 24.533-21.06 24.533-21.06s-8.402-3.361-9.521-3.697c-1.12-0.334-15.682-2.354-17.587-1.792-1.905 0.56-11.427 2.463-12.323 3.025-0.896 0.56-5.152 4.927-5.152 4.927" fill="#edf9fd"/></g></g></svg>
